<svg id="colour" xmlns="http://www.w3.org/2000/svg" xmlns:xlink="http://www.w3.org/1999/xlink" viewBox="0 0 841.89 595.28"><defs><style>.cls-1{fill:#ebf9ff;}.cls-2{fill:#00aaad;}.cls-3{fill:#e1e43c;}.cls-4{fill:#b2d235;}.cls-5{fill:#c8dc5c;}.cls-6{fill:#90a93d;}.cls-7{fill:#a6bd38;}.cls-8{fill:#00aeef;}.cls-9{fill:#53b7e8;}.cls-10{fill:#009bdf;}.cls-11{fill:#f7f2da;}.cls-12{fill:#f4bb3a;}.cls-13{fill:#ef9d9c;}.cls-14{fill:#f8db94;}.cls-15{fill:#eeeef0;}.cls-16{fill:#a6c538;}.cls-17{fill:#494949;}.cls-18{fill:#6a4462;}.cls-19{fill:#895881;}.cls-20{fill:none;}.cls-21{fill:#a17a94;}.cls-22{fill:#fff;}.cls-23{fill:#ffcf01;}.cls-24{fill:url(#linear-gradient);}.cls-25{fill:#d6c2ad;}.cls-26{fill:#b29c88;}.cls-27{fill:#e5d3bd;}.cls-28{fill:#937963;}.cls-29{fill:#f6e8d7;}.cls-30{fill:#898989;}.cls-31{fill:#a5a5a5;}.cls-32{fill:#5bc9e1;}.cls-33{fill:#91d6e8;}.cls-34{fill:#3676bc;}.cls-35{fill:#005aaa;}.cls-36{fill:#4f87c6;}.cls-37{fill:#d0ecf4;}.cls-38{fill:#e1f3fd;}.cls-39{fill:#f09b36;}.cls-40{fill:#f4c850;}</style><linearGradient id="linear-gradient" x1="158.34" y1="444.91" x2="158.34" y2="425.13" gradientUnits="userSpaceOnUse"><stop offset="0.25" stop-color="#895881"/><stop offset="1" stop-color="#a17a94"/></linearGradient></defs><title>Artboard 6</title><polyline class="cls-1" points="-5 -9.92 -5 551.41 852 551.41 852 -9.92"/><rect class="cls-2" x="433.66" y="207.04" width="93.91" height="50.72"/><polygon class="cls-2" points="491.97 259.01 491.97 108.41 511.33 175.03 523.34 83.5 531.95 145.34 563.18 77.38 560.33 201.67 560.33 256.43 491.97 259.01"/><path class="cls-3" d="M504.94,89c-3.68-21,7.88-35.5,11.56-55.5C490,40.07,475.59,65,457,82.6c-13.41,12.7-30.1,22.18-40.59,37.75A73.75,73.75,0,0,0,406,143.92c-1.58,6.42-5.61,21.34-3,27.58l-1.05-2.5c-.52,20-13.66,41.5-15.76,60.5-.53,5-2.11,40.5,7.35,39.5l93.54,2.5c8.94-10,15.24-26.5,17.34-39,2.11-13-5.78-20.5-12.08-31-12.62-21-2.63-31.5,7.35-50C510.72,131,509.14,110.5,504.94,89ZM493,230.05c0,11.32-6.49,20.5-14.5,20.5s-14.5-9.18-14.5-20.5,6.49-20.5,14.5-20.5S493,218.73,493,230.05Z"/><path class="cls-4" d="M492,222.48a27.68,27.68,0,0,1,.9,4.94c3.82-1.25,7.62-2.58,11.37-4a25.76,25.76,0,0,0-1.51-4.75C499.18,220,495.58,221.28,492,222.48Z"/><path class="cls-4" d="M504.05,109.38c-8.92,1.86-17.82,3.78-26.67,5.88,1.06-5.51.57-11.32.37-16.88-.57-15.69,6.32-30.39,15.39-42.93,6.17-8.53,14.54-15.17,22.78-21.79A56.8,56.8,0,0,0,500.5,40.3a96.83,96.83,0,0,0-10.26,10.77c-7.81,9.76-15.5,23.73-17.06,36.3-.91,7.26-.08,14.5-.2,21.78l0,.58q-6.36-15-13.36-29.66c-.85.86-1.71,1.7-2.58,2.53-.39.37-.79.73-1.19,1.09q7.5,15.82,14.27,32a2.56,2.56,0,0,0,1,1.22,2.36,2.36,0,0,0-.89,2.9,32.3,32.3,0,0,1-6.29,7.73c-6.12,5.75-12.92,10.75-19,16.5-4.78-13.67-9.28-27.49-11.47-41.81-1.49,1.27-2.95,2.55-4.39,3.87,2.53,14.3,7.11,28.11,11.95,41.86-1,1-1.88,2.07-2.78,3.17a40.75,40.75,0,0,0-3.51,5,2.57,2.57,0,0,0-1.58,3A46.22,46.22,0,0,0,428.88,183c0,.2,0,.39.05.58C421.84,169.8,414,156.43,406.22,143c-.08.31-.17.62-.24.92-.39,1.59-.94,3.7-1.49,6.07,9.27,16,18.54,32,26.35,48.77a2.14,2.14,0,0,0,1.38,1.23c1.75,6.87,3.46,13.74,3.2,21s-3,14.39-5.21,21.08c-2.4,7.24-5.25,14.33-8.1,21.41q-1.26,3.12-2.51,6.25l5.24.14c3.08-7.71,6.22-15.4,9-23.21a253.84,253.84,0,0,1,30.78-10.77,28.29,28.29,0,0,1-.57-5c-9.48,2.79-18.91,5.73-28.08,9.45,1.29-4,2.48-8.07,3.46-12.18,1.82-7.64,1-15.14-.63-22.56,15.91-3,30.44-10.58,45.88-15.2l2.55-.77a26.78,26.78,0,0,1-.75-5l-3.12,1c-15.35,4.68-29.87,12.11-45.68,15.16-.77-3.11-1.59-6.21-2.32-9.3-2.5-10.57-2.06-21.21,2.59-30.57,14.51-.84,28.74-3.93,43-6.37,6.15-1,12.31-1.79,18.47-2.54l.25-.47c.87-1.61,1.65-3.23,2.37-4.84-6.84.87-13.71,1.63-20.56,2.72-13.49,2.16-26.83,5.17-40.45,6.28q.75-1,1.56-2c7.09-8.67,16.62-15.12,24.87-22.57a33.94,33.94,0,0,0,8.16-10.23c10.5-2.55,21.06-4.81,31.64-7,.26-.06.52-.1.79-.15-.05-1.66-.14-3.31-.27-5C506.54,108.89,505.3,109.12,504.05,109.38Z"/><polygon class="cls-2" points="139.19 157.77 191 220.33 222.33 261.33 146 261.33 139.19 157.77"/><path class="cls-4" d="M72.5,263.5c-8.5-7-15-23.5-14-35,1.5-15,13-13,20.5-22.5,3.5-5,4.21-11.92,4.5-18,3.17-66,28.5-94.5,53-98-31,60,49.83,102.33,17.5,171"/><path class="cls-5" d="M160.48,213.42c-13.42,10.46-27.85,19.74-39.27,32.41a139,139,0,0,0-.54-22.47,128,128,0,0,0-2.79-16.61c5.7-7.89,10.34-16.48,15.9-24.47a143.76,143.76,0,0,1,10.58-13c-.6-1.29-1.19-2.59-1.78-3.88-3.86,4.39-7.72,8.78-11.23,13.47-5.43,7.28-9.74,15.31-14.8,22.84-.52-1.84-1.08-3.67-1.69-5.47a125.3,125.3,0,0,1-6.36-35.58A1.62,1.62,0,0,0,109,159c7.71-5.8,16.76-9.09,25.48-13.05-.44-1.25-.86-2.51-1.26-3.77-8.44,3.93-17.14,7.17-24.87,12.43a98.66,98.66,0,0,1,4.76-31.35c2.94-8.94,7.58-15.9,13.68-23,3-3.49,6.14-6.84,9.33-10.14A38.66,38.66,0,0,0,129,91.9c-2.58,2.79-5.12,5.61-7.54,8.54-12,14.46-16.39,32-17,50.35-3.83-8.54-5.17-18-6.78-27.31q-1.52,3.1-2.91,6.54c1.78,10.19,3.9,20.36,9.68,29.08A135.48,135.48,0,0,0,108,187.18c1.19,5,2.73,9.83,4.18,14.69-8.14-9.94-17.74-18.5-27.7-26.63-.16,1.56-.29,3.16-.42,4.78,10.94,9,21.37,18.7,29.59,30.32a1.92,1.92,0,0,0,1,.78c.41,1.75.79,3.51,1.09,5.29a127.19,127.19,0,0,1,1.58,30.19c-5.46-8.65-14-15.16-21.53-21.89-6.24-5.58-12-11.58-18.06-17.24a23,23,0,0,1-3,2.61c5.81,5.36,11.28,11.09,17.12,16.49,8.54,7.92,18.83,15,24,25.77a1.77,1.77,0,0,0,.67.77,88.93,88.93,0,0,1-1.75,9.09l4.06-.12c.7-3.08,1.26-6.2,1.65-9.34,11.28-14.12,26.38-24,40.59-34.83C161,216.4,160.75,214.9,160.48,213.42Z"/><polygon class="cls-2" points="410.33 65.33 395.67 135.67 384.67 32 361 115.67 355.69 80.67 337.67 242.67 337.67 254.33 431 257 410.33 65.33"/><path class="cls-2" d="M247.33,189l-1.66-76.33s22,69,22.66,67.33S277,95.33,277,95.33l14.33,105.34L320,122V257.08H236"/><polygon class="cls-3" points="256.33 250.67 252.33 191.67 233.33 261.33 268.67 261.33 272 205.33 256.33 250.67"/><polygon class="cls-6" points="229.33 87 233.33 159.67 206.67 90 229.33 87"/><path class="cls-4" d="M452.67,231.33c-1.34-18-10.67-35.33-23.34-48.66-21.33-22.67-47.33-26-48-61.34,0-13.33,2-29.33-3.33-42C371.33,64,352.67,54.67,337.33,50.67c-20-4.67-72.66-2-76-30,.67,26.66-4.66,52.66-3.33,78.66,2,29.34,12,48.67,34,66.67,14.67,12,22,23.33,20.67,42.67-1.34,24-3.34,40.66,6,64L450,281.33C455.33,267.33,453.33,246,452.67,231.33ZM304.43,133.27a21.82,21.82,0,0,1-.76,4.82l.48-3.39c-2,8-9.45,14.6-18.1,10.42-8.94-3.69-11.54-19.48-10.88-27.53,1.14-29.9,29.65-6.63,29.29,14.91l.18-1.23A16.74,16.74,0,0,1,304.43,133.27Zm32.76-65.9c-1.51,3.48-4.27,5.64-6.17,4.81s-2.22-4.31-.71-7.8,4.27-5.64,6.17-4.81S338.7,63.88,337.19,67.37Zm24.12,39.7c-4.91,1.8-12-5.2-15.81-15.64s-2.93-20.36,2-22.16,12,5.21,15.81,15.65S366.22,105.28,361.31,107.07Z"/><path class="cls-6" d="M275.08,119.44c-5.17-2.55-10.37-5.06-15.61-7.47.35,2,.76,4.06,1.21,6q7.4,3.47,14.69,7.11A43.82,43.82,0,0,1,275.08,119.44Z"/><path class="cls-6" d="M365.31,92.73c1.4-4.18,2.84-8.35,4.35-12.49,1.09-3,2.26-5.93,3.46-8.86a42.24,42.24,0,0,0-3.7-4c-1.13,2.67-2.23,5.35-3.28,8.06q-1.65,4.29-3.18,8.64c.11.28.22.55.33.84A40.74,40.74,0,0,1,365.31,92.73Z"/><path class="cls-6" d="M450.48,218.93c-6.17,10.39-12.93,20.43-19.42,30.63S418,269.87,409.83,278.68l6.31.42c6.52-7.58,12.13-16,17.52-24.34,6.14-9.51,12.47-18.95,18.38-28.62A68.58,68.58,0,0,0,450.48,218.93Z"/><path class="cls-6" d="M431.35,184.86c-.67-.74-1.33-1.48-2-2.19s-1.12-1.17-1.69-1.75c-9.43,25.75-22.54,50.42-32.67,75.79-6-13.23-13.9-25.71-21.8-38.08L371.5,216c9.05-19.33,19.12-38.19,28.19-57.5-1.34-1.1-2.64-2.22-3.88-3.38C387,174,377.22,192.31,368.34,211.07c-5.66-8.92-11.17-18-15.17-27.76s-6.4-20-8.85-30.25c6.37-14.92,11.27-30.37,16.23-45.8a6.93,6.93,0,0,1-4.88-1.27c-4.17,13.08-8.28,26.18-13.36,38.94-3.18-12.37-7.33-24.48-14.26-35.3-4.87-7.6-11.32-13.93-18.12-19.78,4.92-11.74,7.86-24.14,11.58-36.29.51-1.67,1-3.34,1.57-5l-5-.54c-.09.29-.19.58-.29.87-4.19,12.46-6.87,25.42-11.82,37.62-14.11-11.56-31.21-22.62-38-40.26a39.36,39.36,0,0,1-2.44-15.39,19.92,19.92,0,0,1-4-9q-.09.43-.15.87c.07,4.93-.05,9.84-.29,14.73,1.68,12.74,8.44,23.8,18.5,33.52,7.25,7,15.42,13,23.21,19.45C287.5,89.6,273,84.22,258,81.51c-.07,1.66-.12,3.32-.15,5,15.91,2.87,31.3,8.8,47.66,9a2.23,2.23,0,0,0,2-1.07,91.44,91.44,0,0,1,16.2,17.73c8.22,12.24,12,26.26,15.39,40.42l-.06.14c-10.73-7.76-22.69-13.44-34.66-19.05a21.47,21.47,0,0,1-.73,4.42l.48-3.39a17.59,17.59,0,0,1-1.38,3.73c12.48,5.88,24.94,11.82,36,20.23a2,2,0,0,0,1.94.37c2.29,9.44,4.72,18.82,8.52,27.67a182.89,182.89,0,0,0,11.43,21.79c-12.6-7.28-26.55-12.11-40.18-17.1-3.63-1.33-7.25-2.72-10.86-4.12a38,38,0,0,1,2,6.11l4.55,1.73c17,6.35,34.6,12,49.6,22.55a2.31,2.31,0,0,0,.84.38c7.74,12.13,15.84,24.06,22.22,36.9,1,2,1.95,4.09,2.84,6.17-7.88-2.1-15.26-6.78-22.65-10.06-8.39-3.72-16.92-7.14-25.29-10.91-10.67-4.8-21.24-9.71-32-14.26-.07,1.81-.13,3.58-.16,5.34,11.06,4.73,21.94,9.84,33,14.73,8.39,3.72,16.92,7.14,25.29,10.91,7.38,3.32,14.53,7.91,22.54,9.55a2.57,2.57,0,0,0,1.42-.1,118.61,118.61,0,0,1,3.69,11.56l5.24.34a122.61,122.61,0,0,0-4.92-15C407.81,236.82,421.36,211.38,431.35,184.86Z"/><polygon class="cls-7" points="647 149.04 624 51 613.25 46.61 613.25 257.08 626.5 257.08 647 149.04"/><polygon class="cls-4" points="599.5 41 570 151 602.5 257.08 613.25 257.08 613.25 46.61 599.5 41"/><polyline class="cls-6" points="599.5 41 663.5 106 642.5 41 599.5 41"/><path class="cls-4" d="M628,251.33c-18-18.66-18.67-44.66-6.67-67.33,9.34-18.67,22-40.67,44-43.33,24.67-2.67,22-20,28.67-39.34,8-20,24-29.33,44.67-34,5.33-1.33,12-1.33,17.33-2C745.33,82,743.33,98.67,746.67,118c2,14.67,14,27.33,10,43.33-3.34,13.34-38.67,21.34-16,36,8.66,6,18,7.34,23.33,18,4.67,10,6,28,2,38-2.67,6-7.33,12-14,11.34"/><path class="cls-7" d="M764,215.33l-.15-.27-1.12.19c-17.91,3.11-35.75,6.63-53.89,8.05,4.2-11.14,4.29-23.59-5.91-29.85,10.21-1.52,20.54-2.21,30.87-2.86a6.36,6.36,0,0,1-.33-4.89c-13.13.83-26.27,1.68-39.18,4.18-6.27-2.18-12.63-4.92-10.88-12.71,2.27-10.14,12.82-11.34,21.33-13.11.82-.17,1.63-.37,2.43-.59,17-.26,34-3.56,50.3-8.43a29.7,29.7,0,0,0-.39-5.09,197.45,197.45,0,0,1-39.1,8,16.31,16.31,0,0,0,4.63-8.25c1.33-5.61-1.4-11.64-3.33-16.76a58.59,58.59,0,0,1-2.55-8.19c10.23-.76,20.4-2,30.56-3.41a33.44,33.44,0,0,1-.62-3.29c-.1-.54-.17-1.07-.25-1.61-10.1,1.39-20.21,2.63-30.37,3.36a26.47,26.47,0,0,1,.44-6.32A48.83,48.83,0,0,1,720.18,102c8.38-2.22,16.85-4,25.27-6,.15-1.78.35-3.55.63-5.3-7.52,1.82-15.09,3.46-22.6,5.33,6.88-10.8,17.59-19.18,29.27-25,1-1.88,2-3.75,3.25-5.62-1.26.16-2.59.28-4,.39C740.16,71.41,729.12,79.5,721.47,90c.3-5.69.19-11.39,0-17.08q-2.55,1.16-4.93,2.49A150.25,150.25,0,0,1,716,96a2,2,0,0,0,.66,1.85l0,.05a2.3,2.3,0,0,0-1.06,2.21c-.31.67-.6,1.36-.88,2a55.42,55.42,0,0,0-3.24,11.15,167.6,167.6,0,0,1-11.38-23.23,51,51,0,0,0-3.24,5.22,172.89,172.89,0,0,0,13,25,2.72,2.72,0,0,0,.75.79,2.55,2.55,0,0,0,.85,3.8A77,77,0,0,0,715,135.64c2.43,6.45,4.94,13.46-.64,19.06-2,2-4.79,3.05-7.62,3.78l-.73,0a2.33,2.33,0,0,0-1.51.51l-2.07.43-2.83.58c.43-14.58-5.8-28.15-10.13-41.91a59.7,59.7,0,0,1-2.57,8c4,11.42,8.28,22.88,7.64,35-5,1.35-9.84,3.44-12.9,7.92a20.65,20.65,0,0,0-3.39,8.58c-8.58-11.31-18.79-21.13-29.07-30.89a48.17,48.17,0,0,0-4,3c10.94,10.34,21.84,20.72,30.67,32.95a2.56,2.56,0,0,0,2.79,1,11.86,11.86,0,0,0,4.13,6,24.25,24.25,0,0,0,6.31,3.41,2.55,2.55,0,0,0,3.09,2.25l2-.42c3.4,1.2,6.71,2.55,9.37,5.07,4.06,3.86,3,11.68,2,16.53A36.85,36.85,0,0,1,699,231.72c-26.84-13.68-54.39-25.85-82.19-37.41q-.83,2.37-1.47,4.77c27.19,11.31,54.13,23.23,80.4,36.58-6.66,7.35-14.75,13-20.83,20.72l5.72.62c5.31-6.14,12-11.15,17.75-16.92a47.37,47.37,0,0,0,8.13-11.58c18.1-1.24,35.92-4.59,53.76-7.77l5.4-.94A37.75,37.75,0,0,0,764,215.33Z"/><polygon class="cls-4" points="481.5 257.08 468.67 203 489.19 230.04 492.27 191.67 505.62 226.5 524.09 169.5 540 213.29 561.56 151 570.79 217 601.59 182.5 596.97 241.5 627.76 209.55 620.83 257.08 481.5 257.08"/><path class="cls-3" d="M682,204.5c-2-18-16-16.5-25.5-29-9-11-5.5-36.5,2-47-34,9-71,43-70.5,80,.5,19,26.5,60-11,60l71.5,2c1-15.5,10.5-22,21.5-31.5C680.5,230,683.5,218.5,682,204.5Zm-18.5,19.67c-5.52,0-10-6.53-10-14.59S658,195,663.5,195s10,6.53,10,14.58S669,224.17,663.5,224.17Z"/><path class="cls-4" d="M641.06,236.32a34.94,34.94,0,0,0-.78-11.68c4.53-3.4,9.19-6.63,13.91-9.77a20.43,20.43,0,0,1-.69-5.29c0-.07,0-.15,0-.23-5,3.28-9.93,6.64-14.72,10.2a86.1,86.1,0,0,0-4.06-9.37c-2-4-4-7.74-5.57-11.64,9.91-7.06,20.53-13,31.16-18.88a31.18,31.18,0,0,1-3.51-3.77c-10,5.57-20,11.18-29.4,17.79a35.36,35.36,0,0,1-1.58-9.9,32.13,32.13,0,0,1,.54-6.2c8.77-3.28,17.56-6.57,26.13-10.32a37.62,37.62,0,0,1-1-5c-7.74,3.42-15.66,6.47-23.59,9.45a61.87,61.87,0,0,1,5-10.78c6.34-11,15.22-20.14,23.77-29.49a25.79,25.79,0,0,1,1.77-2.91,86.56,86.56,0,0,0-8.24,2.66c-9.56,10.57-19.72,22-25.27,34.49a121,121,0,0,0-4.61-17q-2.07,1.69-4.06,3.5c2.48,7.6,4.53,15.3,4.68,23.37a2.54,2.54,0,0,0,.16.82,2.76,2.76,0,0,0,.22.91,39.33,39.33,0,0,0-.16,12.64c-6.65-7-13.47-13.85-19.55-21.33-1,1.42-2,2.85-2.87,4.32,7.36,8.85,15.65,16.9,23.43,25.41a3.13,3.13,0,0,0,.45.39,2.66,2.66,0,0,0,1.91,2.44c2.51,5.55,5.59,10.83,8,16.37-13.72-8-28.84-13.2-43.93-18.31-.26,1.68-.45,3.37-.55,5.07,16.15,5.47,32.29,11.06,46.61,20.43l0,0a3,3,0,0,0,.79,1.39c.14.59.28,1.18.39,1.78a26.68,26.68,0,0,1-1.44,14.39c-14.09-4.28-28-9-42-13.7.57,1.93,1.14,3.88,1.68,5.83,12.41,4.2,24.83,8.36,37.36,12.19a2.63,2.63,0,0,0,.38,1.32,65.69,65.69,0,0,1-6.09,9.11c-3.38,4.31-7.16,8.41-10.83,12.57l6.41.18c3.18-3.54,6.36-7.08,9.18-10.79a65.29,65.29,0,0,0,6.42-10,172.36,172.36,0,0,0,23.84-2.08c2.22-2.06,4.64-4.08,7.16-6.23a193.14,193.14,0,0,1-28.8,3.29A33.52,33.52,0,0,0,641.06,236.32Z"/><path class="cls-4" d="M678.09,193.55q-4,2.59-8,5.14a15.17,15.17,0,0,1,2.31,4.4q4-2.57,8-5.18A19,19,0,0,0,678.09,193.55Z"/><polygon class="cls-6" points="605 185 585 105.5 570 98.41 570 263.5 581.5 263.5 605 185"/><polygon class="cls-7" points="563.5 95.33 540 176.21 563.5 263.5 570 263.5 570 98.41 563.5 95.33"/><polyline class="cls-4" points="535.67 152.5 552.33 85.33 585 105.5 535.67 154"/><polygon class="cls-4" points="218.33 261.33 215 221.33 170.1 126.45 210.37 261.33 218.33 261.33"/><polygon class="cls-5" points="186.33 239 204.67 261.33 210.37 261.33 170.1 126.45 168 122 186.33 239"/><polygon class="cls-4" points="252.33 191.67 222.33 124.88 222.33 261.71 237.33 263.5 252.33 191.67"/><polygon class="cls-7" points="206.67 90 203.09 259.41 222.33 261.71 222.33 124.88 206.67 90"/><polygon class="cls-2" points="705 239.5 702 176.75 689.5 236.5 679.12 185.11 674.5 239.5 663.5 194 656.44 236.39 647 219.5 653 261 718 261.33 732 201.5 705 239.5"/><polyline class="cls-8" points="-5 257.08 -5 551.41 852 551.41 852 257.08"/><polyline class="cls-9" points="-5 257.08 -5 268.13 852 268.13 852 257.08"/><path class="cls-10" d="M856,379c-40,66-88.66,92-191,63-26.26-7.44-51-19-78-23-35-6-78,3-110,19-23.23,12.58-38.08,28.73-66,37-30,9-56,17-87,4-36-15-57-53-100-52-34,1-70,28.67-119-4-19.78-13.18-32-26-51-38-17-12-38-13-59-11V580H854l-.54-197"/><path class="cls-4" d="M856,396c-40,66-88.66,92-191,63-26.26-7.44-51-19-78-23-35-6-78,3-110,19-23.23,12.58-38.08,28.73-66,37-30,9-56,17-87,4-36-15-57-53-100-52-34,1-70,28.67-119-4-19.78-13.18-32-26-51-38-17-12-38-13-59-11V597H854l-.54-197"/><path class="cls-4" d="M49.33,345.33l3,53.34L70,367.33l-7,37,10.33-17.66-6,33.66L38,398.67C38,396,28.33,356,28.33,356l16.34,36.67,4.66-47.34"/><path class="cls-4" d="M423.67,495c0-1-15-46.67-15-46.67l19.66,30-14.66-59.66L433.33,461l-7.83-58,21.17,55.67V403l26.66,66V418.33l11,41,2.34,28"/><polygon class="cls-6" points="446.67 403 459.67 403 459.67 435.18 446.67 403"/><rect class="cls-7" x="503.67" y="434.33" width="4" height="33"/><path class="cls-11" d="M145,510.88c1-6.67-3.67-22.34-13.34-15.67-6,4-1.66,16,1,21-5-2.33-23.33-9.33-23.66.67-.34,9.66,16,9.66,22.66,10-4.33,2.66-19.33,13.33-12.66,19.33,7.33,7,16-4.33,19.33-9.33.33,4,0,17.33,7.67,14,6.66-2.67,2.66-15,2.33-19.67,5,.67,24.33,7.33,20.67-5.67-2-7-12.34-7.66-17.67-5,6-2.33,20.67-15,7.67-19.33-9-3-13,8.33-13.67,15"/><path class="cls-11" d="M215.65,484.55c-2.21-4-13.14-13.17-17.44-6.72-4,5.91,6.28,13.52,9.53,16.49-5.12-.1-17.33,4-13.68,10.77,3.35,6.29,13.41,3.57,17.5-.06-2.5,3-6.71,12.71-1.32,15.34,5.93,3,12.37-8.59,13.24-12.51,3.51,5.51,10.72,15.73,16.3,4.41,2.62-5.38-2.54-15.57-8.1-17.41,7.45-2.06,16.82-10.07,8-16.94-6.28-5.08-11.71,2.77-15.43,7.5,1.12-5.1.72-21-7.83-14.88-4.87,3.45-3.51,10.33-.69,15.27"/><path class="cls-11" d="M535.65,507.8c.34-6-8.33-25.33-15.33-17-5,5.67-1.67,19.67.33,26-4.33-4.33-16-6-19.66.67-4.34,8.33,7.33,11.66,13.33,10.33-5.33,2.33-12.67,14-5.33,18.67s17.33-1,21.66-7c.67,4.66,2.67,17.33,10.67,12.33,5.33-3,3.33-14.33.33-18.33,7,2.66,24,3.66,20.34-8.67-2-6.67-13.67-12.33-18-4.67,6-2.66,18.33-15,8-20.33-6.67-3.67-14.67,5-16.67,10.67"/><path class="cls-11" d="M509.35,416.33c1-4.33-1.67-15-7.34-11.33-3.66,2.33-4,10.67-2.66,14.67C495,416,484,413,483,421c-.66,6.67,6.67,7.33,11.67,6.33-1,4.34-5.67,12.34-.67,15.67,5,3,11-2.67,11.34-7.33,1,5.66,8.66,12,13,6C522,436,517,431.67,513,429c5.67,0,14.34-.67,10.34-8.67-3.67-7.33-10.67-2.66-16-.33"/><path class="cls-11" d="M265.24,542.87c-3.24-3-13.81-6.09-13.48.65.17,4.34,7.21,8.82,11.34,9.68-5.35,1.9-13.47,9.9-7.06,14.79,5.43,3.92,9.69-2.08,11.34-6.91,3.24,3,7.82,11.1,13.21,8.45,5.11-2.81,3.22-10.85-.64-13.48,5.4,2,14.73-1.46,11.72-8.22-3.06-6-9.32-3.88-13.63-1.76,2.84-4.9,6.62-12.73-2.31-13.29-8.18-.51-7.66,7.88-8.32,13.67"/><path class="cls-11" d="M736.53,534.88c.33-7.33-13.33-31-21.67-21.33-6.33,7.66,7,22.66,12.34,26.66-3-.33-25.67-2-23,5.34,1.66,5,19,3,22.66,2.66-1,4.34-7,16.67-.66,19,5.66,2.34,10-7,11.66-11,1.67,5,13.67,13.34,17.67,7.67,3.67-4.67-3-16.67-8-18.67,7.67,1.67,16.33-5.33,10.67-13.33-5-7.33-18.67-1.33-20.67,6.33"/><rect class="cls-7" x="379.67" y="449" width="4.35" height="59.67"/><rect class="cls-7" x="336.67" y="472.33" width="4.35" height="42"/><path class="cls-7" d="M339.58,502.62c-2.28-6.39-10.51-8.64-17.5-12,.16,3.94-3.47,12.34,4.21,14.78,6.51,2.05,8.65-1.27,13.81-1.87Z"/><path class="cls-7" d="M505.64,459.92c1.81-4.36,4.23-7.78,9-9.79,5.64-2.17,11.1-.09,16.64-1-3.66,4.08-7.74,17.09-14.56,15.85-4.05-.81-6.69-4-11.14-4.55"/><path class="cls-7" d="M382.22,500.16c-2.27-12.75-13.84-11.53-23.28-16.74.39,7.67,3.17,20.52,11.81,22.78,2.05.41,9,.95,10.6-1.19,1.28-1.56-.12-3.13-.67-5.16"/><path class="cls-7" d="M382.74,494c1.07-12.17,10.17-10.37,17.25-14.87.11,7.37-1.36,19.62-8,21.33-1.58.28-7,.42-8.34-1.73-1.08-1.58-.07-3,.25-4.94"/><path class="cls-11" d="M339.34,461.82c-.42-2.95-2.32-8-5.27-9.7-2.32-1.26-7.37-.84-9.06,1.69-2.74,4.21,2.53,8.85,3.16,12.85-4.42-2.11-15.17-3.79-15.17,3.8.21,7.37,11.59,6.32,16.22,4.42-.84,3.37-5.05,15,2.11,14.33,5.06-.42,6.95-8.22,8-12.22,1.68,3.79,8.85,8.21,10.53,2.31.84-4-1.47-7.79-5.69-8,3.8-.84,8.64-1.69,11.17-4.85,2.53-3.37,2.11-7.37-1.68-9.27-6.33-3.16-11.17.42-13.91,5.69"/><path class="cls-11" d="M371.12,436.72c-6-3.78-21.87-1.71-19.61,8.11,1.17,6.18,12.6,9.91,17.91,9.12-3.85,5.3-14.16,21.67-.64,23.71,7.75,1.23,11-9,11.31-15.27,3.52,5.66,12.58,14.55,17.89,7.32,4.89-7,0-14.67-5.57-19.69,5.22,1.31,16.19-3,13.16-9.9-2.47-5.61-13.17-4.77-17.49-2.87,1.73-7.2,1.46-16.61-8.38-16.14-9.41.27-10.12,10.37-5.66,16.39"/><ellipse class="cls-12" cx="141" cy="523.5" rx="5.88" ry="5.5"/><ellipse class="cls-12" cx="273" cy="551.41" rx="5.88" ry="5.5"/><ellipse class="cls-12" cx="505.57" cy="425.75" rx="5.88" ry="5.5"/><ellipse class="cls-12" cx="218.33" cy="495" rx="8.63" ry="8.07"/><ellipse class="cls-12" cx="379.67" cy="446.25" rx="8.63" ry="8.07"/><ellipse class="cls-12" cx="531.27" cy="522.5" rx="8.63" ry="8.07"/><path class="cls-12" d="M341,470.33c0,1.78-2.15,3.22-4.8,3.22s-4.8-1.44-4.8-3.22,2.15-3.21,4.8-3.21S341,468.56,341,470.33Z"/><path class="cls-12" d="M739.8,545c0,1.78-2.15,3.22-4.8,3.22s-4.8-1.44-4.8-3.22,2.15-3.22,4.8-3.22S739.8,543.22,739.8,545Z"/><g id="Frog"><path class="cls-4" d="M743.89,516.62c0,10.32,9.93,27.69,22.19,27.69s22.18-10.37,22.18-20.69-9.93-19.69-22.18-19.69S743.89,506.3,743.89,516.62Z"/><path class="cls-4" d="M778.35,539.77c5.33.08,11,2.33,11.16,8.25,0,1.66-.08,4-2.08,2.33a13.6,13.6,0,0,1-3.25-4.5c.75,1.67,2.92,8.5-1,8.08-2.92-.33-4.67-7.41-8.5-6-1.67.67-.42,1.5.33,2.25a3.38,3.38,0,0,1,1.17,3.25c-.33,1.59-2.17,2-3.75,1.67-1.75-.33-2.33-2.25-3.17-3.75a9.19,9.19,0,0,0-8.41-4.83c-2,0-4,.5-5.34-1.34-1.91-2.58-.66-6.25,1.92-7.83,4.25-2.67,10.75.17,14.92,1.92,1.66.75,4,1.58,5.75.5"/><path class="cls-6" d="M786.71,530.88c-2.62,6.41-10.75,14.47-18.44,12.53-1.25-.32-.75-.8.54-.93C778.81,541.43,786.71,530.88,786.71,530.88Z"/><path class="cls-5" d="M785.46,532.46c0-12.39-11.93-23.64-26.65-23.64a66.19,66.19,0,0,0-12.67,1c3.52-4.66,11.21-5.92,20.13-5.92,12.25,0,22.19,9.37,22.19,19.69a18.83,18.83,0,0,1-3,10C785.45,533.2,785.46,532.83,785.46,532.46Z"/><path class="cls-4" d="M758.63,471.33a15.67,15.67,0,0,1,15.67-15.68c.48,0,1,0,1.41.07-7.38-13.89-25.24-23.7-46.13-23.7s-38.74,9.81-46.12,23.7c.46,0,.93-.07,1.4-.07a15.68,15.68,0,0,1,.3,31.35c8.2,12.37,25,20.85,44.42,20.85S765.81,499.37,774,487A15.67,15.67,0,0,1,758.63,471.33Z"/><path class="cls-13" d="M700.54,471.33a15.68,15.68,0,0,0-15.68-15.68c-.47,0-.94,0-1.4.07a30.16,30.16,0,0,0-3.63,14.21A30.72,30.72,0,0,0,685.16,487,15.67,15.67,0,0,0,700.54,471.33Z"/><path class="cls-13" d="M775.71,455.72c-.46,0-.93-.07-1.41-.07A15.68,15.68,0,0,0,774,487a30.71,30.71,0,0,0,5.32-17.07A30.15,30.15,0,0,0,775.71,455.72Z"/><path class="cls-4" d="M758.63,471.33a15.67,15.67,0,0,1,15.67-15.68c.48,0,1,0,1.41.07-7.38-13.89-25.24-23.7-46.13-23.7s-38.74,9.81-46.12,23.7c.46,0,.93-.07,1.4-.07a15.68,15.68,0,0,1,.3,31.35c8.2,12.37,25,20.85,44.42,20.85S765.81,499.37,774,487A15.67,15.67,0,0,1,758.63,471.33Z"/><path class="cls-13" d="M700.54,471.33a15.68,15.68,0,0,0-15.68-15.68c-.47,0-.94,0-1.4.07a30.16,30.16,0,0,0-3.63,14.21A30.72,30.72,0,0,0,685.16,487,15.67,15.67,0,0,0,700.54,471.33Z"/><path class="cls-13" d="M775.71,455.72c-.46,0-.93-.07-1.41-.07A15.68,15.68,0,0,0,774,487a30.71,30.71,0,0,0,5.32-17.07A30.15,30.15,0,0,0,775.71,455.72Z"/><path class="cls-5" d="M729.58,442.52c19.28,0,36.49,6.68,47.89,17.17a33.32,33.32,0,0,0-1.76-4c-7.38-13.89-25.24-23.7-46.13-23.7s-38.74,9.81-46.12,23.7a33.39,33.39,0,0,0-1.77,4C693.1,449.2,710.31,442.52,729.58,442.52Z"/><path class="cls-4" d="M758.92,521.35c0,15.46-12.24,28-27.34,28s-27.33-12.54-27.33-28,12.24-28,27.33-28S758.92,505.89,758.92,521.35Z"/><path class="cls-14" d="M742.81,549.81a31.23,31.23,0,0,0,1.08-8.19c0-12.18-6.75-20.06-15.06-20.06s-15.07,7.88-15.07,20.06a31.23,31.23,0,0,0,1.08,8.19Z"/><circle class="cls-15" cx="706.08" cy="438.93" r="20.5"/><circle class="cls-15" cx="753.08" cy="438.93" r="20.5"/><path class="cls-4" d="M751.73,491s17.33,31.33,16.33,38.5-15.67,8.33-13,15.33,12,20.83,2.33,20.83c-7.5,0-1-12.5-6.66-11.37s1.07,12.87-3.34,12.87c-6.66,0-.37-11.62-4.37-12.75s-2.13,6.43-5.13,7.13c-2.5.58-7.5-6.38,0-14s5.5-22,2.63-27S751.73,491,751.73,491Z"/><path class="cls-4" d="M716.51,516.62c0,10.32-9.93,27.69-22.18,27.69s-22.19-10.37-22.19-20.69,9.93-19.69,22.19-19.69S716.51,506.3,716.51,516.62Z"/><path class="cls-5" d="M675.14,532.46c0-12.39,11.93-23.64,26.64-23.64a66.3,66.3,0,0,1,12.68,1c-3.53-4.66-11.21-5.92-20.13-5.92-12.26,0-22.19,9.37-22.19,19.69a18.91,18.91,0,0,0,3,10Q675.14,533,675.14,532.46Z"/><path class="cls-4" d="M682.06,539.77c-5.34.08-11,2.33-11.17,8.25,0,1.66.08,4,2.08,2.33a13.46,13.46,0,0,0,3.25-4.5c-.75,1.67-2.91,8.5,1,8.08,2.92-.33,4.67-7.41,8.5-6,1.67.67.42,1.5-.33,2.25a3.38,3.38,0,0,0-1.17,3.25c.34,1.59,2.17,2,3.75,1.67,1.75-.33,2.34-2.25,3.17-3.75a9.2,9.2,0,0,1,8.42-4.83c2,0,4,.5,5.33-1.34,1.92-2.58.67-6.25-1.92-7.83-4.25-2.67-10.75.17-14.91,1.92-1.67.75-4,1.58-5.75.5"/><path class="cls-4" d="M719.14,547.56c-7.5-7.63-5.5-22-2.63-27S705.31,491,705.31,491s-6.88,12.43-11.72,23.42c3.46-3.31,7.58-5.3,8.83-2,.91,2.37-2.75,6.16-.65,7.22s3-4.12,5.45-4.78c5.1-1.38,4.38,9.64,1.58,15.14-2.4,4.73-6.79,7.62-11.09,7.79,3.07,1.89,5.48,3.88,4.26,7.08-2.66,7-12,20.83-2.33,20.83,7.5,0,1-12.5,6.67-11.37s-1.07,12.87,3.33,12.87c6.67,0,.37-11.62,4.37-12.75s2.13,6.43,5.13,7.13C721.64,562.14,726.64,555.18,719.14,547.56Z"/><path class="cls-6" d="M708.8,530c2.8-5.5,3.52-16.52-1.58-15.14-2.45.66-3.34,5.85-5.45,4.78s1.56-4.85.65-7.22c-1.25-3.26-5.37-1.27-8.83,2-2.85,6.46-5,12.42-4.62,15.08.54,3.88,5.11,6,8.74,8.25C702,537.6,706.4,534.71,708.8,530Z"/><path class="cls-6" d="M722.51,470.27c3.27,4.49,13.87,3.39,15.91-1.86.7-1.8-2.2-2.58-2.89-.79-1,2.61-8.8,3.38-10.43,1.14-1.13-1.55-3.73-.06-2.59,1.51Z"/><path class="cls-6" d="M696.44,535.83c-4.79-2.53-6.05-7.7-5.13-12.69a22.88,22.88,0,0,1,1.14-4.14c2.45-6.37,5.73-12.43,8.65-18.6a19.72,19.72,0,0,1-1.75-1c-4.41,9.1-11.38,19.61-11.57,29.81-.07,3.07,3,5.66,5.37,7.09,1.85,1.13,3.84,2,5.72,3.12,3,1.71,2.67,4.55,1.63,7.1a4.12,4.12,0,0,1,.75,0c.58-1.38,2.52-2.72,2.27-4C702.82,538.8,699.53,537.47,696.44,535.83Z"/><path class="cls-6" d="M673.74,530.88c2.62,6.41,10.74,14.47,18.43,12.53,1.25-.32.75-.8-.53-.93C681.64,541.43,673.74,530.88,673.74,530.88Z"/><path class="cls-6" d="M761.31,535.83c4.78-2.53,6.05-7.7,5.13-12.69A24.64,24.64,0,0,0,765.3,519c-2.46-6.37-5.73-12.43-8.65-18.6.6-.3,1.18-.63,1.74-1,4.41,9.1,11.38,19.61,11.58,29.81.06,3.07-3,5.66-5.38,7.09-1.85,1.13-3.83,2-5.72,3.12-3,1.71-2.68,4.41-1.63,7-1.47,0-1.21.16-1.46.17-.58-1.38-1.81-2.72-1.56-4C754.93,538.8,758.22,537.47,761.31,535.83Z"/><path class="cls-16" d="M698.65,499.59a39.45,39.45,0,0,0,61.87,0,62.06,62.06,0,0,1-61.87,0Z"/><path d="M716.63,429.16a9.4,9.4,0,0,1-17.58,0c-5.16,4.63-6.61,12.87-2.13,17.13,3.15,3,7.47-8,11.22-8,3.59,0,7.52,10.84,10.55,8C723.21,442.1,721.86,433.8,716.63,429.16Z"/><path d="M759.88,429a9.41,9.41,0,0,1-17.58.38c-5,4.67-6.27,12.79-1.82,16.95,3,2.84,7-8,10.55-8,3.74,0,8.07,11,11.22,8C766.8,442,765.23,433.57,759.88,429Z"/><path class="cls-17" d="M707.83,435.24a9.41,9.41,0,0,0,8.8-6.08,13.12,13.12,0,0,0-8.83-3.34,13,13,0,0,0-8.75,3.37A9.4,9.4,0,0,0,707.83,435.24Z"/><path class="cls-17" d="M751,435.24a9.42,9.42,0,0,0,8.86-6.25,12.92,12.92,0,0,0-8.52-3.17,13.1,13.1,0,0,0-9.06,3.55A9.41,9.41,0,0,0,751,435.24Z"/></g><g id="newt"><path class="cls-18" d="M141.36,436.82l-11.63,5.5,4.25,9,9.5,6.37a63.74,63.74,0,0,1-7.21,5.23c-1.25.72-2.53,1.4-3.79,2.1s-3.83,4.75-1.33,5.25,5.67-3.83,7.67-4.83c3.5-1.92.16,2.75-.59,3.75-.66.83-1.91,2.5-1.5,3.67.5,1.5,2.09.58,2.92-.09,1.67-1.41,4.75-8.25,7.33-7.58,2.34.58-.41,5.42-.75,6.67-.75,3.5,2.92,1.16,4.09-.17s4.66-6.37,4.66-6.37,5.63-8.68,6.38-14.34S141.36,436.82,141.36,436.82Z"/><ellipse class="cls-19" cx="116.28" cy="438.13" rx="41.46" ry="17.81"/><path class="cls-20" d="M173,410.6a14.89,14.89,0,0,0-3.87-1c1.31.28,2.61.62,3.9,1Z"/><path class="cls-19" d="M273.45,379.35s-5.71-7.35-29-9.19c-16.79-1.33-25.74,13.59-29.62,22.66.63,7.49,3.52,15.43,8.87,19.18,7.1,5,18.88,5.66,25.6-.32,4.34-3.87,2.56-16.44-4.63-13-2.77,1.32-7,8-10.44,4.77a5.17,5.17,0,0,1-1.4-3.2c-.37-3,.66-6.75,1.37-8.79,2.1-6.05,9.6-9.67,15.65-8.74C258.24,384,260.47,394,260.39,401c-.13,10.73-4.24,21.8-14.13,27-8.37,4.35-18.95,3.46-27.87,1.66-13-2.63-24.2-9.51-36-15.3a65.05,65.05,0,0,0-6.76-2.85,17.11,17.11,0,0,1-2.55-.84c-1.29-.39-2.59-.73-3.9-1-5.28-.68-11.54,1-19,3.27a4.46,4.46,0,0,1-3.07,3.33,4.22,4.22,0,0,1-3.78-1.17c-5.33,1.68-11.17,3.43-17.59,4.79a3.26,3.26,0,0,1-1.73,2.6c-1.27.53-2.86-.13-4.24-1.57A24.34,24.34,0,0,1,99,413.11a3.51,3.51,0,0,1-3.42-1,3.37,3.37,0,0,1-.08-3.32,36.18,36.18,0,0,1-4.33-8.56l4.57-3.28a38.05,38.05,0,0,1-.4-6.55c.66-29.5-33.67,9.83-33.67,9.83a76.62,76.62,0,0,0,5,24.39c1.58-3.57,5.09-9.92,10.54-11.22,7.62-1.83,28.22,11.19,25.44,41.06a63.38,63.38,0,0,0,15.39.1c24.46-2.62,38-11.34,45.56-20.33,1.85.33,1.1-9.32,1.71-9,10,5.59,29.33,22,40.76,24.5,12,2.62,24.54.91,36-2.91,10.2-3.39,22.26-9.11,29.37-17.41C282.05,417,280.89,393.3,273.45,379.35Z"/><path d="M95.56,412.07a3.51,3.51,0,0,0,3.42,1,33.1,33.1,0,0,1-3.5-4.36A3.37,3.37,0,0,0,95.56,412.07Z"/><path d="M119.77,420.85c1.38,1.44,3,2.1,4.24,1.57a3.26,3.26,0,0,0,1.73-2.6c-1.14.24-2.29.47-3.47.69C121.41,420.66,120.58,420.77,119.77,420.85Z"/><path d="M147.11,416.2a4.46,4.46,0,0,0,3.07-3.33L143.33,415A4.22,4.22,0,0,0,147.11,416.2Z"/><path class="cls-21" d="M99,413.11a24.34,24.34,0,0,0,20.79,7.74,11.06,11.06,0,0,1-2.19-3.42,11.77,11.77,0,0,1-.7-2.24,27.84,27.84,0,0,1-6.76-1.3,24,24,0,0,1-6.08-3.08l-.4.31A10.48,10.48,0,0,1,99,413.11Z"/><path class="cls-21" d="M95.48,408.75a9.92,9.92,0,0,1,3-3.74c-.11-.18-.23-.35-.34-.52a21.61,21.61,0,0,1-2.41-7.58l-4.57,3.28A36.18,36.18,0,0,0,95.48,408.75Z"/><path class="cls-21" d="M173,410.61a17.11,17.11,0,0,0,2.55.84Q174.32,411,173,410.61Z"/><path class="cls-21" d="M150.18,412.87c7.42-2.31,13.68-3.95,19-3.27a43.27,43.27,0,0,0-11.58-1c-2.38.14-4.77.4-7.15.74A8.32,8.32,0,0,1,150.18,412.87Z"/><path class="cls-21" d="M125.74,419.82c6.42-1.36,12.26-3.11,17.59-4.79a8.12,8.12,0,0,1-2.34-3.85c-5.24,1.26-10.54,2.84-15.86,3.61A9.8,9.8,0,0,1,125.74,419.82Z"/><path class="cls-17" d="M95.48,408.75a33.1,33.1,0,0,0,3.5,4.36,10.48,10.48,0,0,0,4.66-2l.4-.31c-.53-.37-1-.75-1.52-1.15a19.82,19.82,0,0,1-4-4.65A9.92,9.92,0,0,0,95.48,408.75Z"/><path class="cls-17" d="M119.77,420.85c.81-.08,1.64-.19,2.5-.34,1.18-.22,2.33-.45,3.47-.69a9.8,9.8,0,0,0-.61-5,38.67,38.67,0,0,1-8.25.4,11.77,11.77,0,0,0,.7,2.24A11.06,11.06,0,0,0,119.77,420.85Z"/><path class="cls-17" d="M150.18,412.87a8.32,8.32,0,0,0,.23-3.48c-1.88.26-3.75.58-5.59.94-1.27.25-2.55.55-3.83.85a8.12,8.12,0,0,0,2.34,3.85Z"/><path class="cls-21" d="M244.48,370.16c23.26,1.84,29,9.18,29,9.19-.21-.4-.42-.78-.64-1.16-7.33-12.61-24.95-17.16-38.7-13.62a30.68,30.68,0,0,0-4.1,1.33,24.33,24.33,0,0,0-14.49,16.81,31,31,0,0,0-.66,10.11C218.74,383.75,227.69,368.83,244.48,370.16Z"/><path class="cls-19" d="M86,402.89c15-12.3,1.34-26.87,1.34-26.87,2.83-9.3-7.84-14-9-14.53A12.19,12.19,0,0,0,67,373.65H57v16.71H73.63c.22,9.34,5.66,16.83,12.35,16.83,4.33,0,8.13-3.13,10.34-7.86A15.26,15.26,0,0,1,86,402.89Z"/><path class="cls-19" d="M83,390.36c0,5.43-9.55,9.83-21.33,9.83s-21.33-4.4-21.33-9.83,9.55-9.84,21.33-9.84S83,384.93,83,390.36Z"/><path class="cls-19" d="M68.73,373.65c0,6.74-2.26,14.21-7.52,14.21s-11.52-7.47-11.52-14.21,4.26-12.21,9.52-12.21S68.73,366.91,68.73,373.65Z"/><ellipse class="cls-19" cx="63.23" cy="396.69" rx="9.75" ry="8.38"/><path class="cls-18" d="M67.64,427.08c-.28.12,2.88,7.88,3,8.33,1.49,4.52,3.14,10.19.9,14.73a15.79,15.79,0,0,1-4.17,4.92,50.34,50.34,0,0,1-6,4.43,13.59,13.59,0,0,0-4.5,3.89c-.59.9-1.63,2.88-1.08,4a2,2,0,0,0,1.87.74c2.83-.33,5.7-6.76,7.91-5.07,1.32,1-4.32,5.66-3,7.65,2.08,2.83,8.23-7.22,9.91-6.5,1.24.53-1.5,4.75-.25,6,1.67,1.58,7-3.83,7-3.83s9.79-8,9.79-20.67S77.63,422.8,67.64,427.08Z"/><path class="cls-19" d="M122.23,445.44c-.75-14.75-19.91.78-19.91.78s1.66,12.14-5.67,19.14a50.86,50.86,0,0,0-5.42,5.33c-.58.75-2.33,3.08-1.5,4.08.59.75,2.17.17,2.84-.25,2.5-1.58,3.5-5.08,6.33-6.5,3.83-1.91-.67,4.67-1.17,5.67-1.08,2.08,0,4.58,2.17,2.33,1.67-1.75,3.83-7.41,6.67-6.91,3,.58,0,4.5.16,6.25.25,1.91,2.42,1.41,3.75.83a5.39,5.39,0,0,0,2.25-1.62C114.89,473.17,122.87,458.05,122.23,445.44Z"/><path class="cls-19" d="M172.73,427.44l1.2-6.75s-3-12.12-17.57,10.75,9.62,27,9.62,27l.23.25a9.17,9.17,0,0,1-5.14,7.08c-1.5.84-3.25,1.5-3.92,3.25-.25.67-.58,2.42.17,2.92,1.83,1.33,4.5-2.75,5.5-3.67,1.16-1.16,4.41-3.16,4.33-.08-.08,2.17-2.33,3.83-2.42,6-.08,3.33,3.67.08,4.42-1.17,1.08-1.75,2.5-5.41,4.67-5.91,2.58-.67-3,7.71.11,7.71,4.49,0,10-10.63,10-10.63Z"/><path class="cls-22" d="M72.3,373.72c0-4.51,3.26-8.17,7.29-8.17a6.84,6.84,0,0,1,2.3.42A9,9,0,1,0,76,381.88a9.53,9.53,0,0,0,1.94-.21A8,8,0,0,1,72.3,373.72Z"/><path d="M85.06,372.84A9,9,0,0,0,81.89,366a6.84,6.84,0,0,0-2.3-.42c-4,0-7.29,3.66-7.29,8.17A8,8,0,0,0,78,381.67,9,9,0,0,0,85.06,372.84Z"/><path class="cls-22" d="M57.28,380.84c-2.45-.22-4.14-3.64-3.77-7.63s2.64-7.06,5.09-6.84a3.28,3.28,0,0,1,2.09,1.14c-.88-2.12-2.38-3.55-4.2-3.71-3.23-.28-6.23,3.55-6.71,8.55s1.75,9.27,5,9.55a4.45,4.45,0,0,0,3.19-1.09A2.44,2.44,0,0,1,57.28,380.84Z"/><path d="M61.46,373.36a12.43,12.43,0,0,0-.77-5.85,3.28,3.28,0,0,0-2.09-1.14c-2.45-.22-4.73,2.84-5.09,6.84s1.32,7.41,3.77,7.63a2.44,2.44,0,0,0,.66,0A10.93,10.93,0,0,0,61.46,373.36Z"/><circle class="cls-17" cx="80.57" cy="369.22" r="2.84"/><path class="cls-17" d="M61,370.16c0,1.49-.89,2.69-2,2.69s-2-1.2-2-2.69.89-2.69,2-2.69S61,368.67,61,370.16Z"/><path class="cls-23" d="M77.15,413.36c-5.45,1.3-9,7.65-10.54,11.22,6,19.12,12.87,28.05,35.22,30.91C105.23,422.81,84.77,411.53,77.15,413.36Z"/><path class="cls-23" d="M137.55,442.69c-6.19-1.94-15.28,1.38-15.28,1.38s-.23,9.15-1,11.75c0,0,8.53-.46,11.34-.88,2.55-.38,10.72-2.92,10.72-2.92C143.39,451.77,143.73,444.63,137.55,442.69Z"/><path d="M113.77,423.43c.86,3.63-.55,7.08-3.14,7.69s-5.38-1.85-6.24-5.49.55-7.08,3.14-7.69S112.92,419.79,113.77,423.43Z"/><path d="M137.69,430.84c-3.28,3.46-8,4.36-10.44,2s-1.85-7.07,1.44-10.54,7.95-4.37,10.44-2S141,427.37,137.69,430.84Z"/><circle cx="156.23" cy="416.59" r="3.42"/><path class="cls-18" d="M62,402.25a41.57,41.57,0,0,1-5.3.64,23.58,23.58,0,0,1-1.81-1.9l-.8-1.44c.14.25,3.67-.21,4.14-.26a24.67,24.67,0,0,0,8.55-2,30.91,30.91,0,0,0,7.45-5.45c1-.95,2-1.93,2.92-3,.28-.32.93-.81,1.08-1.23C75.32,396.19,67.8,400.54,62,402.25Z"/><path class="cls-18" d="M168.89,459.11c-3.51,0-9.74-.58-14-4.26a13,13,0,0,1-4.4-9.87c-.27-8.28,3.47-13.24,6.66-15.94a20,20,0,0,1,7.08-3.91s-12.21,5.53-11.74,19.78a11.13,11.13,0,0,0,3.71,8.43c5.42,4.69,15.34,5.65,15.34,5.65S170.41,459.11,168.89,459.11Z"/><path class="cls-21" d="M91.38,374.12c0-.16,0-.31,0-.47a12.21,12.21,0,0,0-12.21-12.21,8.49,8.49,0,0,0-.88.05c1.17.48,11.84,5.23,9,14.53,0,0,13.66,14.57-1.34,26.87a15.26,15.26,0,0,0,10.34-3.56,22.53,22.53,0,0,0,2-9.56C98.36,382.88,95.51,376.94,91.38,374.12Z"/><path class="cls-21" d="M47.94,383s16.62-2,26.5,1.48C74.44,384.46,69.06,375.26,47.94,383Z"/><path class="cls-24" d="M164.23,425.13c-13,8.31-11.74,19.78-11.74,19.78h4.18C154.85,437.51,164.23,425.13,164.23,425.13Z"/></g><g id="Hedgehog"><path class="cls-25" d="M319.79,569.77l-11.08-21.88-11.09,8.94s4.42,11.94,8.67,12.94a17.68,17.68,0,0,0,2.95.39,5.39,5.39,0,0,0-2-3.52c-1-.8.42-2.2,1.42-1.41a7.14,7.14,0,0,1,2.64,5c.9,0,1.77,0,2.56-.1a7.51,7.51,0,0,0-1.95-5c-.88-.94.53-2.36,1.41-1.41A9.54,9.54,0,0,1,315.8,570l1.49-.18Z"/><path class="cls-26" d="M308.63,565.23c-1-.79-2.43.61-1.42,1.41a5.39,5.39,0,0,1,2,3.52c.67,0,1.36.05,2,.05A7.14,7.14,0,0,0,308.63,565.23Z"/><path class="cls-26" d="M311.88,565.14a7.51,7.51,0,0,1,1.95,5c.75-.05,1.42-.11,2-.16a9.54,9.54,0,0,0-2.51-6.22C312.41,562.78,311,564.2,311.88,565.14Z"/><path class="cls-26" d="M420.81,491.39c-3.42,7-9.59,11-13.77,9S402.26,491,405.68,484s9.6-11,13.78-9S424.24,484.38,420.81,491.39Z"/><path class="cls-26" d="M383.79,554.52,393,569.77h8.5l-4.75-22.88s-12.12-1.62-13,7.25"/><path class="cls-26" d="M317,554.52l9.25,15.25h8.5L330,546.89s-12.12-1.62-13,7.25"/><path class="cls-25" d="M412.57,491.9c-17.65-24.88-135.9-.63-112.65,72.37H317l-1.84-7.44q7.72-.08,15.44-.53c10.11-.58,20.09-1.46,30.14-2.72,6.41-.81,12.42-3.35,18.42-5.6,5.31-2,11.25-4.26,16.88-2.16a18.37,18.37,0,0,1,6.55,4A65.32,65.32,0,0,0,419.42,532S430.22,516.79,412.57,491.9Z"/><polygon points="300.92 564.27 266.42 564.27 244.92 538.27 254.92 538.27 238.42 519.77 261.42 528.27 241.92 501.27 260.92 510.27 247.92 483.27 269.67 493.27 252.42 468.27 283.42 480.77 267.42 446.77 295.42 466.77 290.42 432.77 315.42 452.27 315.42 418.27 332.92 448.27 345.92 414.27 358.42 449.27 373.42 414.27 380.42 454.27 399.92 432.77 395.42 465.77 410.92 443.77 413.42 494.02 407.92 499.77 403.92 489.27 397.67 497.02 392.17 489.27 389.17 498.52 379.17 490.52 374.67 500.02 367.42 492.27 364.67 505.77 352.67 504.02 352.42 524.52 341.67 522.52 339.67 538.77 329.17 532.27 329.17 544.77 319.67 537.77 318.92 551.52 307.67 545.02 309.92 555.52 298 557.02 300.92 564.27"/><rect class="cls-15" x="393.27" y="519.74" width="13.29" height="2" transform="translate(-38.03 31.55) rotate(-4.31)"/><path class="cls-15" d="M372.94,519.48c0-.17-3.83-15-13.09-14.59l-.1-4c11-.51,15,17.4,15.15,18.17Z"/><path class="cls-25" d="M361.82,495c3.85,6.79,2.92,14.58-2.06,17.4s-12.15-.39-16-7.17-2.93-14.58,2.06-17.41S358,488.24,361.82,495Z"/><path class="cls-27" d="M350.83,492.31a11.09,11.09,0,0,1,8.34-.89c-4-4.21-9.35-5.83-13.34-3.57-5,2.83-5.91,10.62-2.06,17.41a18.77,18.77,0,0,0,1.79,2.61C344.18,501.26,346.05,495,350.83,492.31Z"/><path class="cls-13" d="M355.34,510.48c1.36-2.29,2.93-4.44,4.46-6.62a21.1,21.1,0,0,0-1.25-2.59c-2.61-4.61-6.37-7.42-8.4-6.28s-1.55,5.82,1.06,10.43A18,18,0,0,0,355.34,510.48Z"/><path class="cls-28" d="M377.39,507.47l-1.7-2.48c.75-.51,7.46-5,12.25-4.71l-.19,3C384.57,503.08,379.19,506.23,377.39,507.47Z"/><path class="cls-28" d="M417.86,503.77c-4.46-3.63-10.92-2.23-11-2.22l-.66-2.92c.32-.08,7.93-1.75,13.55,2.82Z"/><path class="cls-29" d="M407.79,536c0,5.38-2.85,9.75-6.37,9.75a4.34,4.34,0,0,1-1.29-.2c-2.9-.91-5.09-4.84-5.09-9.55,0-5.39,2.86-9.75,6.38-9.75S407.79,530.63,407.79,536Z"/><path class="cls-29" d="M408.79,540.77s-1.14,5.29-7.88,5l.51-7.09Z"/><path class="cls-29" d="M412.67,535.37c-2.78,0-4.65-2.15-5.88-4.49a14.42,14.42,0,0,1-2.61,2.8c-.21.21-.43.4-.65.59l.51,5.13c4.31,2.27,9.23,2.69,11.78-2.08a7.5,7.5,0,0,0,.91-3c-.66,1.06-2.66,1-3.75,1Z"/><polygon class="cls-17" points="257.63 553.64 251.75 542.77 263.42 538.64 244.92 538.27 257.63 553.64"/><polygon class="cls-17" points="253.26 525.25 238.42 519.77 248.94 531.56 247.92 525.67 253.26 525.25"/><polygon class="cls-17" points="241.92 501.27 254.9 519.24 253.26 510.48 260.92 510.27 241.92 501.27"/><polygon class="cls-17" points="247.92 483.27 266.92 522.24 260.92 500.26 269.08 504.39 262.42 494.74 277.58 497.1 247.92 483.27"/><polygon class="cls-17" points="252.42 468.27 258.93 477.71 258.93 473.6 270.36 475.5 252.42 468.27"/><polygon class="cls-17" points="290.42 432.77 298.42 490.1 300.75 465.93 311.58 474.47 305.58 452.6 328.25 461.43 290.42 432.77"/><polyline class="cls-17" points="373.42 414.27 354.35 459.6 365.75 449.6 374.9 471.1 375.69 452.93 382.38 461.43"/><polygon class="cls-17" points="410.92 443.77 401.42 457.25 407.79 454.93 412.21 469.75 410.92 443.77"/><polygon class="cls-17" points="315.42 418.27 315.42 432.77 320.83 427.55 315.42 418.27"/><polyline class="cls-17" points="345.92 414.27 345.68 414.9 337.85 435.37 342.92 430.6 345.92 445.43 349.92 435.1 356.64 444.29"/><polyline class="cls-17" points="267.42 446.77 283.23 458.06 273.45 459.59"/><polyline class="cls-17" points="399.92 432.77 386.11 447.99 398.01 446.77"/><polygon class="cls-17" points="285.67 521.43 270.36 532.71 288.67 538.64 282.17 532.71 285.67 521.43"/><polygon class="cls-17" points="286.92 510.48 277.58 472.99 292.67 490.1 286.17 487.69 286.92 510.48"/><path class="cls-17" d="M310.42,516.59c-.25-.07-6-18.32-6-18.32l21.5,7.75-13.75,1.41Z"/><polyline class="cls-17" points="329.67 483.27 333.67 456.76 352.79 472.99 340.17 468.27 339.92 479.27 335.92 471.1"/><polyline class="cls-17" points="386.11 477.71 407.79 469.75 406.21 482.99 403.46 476.37"/><polygon class="cls-17" points="275.32 542.77 266.42 564.27 292.67 564.27 280.67 560.52 286.42 551.52 273.92 558.27 275.32 542.77"/><path class="cls-26" d="M415,535.6s.54,5.54-10.46,4.5h-2.12V541s8.87.41,10.48-.45c2.1-1.12,4.06-5,4.06-5Z"/><path class="cls-17" d="M420.57,532.71a3.84,3.84,0,1,1-3.84-3.83A3.83,3.83,0,0,1,420.57,532.71Z"/><path class="cls-30" d="M416.74,532.11a10.59,10.59,0,0,1,3.82.72s0-.08,0-.12a3.84,3.84,0,0,0-7.67,0s0,.08,0,.12A10.6,10.6,0,0,1,416.74,532.11Z"/><path class="cls-15" d="M383.42,508.77c-5.94,0-10.75,5.36-10.75,12a13.42,13.42,0,0,0,.15,1.91l13.44-13.45A10,10,0,0,0,383.42,508.77Z"/><path class="cls-15" d="M389,510.55l-15.32,15.32a12,12,0,0,0,1.85,3l16-16A11,11,0,0,0,389,510.55Z"/><path class="cls-15" d="M380.47,532.24a9.64,9.64,0,0,0,2.95.47c5.93,0,10.75-5.36,10.75-12a13.56,13.56,0,0,0-.17-2Z"/><path class="cls-22" d="M391.55,512.92l-16,16a10.5,10.5,0,0,0,4.9,3.34L394,518.71A12.47,12.47,0,0,0,391.55,512.92Z"/><path class="cls-22" d="M386.26,509.2l-13.44,13.45a12.8,12.8,0,0,0,.9,3.22L389,510.55A10.37,10.37,0,0,0,386.26,509.2Z"/><path class="cls-15" d="M418.61,506.67,405,520.25a13.63,13.63,0,0,0,1.4,3.48l14.24-14.25A11,11,0,0,0,418.61,506.67Z"/><path class="cls-15" d="M413.42,504.39c-4.9,0-8.88,5.36-8.88,12,0,.08,0,.15,0,.23L416.17,505A6.84,6.84,0,0,0,413.42,504.39Z"/><path class="cls-15" d="M410.67,527.74a6.8,6.8,0,0,0,2.75.6c4.9,0,8.87-5.36,8.87-12a2,2,0,0,0,0-.25Z"/><path class="cls-22" d="M420.67,509.48l-14.24,14.25a9.43,9.43,0,0,0,4.24,4l11.61-11.62A14.73,14.73,0,0,0,420.67,509.48Z"/><path class="cls-22" d="M416.17,505,404.55,516.6a15.92,15.92,0,0,0,.48,3.65l13.58-13.58A8.39,8.39,0,0,0,416.17,505Z"/><path class="cls-29" d="M396.05,545.82c-5.63-2.1-11.57.17-16.88,2.16-6,2.25-12,4.79-18.42,5.6-10.05,1.26-20,2.14-30.14,2.72q-7.71.45-15.44.53l1.84,7.44h42.41s23.06.14,43.18-14.43A18.37,18.37,0,0,0,396.05,545.82Z"/><path class="cls-30" d="M387.21,521.43c0,2.67-1.53,4.84-3.42,4.84s-3.41-2.17-3.41-4.84,1.53-4.84,3.41-4.84S387.21,518.75,387.21,521.43Z"/><path class="cls-30" d="M413.15,519.27c0,2.67-1.35,4.84-3,4.84s-3-2.17-3-4.84,1.35-4.84,3-4.84S413.15,516.59,413.15,519.27Z"/><path class="cls-31" d="M383.79,516.59c-1.38,0-2.56,1.17-3.1,2.84.54,1.67,1.72,2.84,3.1,2.84s2.57-1.17,3.11-2.84C386.36,517.76,385.18,516.59,383.79,516.59Z"/><path class="cls-31" d="M410.13,520.11c1.23,0,2.27-1.17,2.75-2.84-.48-1.67-1.52-2.84-2.75-2.84s-2.27,1.17-2.74,2.84C407.86,518.94,408.91,520.11,410.13,520.11Z"/><path class="cls-25" d="M373.92,569.77c-2-6-5-22-5-22l-6.25-5c-4.19,1.81-8.58,5.28-7.33,10.26,1,4.05,3.31,7.67,5.75,11,1.47,2,3.34,5.25,5.84,6.42a6.86,6.86,0,0,0-1-4.51c-.73-1.07,1-2.07,1.72-1a8.88,8.88,0,0,1,1.28,6c.16,0,.64-.07,1.24-.16a11.35,11.35,0,0,0-.51-5.2c-.43-1.22,1.5-1.74,1.93-.53a12.87,12.87,0,0,1,.62,5.37C373.16,570.16,374,569.94,373.92,569.77Z"/><path class="cls-26" d="M367.61,564.93c-.72-1.06-2.45-.06-1.72,1a6.86,6.86,0,0,1,1,4.51,4.47,4.47,0,0,0,1.91.45h.05A8.88,8.88,0,0,0,367.61,564.93Z"/><path class="cls-26" d="M371.55,565c-.43-1.21-2.36-.69-1.93.53a11.35,11.35,0,0,1,.51,5.2c.62-.1,1.37-.23,2-.36A12.87,12.87,0,0,0,371.55,565Z"/></g><g id="dragon-fly"><path class="cls-32" d="M263.2,7.81c-84,6.17-127.6,129.32-127.6,129.32S233.14,65.9,257.11,41.41,274.17,7,263.2,7.81Z"/><path class="cls-33" d="M264.49,15.19c3.48-.25,6.57.51,8.54,2.37,1.33-7.19-3.59-10.21-9.83-9.75C197.78,12.62,156.88,88.34,142,121.62,162.1,82.08,203.28,19.69,264.49,15.19Z"/><path class="cls-34" d="M292.25,92.39c-6.15,2.27-43.12,24.1-80.16,37.08-9.59,14.59-46,11.76-46,11.76a15.69,15.69,0,0,1,.42-2.19,55.58,55.58,0,0,1-10-.82l-10.67,9.45s109.92,4.72,152.67-48.53C299.94,97.35,301.75,88.89,292.25,92.39Z"/><path class="cls-35" d="M212.09,129.47c-16,5.61-32,9.56-45.56,9.57a15.69,15.69,0,0,0-.42,2.19S202.5,144.06,212.09,129.47Z"/><path class="cls-34" d="M144.33,93c-4.05-4.4-10-6-15.91-6.21a26.24,26.24,0,0,0-18,6.51c-21.45,18.38-6.35,43.12-5.61,43.11,4.3,0,14.33-1.62,20.16-5.24l-8.64,9.55a23.58,23.58,0,0,0,6.64.95,24.49,24.49,0,0,0,19.54-9.93C147.91,125.12,156,105.64,144.33,93Z"/><path class="cls-36" d="M108,101.21a32.6,32.6,0,0,1,22.33-8.08c6.59.18,13.12,1.83,18,6.06a21.74,21.74,0,0,0-4-6.22c-4.05-4.4-10-6-15.91-6.21a26.24,26.24,0,0,0-18,6.51c-6.41,5.49-9.54,11.55-10.78,17.35A43.4,43.4,0,0,1,108,101.21Z"/><path d="M126.53,104.39h-.13l.12-2c.14,0,3.66.06,4.49-6.62l2,.24C132,104,127.4,104.39,126.53,104.39Z"/><path d="M130.31,108.61a4.16,4.16,0,0,1-.55,0l.2-2-.1,1,.09-1a6.63,6.63,0,0,0,4.51-1.41,6.72,6.72,0,0,0,1.95-5l2,.06a8.56,8.56,0,0,1-2.65,6.47A8.36,8.36,0,0,1,130.31,108.61Z"/><path d="M134.09,113.73a9.59,9.59,0,0,1-3.58-.72l.82-1.82a6.82,6.82,0,0,0,4.77.17,5.76,5.76,0,0,0,3-3.47l1.86.72a7.59,7.59,0,0,1-4.14,4.6A7.11,7.11,0,0,1,134.09,113.73Z"/><path class="cls-22" d="M131.5,114.31c0,8.1-5.56,14.66-12.42,14.66s-12.41-6.56-12.41-14.66,5.56-14.67,12.41-14.67S131.5,106.21,131.5,114.31Z"/><path d="M123.5,105.93c-4.42,0-8,4.55-8,10.17s3.58,10.17,8,10.17a6.83,6.83,0,0,0,4.49-1.76,15.92,15.92,0,0,0,3.47-9.34C131.09,110,127.67,105.93,123.5,105.93Z"/><path class="cls-17" d="M128.5,111.65c0,3.16-2.24,5.72-5,5.72s-5-2.56-5-5.72,2.24-5.72,5-5.72S128.5,108.49,128.5,111.65Z"/><path class="cls-19" d="M121.88,141.6l.42,0,.49-.77C122.5,141.11,122.19,141.35,121.88,141.6Z"/><path class="cls-34" d="M135.8,137.91c.47-.29.93-.61,1.38-.93C136.73,137.3,136.27,137.62,135.8,137.91Z"/><path class="cls-34" d="M148.75,122.64c-.91,0-1.8,0-2.67.13a37.68,37.68,0,0,1-.94,5,32.58,32.58,0,0,1-2,3.14,32.82,32.82,0,0,1-2.95,7.57,25.69,25.69,0,0,1-4.48,6.14,26.87,26.87,0,0,0,13.05,3.15c10.91,0,19.75-5.64,19.75-12.59S159.66,122.64,148.75,122.64Z"/><path class="cls-34" d="M140.26,134.32c.31-.3.6-.62.89-.94C140.86,133.7,140.57,134,140.26,134.32Z"/><path class="cls-34" d="M130.72,140.35h0a24.06,24.06,0,0,0,5-2.37A24.06,24.06,0,0,1,130.72,140.35Z"/><path class="cls-34" d="M141.47,133c.37-.43.73-.87,1.07-1.32C142.2,132.16,141.84,132.6,141.47,133Z"/><path class="cls-34" d="M140,134.63a26,26,0,0,1-2.66,2.26A26,26,0,0,0,140,134.63Z"/><path class="cls-19" d="M137.18,137l.12-.09Z"/><path class="cls-19" d="M143.13,131c-.2.27-.4.52-.59.76.19-.24.39-.49.59-.76Z"/><path class="cls-19" d="M135.68,138l.12-.07Z"/><path class="cls-19" d="M140.26,134.32l-.3.31Z"/><path class="cls-19" d="M141.15,133.38l.32-.35Z"/><path class="cls-35" d="M143.13,131c-.2.27-.4.52-.59.76-.34.45-.7.89-1.07,1.32l-.32.35c-.29.32-.58.64-.89.94l-.3.31a26,26,0,0,1-2.66,2.26l-.12.09c-.45.32-.91.64-1.38.93l-.12.07a24.06,24.06,0,0,1-5,2.37,15.16,15.16,0,0,0,5,4.31,25.69,25.69,0,0,0,4.48-6.14A32.82,32.82,0,0,0,143.13,131Z"/><path class="cls-36" d="M166.29,141a9.15,9.15,0,0,0,2.21-5.78c0-6.95-8.84-12.58-19.75-12.58h-.25C158.62,126.35,165.61,133.13,166.29,141Z"/><path class="cls-37" d="M318.67,26c-30-32-174,102.67-174,102.67l1.17,1.33S349,58.31,318.67,26Z"/><path class="cls-38" d="M146.12,129.87c48.27-41.94,149.4-123.59,175.59-95.7a10.3,10.3,0,0,0-3-8.2c-30-32-174,102.67-174,102.67l1.17,1.33Z"/></g><g id="Duck"><path class="cls-30" d="M456.56,338.75s-10.43,9.54-11.17,9.93l5.35,8.07,14.76-5Z"/><polygon points="454.69 352.03 476.68 337.93 449.97 348.57 469.01 330.28 438.92 350.74 420.47 306.8 412.5 310.93 432.3 366.34 477.7 348.14 454.69 352.03"/><polygon class="cls-39" points="423.99 315.17 415.97 320.65 419.28 329.9 428.13 325.02 423.99 315.17"/><polygon class="cls-30" points="401.4 367.97 397.97 378.31 405.54 388.64 414.47 372.64 401.4 367.97"/><polygon points="406.15 373.31 423.99 375.47 389.82 360.97 397.99 314.92 388.99 313.31 378.82 365.31 411.65 393.97 402.32 380.31 419.39 385.47 406.15 373.31"/><path class="cls-12" d="M418,253.84v-.17a30,30,0,0,0-20-52.36c-16.57,0-28.53,13.49-30,30a39.18,39.18,0,0,0,13.18,33L349.6,275.4l-1,6.41,3.64,5,27.62,14.15,38-14.34s9.34-21.66,8.52-25.13S418,253.84,418,253.84Z"/><path d="M444.64,231.31H428.86l-1-10.57c-4.33.43-7.17,7.83-6.58,16.79a8,8,0,0,0-7.6,7.92c0,3.12,4,8.53,4,8.53C445.26,256.15,444.64,231.31,444.64,231.31Z"/><path class="cls-22" d="M416,230.43c0-7-5.13-12.62-11.46-12.62s-11.46,5.65-11.46,12.62a13.36,13.36,0,0,0,.19,2.21c.87-5,4.69-8.82,9.27-8.82,5.22,0,9.46,4.93,9.46,11a12.19,12.19,0,0,1-2,6.69A12.87,12.87,0,0,0,416,230.43Z"/><path d="M402.51,223.82c-4.58,0-8.4,3.79-9.27,8.82.95,5.92,5.63,10.42,11.27,10.42a10.65,10.65,0,0,0,5.5-1.55,12.19,12.19,0,0,0,2-6.69C412,228.75,407.73,223.82,402.51,223.82Z"/><circle class="cls-17" cx="402.15" cy="229.25" r="4.19"/><path class="cls-12" d="M418.3,254,350.18,296.5s6.09,35,60.12,26.14C456.3,315.12,449,259.41,418.3,254Z"/><path class="cls-12" d="M381.81,274.24l-37-11.94s-3.2,38.81,20.12,52.35S420.75,270,381.81,274.24Z"/><path class="cls-30" d="M417.57,240.12a11.28,11.28,0,0,1,.11-1.54,7.89,7.89,0,0,0-4,6.87c0,3.12,4,8.53,4,8.53a31.63,31.63,0,0,0,12.93-1.35C423.36,252.53,417.57,247,417.57,240.12Z"/><path class="cls-40" d="M413.64,206.38c.36,0,.71,0,1.07,0a29.86,29.86,0,0,0-16.74-5.1c-16.57,0-28.53,13.49-30,30a39.78,39.78,0,0,0-.11,5.64C376,218.86,393.46,206.38,413.64,206.38Z"/><path class="cls-39" d="M398,277.22c-9.14-22.25-16.82-12.94-16.82-12.94l-14.45,5.09-21.92-7.07s-.07,8.85,0,11.8a54.06,54.06,0,0,0,2,12.58s.24.37.7,1c2.71,3.7,12.79,16.33,22.84,14.13l-8.75,6.51s20.87,6.16,28.69-8.34v11S407.1,299.47,398,277.22Z"/><polyline class="cls-12" points="387.4 321.44 385.42 331.57 394.48 334.7 396.62 322.65"/></g></svg>