<svg id="Layer_1" data-name="Layer 1" xmlns="http://www.w3.org/2000/svg" viewBox="0 0 37.9 43.76"><title>Artboard 7</title><path d="M19,0,0,10.94V32.82L19,43.76l19-10.94V10.94Zm9.54,17A14,14,0,0,1,7,29.42a9.91,9.91,0,0,0,7.29-2A4.92,4.92,0,0,1,9.64,24a4.86,4.86,0,0,0,2.22-.08A4.93,4.93,0,0,1,7.92,19a4.79,4.79,0,0,0,2.22.61A4.93,4.93,0,0,1,8.62,13a14,14,0,0,0,10.15,5.14,4.93,4.93,0,0,1,8.39-4.49,10,10,0,0,0,3.13-1.19,4.94,4.94,0,0,1-2.17,2.72A9.87,9.87,0,0,0,31,14.44,9.94,9.94,0,0,1,28.49,17Z"/></svg>