<svg width="329" height="87" viewBox="0 0 329 87" version="1.1" xmlns="http://www.w3.org/2000/svg" xmlns:xlink="http://www.w3.org/1999/xlink">
<title>d20</title>
<desc>Created using Figma</desc>
<g id="Canvas" transform="translate(166 446)">
<g id="d20" filter="url(#filter0_d)">
<g id="Group">
<g id="Vector">
<use xlink:href="#path0_fill" transform="translate(-21.3154 -446)" fill="#FFFFFF"/>
</g>
<g id="24HR">
<use xlink:href="#path1_fill" transform="translate(-163 -437.222)" fill="#FFFFFF"/>
</g>
<g id="RPG">
<use xlink:href="#path2_fill" transform="translate(72.7231 -437.222)" fill="#FFFFFF"/>
</g>
</g>
</g>
</g>
<defs>
<filter id="filter0_d" filterUnits="userSpaceOnUse" x="-166" y="-446" width="329" height="87" color-interpolation-filters="sRGB">
<feFlood flood-opacity="0" result="BackgroundImageFix"/>
<feColorMatrix in="SourceAlpha" type="matrix" values="0 0 0 0 0 0 0 0 0 0 0 0 0 0 0 0 0 0 255 0"/>
<feOffset dx="0" dy="4"/>
<feGaussianBlur stdDeviation="2"/>
<feColorMatrix type="matrix" values="0 0 0 0 0 0 0 0 0 0 0 0 0 0 0 0 0 0 0.25 0"/>
<feBlend mode="normal" in2="BackgroundImageFix" result="effect1_dropShadow"/>
<feBlend mode="normal" in="SourceGraphic" in2="effect1_dropShadow" result="shape"/>
</filter>
<path id="path0_fill" d="M 34.4808 1.98529e-05L -3.22717e-07 19.7497L -3.22717e-07 59.2503L 1.14189 59.9048L 34.4808 79L 68.9615 59.2503L 68.9615 19.7497L 34.4808 1.98529e-05ZM 34.4808 6.66661L 48.253 26.8771L 20.7085 26.8771L 34.4808 6.66661ZM 27.0265 9.50722L 15.7022 26.1251L 6.85821 21.0598L 27.0265 9.50722ZM 41.9362 9.50722L 62.1033 21.0587L 53.2605 26.124L 41.9362 9.50722ZM 4.57214 24.9866L 13.4172 30.052L 4.57214 48.0919L 4.57214 24.9866ZM 64.3894 24.9866L 64.3894 48.093L 55.5443 30.052L 64.3883 24.9866L 64.3894 24.9866ZM 20.3636 31.412L 48.5979 31.412L 34.4808 55.6711L 20.3636 31.412ZM 16.5762 33.9768L 30.3496 57.6423L 5.82119 55.9147L 16.5762 33.9768ZM 52.3853 33.9768L 63.1414 55.9147L 38.6131 57.6423L 52.3853 33.9768ZM 12.0241 60.8992L 32.1947 62.321L 32.1947 72.4529L 12.0241 60.8992ZM 56.9385 60.8992L 36.7668 72.4529L 36.7668 62.321L 56.9385 60.8992Z"/>
<path id="path1_fill" d="M 2.13135 47L 2.13135 44.0337L 12.6123 32.3882C 14.4873 30.2935 15.7544 28.6309 16.4136 27.4004C 17.0874 26.1699 17.4243 24.9102 17.4243 23.6211C 17.4243 22.0244 16.9556 20.6841 16.0181 19.6001C 15.0806 18.5015 13.8428 17.9521 12.3047 17.9521C 10.0928 17.9521 8.4668 18.5161 7.42676 19.644C 6.38672 20.772 5.8667 22.3687 5.8667 24.4341L 1.71387 24.4341L 1.66992 24.3022C 1.59668 21.5483 2.50488 19.2339 4.39453 17.3589C 6.29883 15.4839 8.93555 14.5464 12.3047 14.5464C 15.1904 14.5464 17.4829 15.3887 19.1821 17.0732C 20.896 18.7432 21.7529 20.8745 21.7529 23.4673C 21.7529 25.2104 21.2329 26.9536 20.1929 28.6968C 19.1675 30.4399 17.7173 32.3223 15.8423 34.3438L 7.42676 43.5063L 7.4707 43.6162L 18.8306 43.6162L 19.1821 39.9468L 22.8516 39.9468L 22.8516 47L 2.13135 47ZM 44.9341 36.2334L 49.3506 36.2334L 49.3506 39.6172L 44.9341 39.6172L 44.9341 43.6162L 48.5156 44.2314L 48.5156 47L 37.0459 47L 37.0459 44.2314L 40.6274 43.6162L 40.6274 39.6172L 26.2573 39.6172L 26.2573 37.1782L 40.3638 15.0078L 44.9341 15.0078L 44.9341 36.2334ZM 30.8716 36.2334L 40.6274 36.2334L 40.6274 21.1821L 40.4956 21.1382L 40.0562 22.3027L 30.8716 36.2334ZM 52.5366 17.7983L 52.5366 15.0078L 64.0283 15.0078L 64.0283 17.7983L 60.4468 18.4136L 60.4468 29.4658L 75.9595 29.4658L 75.9595 18.4136L 72.3779 17.7983L 72.3779 15.0078L 75.9595 15.0078L 80.2881 15.0078L 83.8696 15.0078L 83.8696 17.7983L 80.2881 18.4136L 80.2881 43.6162L 83.8696 44.2314L 83.8696 47L 72.3779 47L 72.3779 44.2314L 75.9595 43.6162L 75.9595 32.8716L 60.4468 32.8716L 60.4468 43.6162L 64.0283 44.2314L 64.0283 47L 52.5366 47L 52.5366 44.2314L 56.1182 43.6162L 56.1182 18.4136L 52.5366 17.7983ZM 101.162 15.0298C 104.648 15.0298 107.322 15.8062 109.182 17.3589C 111.042 18.897 111.973 21.0869 111.973 23.9287C 111.973 25.4814 111.541 26.8584 110.676 28.0596C 109.812 29.2607 108.574 30.2056 106.963 30.894C 108.706 31.4653 109.958 32.3955 110.72 33.6846C 111.497 34.9736 111.885 36.563 111.885 38.4526L 111.885 41.0234C 111.885 42.0049 112.009 42.73 112.258 43.1987C 112.507 43.6675 112.917 43.9458 113.489 44.0337L 114.543 44.1655L 114.543 47L 112.214 47C 110.53 47 109.329 46.4141 108.611 45.2422C 107.908 44.0703 107.556 42.6494 107.556 40.9795L 107.556 38.4966C 107.556 36.7534 107.051 35.3545 106.04 34.2998C 105.029 33.2451 103.674 32.7178 101.975 32.7178L 95.0317 32.7178L 95.0317 43.6162L 98.6133 44.2314L 98.6133 47L 87.1216 47L 87.1216 44.2314L 90.7031 43.6162L 90.7031 18.4136L 87.1216 17.7983L 87.1216 15.0298L 90.7031 15.0298L 101.162 15.0298ZM 95.0317 29.312L 100.723 29.312C 103.14 29.312 104.897 28.8506 105.996 27.9277C 107.095 27.0049 107.644 25.6572 107.644 23.8848C 107.644 22.2002 107.117 20.8672 106.062 19.8857C 105.007 18.9043 103.374 18.4136 101.162 18.4136L 95.0317 18.4136L 95.0317 29.312Z"/>
<path id="path2_fill" d="M 15.6006 15.0298C 19.0869 15.0298 21.7603 15.8062 23.6206 17.3589C 25.481 18.897 26.4111 21.0869 26.4111 23.9287C 26.4111 25.4814 25.979 26.8584 25.1147 28.0596C 24.2505 29.2607 23.0127 30.2056 21.4014 30.894C 23.1445 31.4653 24.397 32.3955 25.1587 33.6846C 25.9351 34.9736 26.3232 36.563 26.3232 38.4526L 26.3232 41.0234C 26.3232 42.0049 26.4478 42.73 26.6968 43.1987C 26.9458 43.6675 27.356 43.9458 27.9272 44.0337L 28.9819 44.1655L 28.9819 47L 26.6528 47C 24.9683 47 23.7671 46.4141 23.0493 45.2422C 22.3462 44.0703 21.9946 42.6494 21.9946 40.9795L 21.9946 38.4966C 21.9946 36.7534 21.4893 35.3545 20.4785 34.2998C 19.4678 33.2451 18.1128 32.7178 16.4136 32.7178L 9.47021 32.7178L 9.47021 43.6162L 13.0518 44.2314L 13.0518 47L 1.56006 47L 1.56006 44.2314L 5.1416 43.6162L 5.1416 18.4136L 1.56006 17.7983L 1.56006 15.0298L 5.1416 15.0298L 15.6006 15.0298ZM 9.47021 29.312L 15.1611 29.312C 17.5781 29.312 19.3359 28.8506 20.4346 27.9277C 21.5332 27.0049 22.0825 25.6572 22.0825 23.8848C 22.0825 22.2002 21.5552 20.8672 20.5005 19.8857C 19.4458 18.9043 17.8125 18.4136 15.6006 18.4136L 9.47021 18.4136L 9.47021 29.312ZM 46.7139 15.0078C 50.127 15.0078 52.7783 15.8867 54.668 17.6445C 56.5723 19.4023 57.5244 21.7168 57.5244 24.5879C 57.5244 27.4883 56.5723 29.8101 54.668 31.5532C 52.7783 33.2964 50.127 34.168 46.7139 34.168L 39.9243 34.168L 39.9243 43.6162L 43.5059 44.2314L 43.5059 47L 32.0142 47L 32.0142 44.2314L 35.5957 43.6162L 35.5957 18.4136L 32.0142 17.7983L 32.0142 15.0078L 35.5957 15.0078L 46.7139 15.0078ZM 39.9243 30.7842L 46.7139 30.7842C 48.8818 30.7842 50.5005 30.2056 51.5698 29.0483C 52.6538 27.8765 53.1958 26.4043 53.1958 24.6318C 53.1958 22.8594 52.6538 21.3799 51.5698 20.1934C 50.5005 19.0068 48.8818 18.4136 46.7139 18.4136L 39.9243 18.4136L 39.9243 30.7842ZM 86.0889 43.3745C 85.1514 44.356 83.7671 45.2861 81.936 46.165C 80.105 47.0293 77.7246 47.4614 74.7949 47.4614C 70.5176 47.4614 67.0239 45.96 64.314 42.957C 61.6187 39.9541 60.271 36.0576 60.271 31.2676L 60.271 30.7402C 60.271 25.9209 61.604 22.0171 64.27 19.0288C 66.9507 16.0405 70.5103 14.5464 74.9487 14.5464C 77.3218 14.5464 79.4019 14.9199 81.189 15.667C 82.9907 16.3994 84.5068 17.3735 85.7373 18.5894L 85.7373 24.3901L 82.7051 24.3901L 81.6504 19.9736C 80.9326 19.3877 80.061 18.9043 79.0356 18.5234C 78.0249 18.1426 76.8091 17.9521 75.3882 17.9521C 71.9312 17.9521 69.2651 19.1387 67.3901 21.5117C 65.5298 23.8701 64.5996 26.9316 64.5996 30.6963L 64.5996 31.2676C 64.5996 35.0908 65.5005 38.1816 67.3022 40.54C 69.1187 42.8984 71.6162 44.0776 74.7949 44.0776C 76.5381 44.0776 77.9663 43.8945 79.0796 43.5283C 80.1929 43.1621 81.0864 42.7593 81.7603 42.3198L 81.7603 35.3105L 76.5088 35.0908L 76.5088 31.9048L 86.0889 31.9048L 86.0889 43.3745Z"/>
</defs>
</svg>
