
<svg id="Layer_1" data-name="Layer 1" xmlns="http://www.w3.org/2000/svg" viewBox="0 0 322.33 89.42" width="329" height="87">
  <g id="Canvas">
    <g id="d20">
      <g id="Group">
        <g id="Vector">
          <path id="path0_fill" data-name="path0 fill" fill="#fff" d="M177.4 0l-20 11.43v22.85l.66.38 19.34 11.05 19.95-11.43V11.43zm0 3.86l8 11.69h-15.97zm-4.31 1.64l-6.55 9.62-5.12-2.93zm8.63 0l11.67 6.68-5.12 2.94zm-21.62 9l5.11 2.93-5.11 10.4zm34.61 0v13.33l-5.12-10.44 5.12-2.93zm-25.48 3.72h16.34l-8.17 14zM167 19.66l8 13.69-14.19-1zm20.72 0L194 32.35l-14.2 1zm-23.31 15.58l11.67.82v5.86zm26 0l-11.67 6.68v-5.86z"/>
        </g>
        <path id="path1_fill" data-name="path1 fill" fill="#fff" d="M.61 44v-3.91L14.24 25a37.84 37.84 0 0 0 4.94-6.49 10.07 10.07 0 0 0 1.31-4.91 7.71 7.71 0 0 0-1.83-5.23 6 6 0 0 0-4.82-2.14q-4.32 0-6.35 2.2a8.85 8.85 0 0 0-2 6.23H.06v-.18a11.73 11.73 0 0 1 3.54-9C6 3 9.45 1.75 13.84 1.75A12.14 12.14 0 0 1 22.78 5a11.11 11.11 0 0 1 3.34 8.32 13.13 13.13 0 0 1-2 6.8 43.72 43.72 0 0 1-5.65 7.34l-11 11.92.06.14h14.79l.46-4.77h4.77V44zm55.66-14H62v4.4h-5.73v5.2l4.66.8V44H46v-3.6l4.66-.8v-5.2H32v-3.22L50.33 2.35h5.94zM38 30h12.67V10.38l-.17-.06-.57 1.51zM66.16 6V2.35H81.1V6l-4.66.8v14.35h20.18V6.78L92 6V2.35h14.9V6l-4.65.8v32.75l4.65.8V44H92v-3.6l4.66-.8v-14H76.44v14l4.66.8V44H66.16v-3.6l4.65-.8V6.78zm63.23-3.6q6.81 0 10.43 3t3.63 8.6a9 9 0 0 1-1.68 5.37 11.31 11.31 0 0 1-4.83 3.63 8.41 8.41 0 0 1 4.88 3.63 11.8 11.8 0 0 1 1.52 6.2v3.34a6.35 6.35 0 0 0 .48 2.83 2 2 0 0 0 1.6 1.08l1.37.18V44h-3a5.07 5.07 0 0 1-4.69-2.28 10.67 10.67 0 0 1-1.37-5.55v-3.28a7.57 7.57 0 0 0-2-5.45 7 7 0 0 0-5.29-2.06h-9v14.17l4.66.8V44h-15v-3.6l4.66-.8V6.78L111.13 6V2.38h18.26zm-8 18.57h7.4c3.15 0 5.43-.6 6.86-1.8a6.47 6.47 0 0 0 2.14-5.26 6.76 6.76 0 0 0-2-5.2c-1.38-1.28-3.5-1.91-6.38-1.91h-8z"/>
        <g id="RPG">
          <path id="path2_fill" data-name="path2 fill" fill="#fff" d="M229.76 2.64q6.7 0 10.29 3t3.57 8.43a8.81 8.81 0 0 1-1.62 5.27 11.07 11.07 0 0 1-4.8 3.66 8.28 8.28 0 0 1 4.8 3.56 11.7 11.7 0 0 1 1.49 6.11V36a6.16 6.16 0 0 0 .48 2.78 2 2 0 0 0 1.58 1.08l1.35.16v3.64h-3a5 5 0 0 1-4.62-2.26 10.43 10.43 0 0 1-1.28-5.49v-3.18a7.5 7.5 0 0 0-2-5.39 6.9 6.9 0 0 0-5.21-2h-8.89v14l4.59.79v3.55h-14.73v-3.6l4.59-.79V7l-4.59-.78V2.64h18zM221.9 21h7.3q4.65 0 6.76-1.78a6.37 6.37 0 0 0 2.11-5.22 6.67 6.67 0 0 0-2-5.13C234.69 7.6 232.6 7 229.76 7h-7.86zm47.76-18.39q6.55 0 10.2 3.38a11.54 11.54 0 0 1 3.66 8.9 11.52 11.52 0 0 1-3.66 8.93q-3.64 3.36-10.2 3.36H261v12.11l4.59.79v3.55h-14.78v-3.55l4.59-.79V7l-4.59-.78V2.61h18.85zM261 22.84h8.71c2.78 0 4.85-.75 6.22-2.23A8 8 0 0 0 278 15a8.1 8.1 0 0 0-2.09-5.69Q273.83 7 269.66 7H261zM320.15 39a18.43 18.43 0 0 1-5.33 3.58 21.56 21.56 0 0 1-9.16 1.66 17.23 17.23 0 0 1-13.43-5.78q-5.19-5.77-5.19-15v-.68q0-9.27 5.13-15T305.86 2a20.59 20.59 0 0 1 8 1.43 17.68 17.68 0 0 1 5.84 3.77v7.44h-3.89L314.45 9a11.67 11.67 0 0 0-3.35-1.86 13.43 13.43 0 0 0-4.67-.73q-6.66 0-10.26 4.57t-3.58 11.77v.74q0 7.35 3.47 11.89a11.46 11.46 0 0 0 9.6 4.53 18 18 0 0 0 5.5-.7 15.13 15.13 0 0 0 3.44-1.55v-9l-6.74-.28v-4.11h12.29z"/>
        </g>
      </g>
    </g>
  </g>
  <path fill="#fff" d="M6.24 71.22a5.36 5.36 0 0 1 3.42 1A3.34 3.34 0 0 1 10.9 75a2.77 2.77 0 0 1-.52 1.68 3.73 3.73 0 0 1-1.52 1.15 2.73 2.73 0 0 1 1.63 1.11 3.53 3.53 0 0 1 .5 1.93v.65a1.1 1.1 0 0 0 .16.65.74.74 0 0 0 .56.28h.31V84H10.7a2.09 2.09 0 0 1-1.77-.68 2.82 2.82 0 0 1-.51-1.75v-.72a2.08 2.08 0 0 0-.5-1.47 1.92 1.92 0 0 0-1.4-.56h-2.1v3.38l1.37.26V84H.49v-1.52l1.36-.26V73l-1.36-.23v-1.55h5.75zm-1.82 5.65H6.2a2.42 2.42 0 0 0 1.6-.46 1.63 1.63 0 0 0 .54-1.32 1.83 1.83 0 0 0-.53-1.37 2.16 2.16 0 0 0-1.57-.52H4.42zM24.57 77.72A6.83 6.83 0 0 1 23 82.37a5.36 5.36 0 0 1-4.21 1.84 5.29 5.29 0 0 1-4.19-1.84 6.88 6.88 0 0 1-1.6-4.65v-.19a6.89 6.89 0 0 1 1.59-4.65A5.28 5.28 0 0 1 18.74 71 5.32 5.32 0 0 1 23 72.88a6.81 6.81 0 0 1 1.62 4.65zM22 77.51a5.73 5.73 0 0 0-.83-3.23A2.75 2.75 0 0 0 18.74 73a2.67 2.67 0 0 0-2.41 1.23 5.89 5.89 0 0 0-.8 3.24v.21a6 6 0 0 0 .8 3.26 2.7 2.7 0 0 0 2.42 1.23A2.73 2.73 0 0 0 21.19 81a5.79 5.79 0 0 0 .81-3.28zM25.59 84v-1.52l1.41-.26V73l-1.37-.26v-1.52h5.3v1.55l-1.41.23v9h3.61l.13-1.61h2V84zM44.4 78.4h-4.33v3.65h4.13l.11-1.53h2V84H36.14v-1.52l1.36-.26V73l-1.36-.26v-1.52h10.11v3.51h-2l-.11-1.53h-4.1v3.22h4.36zM53.73 71.22a5.07 5.07 0 0 1 3.47 1.13 3.8 3.8 0 0 1 1.27 3 3.74 3.74 0 0 1-1.27 3 5.06 5.06 0 0 1-3.47 1.12h-2.16v2.84l1.37.26V84h-5.3v-1.52l1.36-.26V73l-1.36-.26v-1.52h6.09zm-2.16 6.18h2.16a2.13 2.13 0 0 0 1.62-.58 2.08 2.08 0 0 0 .55-1.49 2.18 2.18 0 0 0-.55-1.53 2.1 2.1 0 0 0-1.62-.6h-2.16zM59.28 84v-1.52l1.36-.26V73l-1.36-.26v-1.52h5.3v1.55l-1.37.23v9h3.61l.18-1.56h2V84zM69.7 82.48l.91-.13 3.9-11.13h2.62L81 82.35l.91.13V84h-4.36v-1.52l.89-.16-.56-1.75h-4.15l-.56 1.75.89.16V84H69.7zm4.64-3.8h2.93l-1.44-4.51zM85.17 72.77l-1 .15 2 4.2 2-4.2-1-.15v-1.55H92v1.55l-1.13.23-3.48 6.57v2.7l1.37.26V84h-5.3v-1.52l1.37-.26v-2.83L81.41 73l-1.08-.18v-1.6h4.84zM92.79 72.77v-1.55h5.3v1.55l-1.37.23v9.19l1.37.26V84h-5.3v-1.52l1.37-.26V73zM112.14 71.22v1.55l-1.37.26V84h-2.56L103 75.41v6.8l1.37.26V84h-5.3v-1.52l1.36-.26V73l-1.36-.26v-1.52H103l5.17 8.62V73l-1.37-.26v-1.52h5.3zM123.57 82.6a5.63 5.63 0 0 1-1.81 1.11 8 8 0 0 1-3 .5 5.52 5.52 0 0 1-4.22-1.74 6.35 6.35 0 0 1-1.65-4.47v-.44a6.77 6.77 0 0 1 1.6-4.68 5.35 5.35 0 0 1 4.19-1.8 7.6 7.6 0 0 1 2.75.48 6.17 6.17 0 0 1 2.07 1.29v2.58h-1.9l-.36-1.71a2.71 2.71 0 0 0-.93-.48A4.44 4.44 0 0 0 119 73a3.07 3.07 0 0 0-2.61 1.24 5.24 5.24 0 0 0-.94 3.24V78a4.88 4.88 0 0 0 .92 3.11 3.15 3.15 0 0 0 2.63 1.13 4.74 4.74 0 0 0 1.25-.14 2.71 2.71 0 0 0 .75-.3v-2.17l-1.83-.14v-1.81h4.4zM139.88 82.6a5.69 5.69 0 0 1-1.82 1.11 8 8 0 0 1-3 .5 5.51 5.51 0 0 1-4.22-1.74 6.31 6.31 0 0 1-1.65-4.47v-.44a6.81 6.81 0 0 1 1.6-4.68A5.35 5.35 0 0 1 135 71a7.6 7.6 0 0 1 2.75.48 6 6 0 0 1 2.07 1.29v2.58h-1.9l-.36-1.71a2.54 2.54 0 0 0-.93-.48 4.39 4.39 0 0 0-1.32-.18 3.07 3.07 0 0 0-2.61 1.24 5.24 5.24 0 0 0-.93 3.24V78a4.88 4.88 0 0 0 .91 3.11 3.15 3.15 0 0 0 2.64 1.17 4.74 4.74 0 0 0 1.25-.14 2.71 2.71 0 0 0 .75-.3v-2.21l-1.83-.14v-1.81h4.41zM141 82.48l.91-.13 3.9-11.13h2.63l3.86 11.13.92.13V84h-4.36v-1.52l.88-.16-.56-1.75h-4.15l-.56 1.75.89.16V84H141zm4.64-3.8h2.94l-1.45-4.51zM166.44 74.55h-.05L163 84h-1.72l-3.41-9.44h-.06l.25 5.62v2l1.37.26V84h-5.3v-1.52l1.36-.26V73l-1.36-.26v-1.52h4.71l3.26 9.43h.05l3.29-9.43h4.73v1.55l-1.37.26v9.19l1.37.26V84h-5.3v-1.52l1.36-.26v-2zM179.31 78.4H175v3.65h4.13l.12-1.53h1.95V84H171v-1.52l1.37-.26V73l-1.37-.23v-1.55h10.11v3.51h-2L179 73.2h-4v3.22h4.34zM192.26 75.31h-1.92l-.34-1.76a3.58 3.58 0 0 0-1-.37 6.06 6.06 0 0 0-1.37-.15 2.61 2.61 0 0 0-1.63.44 1.4 1.4 0 0 0-.57 1.15 1.24 1.24 0 0 0 .6 1.06 8.1 8.1 0 0 0 2.08.89 8.14 8.14 0 0 1 3.21 1.55 3.24 3.24 0 0 1 1.1 2.54 3.06 3.06 0 0 1-1.31 2.6 5.68 5.68 0 0 1-3.42.95 7.48 7.48 0 0 1-2.75-.49 5.65 5.65 0 0 1-2-1.33v-2.68h2l.28 1.82a3 3 0 0 0 1.05.53 5.19 5.19 0 0 0 1.48.2 2.54 2.54 0 0 0 1.6-.43 1.38 1.38 0 0 0 .55-1.15 1.49 1.49 0 0 0-.52-1.19 5.39 5.39 0 0 0-1.84-.84 10.57 10.57 0 0 1-3.44-1.56 3 3 0 0 1-1.17-2.48 3.05 3.05 0 0 1 1.32-2.55 5.49 5.49 0 0 1 3.31-1 7.67 7.67 0 0 1 2.69.45 6 6 0 0 1 2 1.19zM197.87 82.48l1.36-.26V73l-1.36-.26v-1.52h10.18v3.51h-2L206 73.2h-4.2v3.53h4.48v2h-4.48v3.52l1.37.26V84h-5.3zM220.33 77.72a6.78 6.78 0 0 1-1.61 4.65 5.7 5.7 0 0 1-8.39 0 6.83 6.83 0 0 1-1.6-4.65v-.19a6.89 6.89 0 0 1 1.59-4.65 5.26 5.26 0 0 1 4.19-1.88 5.33 5.33 0 0 1 4.21 1.84 6.8 6.8 0 0 1 1.61 4.65zm-2.55-.21a5.73 5.73 0 0 0-.83-3.23 2.76 2.76 0 0 0-2.44-1.28 2.69 2.69 0 0 0-2.42 1.23 5.89 5.89 0 0 0-.79 3.24v.21a6 6 0 0 0 .8 3.26 2.69 2.69 0 0 0 2.41 1.23A2.75 2.75 0 0 0 217 81a5.87 5.87 0 0 0 .82-3.26zM227.11 71.22a5.36 5.36 0 0 1 3.42 1 3.37 3.37 0 0 1 1.24 2.78 2.84 2.84 0 0 1-.52 1.68 3.73 3.73 0 0 1-1.52 1.15 2.76 2.76 0 0 1 1.63 1.11 3.53 3.53 0 0 1 .5 1.93v.65a1.1 1.1 0 0 0 .16.65.74.74 0 0 0 .56.28h.31V84h-1.32a2.09 2.09 0 0 1-1.77-.68 2.82 2.82 0 0 1-.51-1.75v-.72a2.08 2.08 0 0 0-.5-1.47 1.93 1.93 0 0 0-1.4-.56h-2.1v3.38l1.37.26V84h-5.3v-1.52l1.36-.26V73l-1.36-.26v-1.52h5.75zm-1.82 5.65h1.78a2.42 2.42 0 0 0 1.6-.46 1.63 1.63 0 0 0 .54-1.32 1.83 1.83 0 0 0-.53-1.37 2.16 2.16 0 0 0-1.57-.52h-1.82zM248.63 75.54h-1.9l-.27-1.71a2.6 2.6 0 0 0-1-.59 3.73 3.73 0 0 0-1.36-.22 3 3 0 0 0-2.57 1.21 5.17 5.17 0 0 0-.9 3.16v.45a5.2 5.2 0 0 0 .9 3.17 2.94 2.94 0 0 0 2.53 1.23 4.34 4.34 0 0 0 1.38-.22 2.37 2.37 0 0 0 1-.6l.27-1.71h1.9v2.54a5.46 5.46 0 0 1-2 1.42 6.45 6.45 0 0 1-2.68.54 5.47 5.47 0 0 1-4.22-1.79 6.47 6.47 0 0 1-1.65-4.58v-.43a6.54 6.54 0 0 1 1.64-4.58A5.48 5.48 0 0 1 244 71a6.45 6.45 0 0 1 2.68.54 5.79 5.79 0 0 1 2 1.43zM249.81 72.77v-1.55h5.3v1.55l-1.37.26v3.7H259V73l-1.37-.26v-1.52h5.3v1.55l-1.37.26v9.19l1.37.26V84h-5.3v-1.52l1.37-.26V78.7h-5.22v3.52l1.37.26V84h-5.3v-1.52l1.36-.26V73zM263.75 82.48l.92-.13 3.89-11.13h2.63l3.86 11.13.92.13V84h-4.36v-1.52l.89-.16-.57-1.75h-4.14l-.57 1.75.89.16V84h-4.36zm4.64-3.8h2.94l-1.44-4.51h-.06zM282.56 71.22a5.36 5.36 0 0 1 3.42 1 3.37 3.37 0 0 1 1.24 2.78 2.77 2.77 0 0 1-.52 1.68 3.73 3.73 0 0 1-1.52 1.15 2.76 2.76 0 0 1 1.63 1.11 3.53 3.53 0 0 1 .5 1.93v.65a1.1 1.1 0 0 0 .16.65.74.74 0 0 0 .56.28h.31V84H287a2.09 2.09 0 0 1-1.77-.68 2.82 2.82 0 0 1-.51-1.75v-.72a2.08 2.08 0 0 0-.5-1.47 1.93 1.93 0 0 0-1.4-.56h-2.1v3.38l1.37.26V84h-5.3v-1.52l1.36-.26V73l-1.36-.26v-1.52h5.75zm-1.82 5.65h1.78a2.42 2.42 0 0 0 1.6-.46 1.63 1.63 0 0 0 .54-1.32 1.83 1.83 0 0 0-.53-1.37 2.16 2.16 0 0 0-1.57-.52h-1.82zM289.18 72.77v-1.55h5.3v1.55l-1.37.26v9.19l1.37.26V84h-5.3v-1.52l1.37-.26V73zM306.72 71.22v3.41h-2l-.1-1.43h-2.36v9l1.37.26V84h-5.31v-1.52l1.37-.26v-9h-2.34l-.11 1.43h-2v-3.43zM312.36 72.77l-1 .15 2 4.2h.06l2-4.2-1-.15v-1.55h4.84v1.55l-1.09.18-3.48 6.57v2.7l1.37.26V84h-5.3v-1.52l1.37-.26v-2.83L308.6 73l-1.08-.18v-1.6h4.84zM0 56.54h320.15v4H0z"/>
</svg>