
<svg id="Layer_1" data-name="Layer 1" xmlns="http://www.w3.org/2000/svg" viewBox="0 0 322.33 89.42" width="329" height="87">
  <g id="Canvas">
    <g id="d20">
      <g id="Group">
        <g id="Vector">
          <path id="path0_fill" data-name="path0 fill" fill="#fff" d="M177.4 0l-20 11.43v22.85l.66.38 19.34 11.05 19.95-11.43V11.43zm0 3.86l8 11.69h-15.97zm-4.31 1.64l-6.55 9.62-5.12-2.93zm8.63 0l11.67 6.68-5.12 2.94zm-21.62 9l5.11 2.93-5.11 10.4zm34.61 0v13.33l-5.12-10.44 5.12-2.93zm-25.48 3.72h16.34l-8.17 14zM167 19.66l8 13.69-14.19-1zm20.72 0L194 32.35l-14.2 1zm-23.31 15.58l11.67.82v5.86zm26 0l-11.67 6.68v-5.86z"/>
        </g>
        <path id="path1_fill" data-name="path1 fill" fill="#fff" d="M.61 44v-3.91L14.24 25a37.84 37.84 0 0 0 4.94-6.49 10.07 10.07 0 0 0 1.31-4.91 7.71 7.71 0 0 0-1.83-5.23 6 6 0 0 0-4.82-2.14q-4.32 0-6.35 2.2a8.85 8.85 0 0 0-2 6.23H.06v-.18a11.73 11.73 0 0 1 3.54-9C6 3 9.45 1.75 13.84 1.75A12.14 12.14 0 0 1 22.78 5a11.11 11.11 0 0 1 3.34 8.32 13.13 13.13 0 0 1-2 6.8 43.72 43.72 0 0 1-5.65 7.34l-11 11.92.06.14h14.79l.46-4.77h4.77V44zm55.66-14H62v4.4h-5.73v5.2l4.66.8V44H46v-3.6l4.66-.8v-5.2H32v-3.22L50.33 2.35h5.94zM38 30h12.67V10.38l-.17-.06-.57 1.51zM66.16 6V2.35H81.1V6l-4.66.8v14.35h20.18V6.78L92 6V2.35h14.9V6l-4.65.8v32.75l4.65.8V44H92v-3.6l4.66-.8v-14H76.44v14l4.66.8V44H66.16v-3.6l4.65-.8V6.78zm63.23-3.6q6.81 0 10.43 3t3.63 8.6a9 9 0 0 1-1.68 5.37 11.31 11.31 0 0 1-4.83 3.63 8.41 8.41 0 0 1 4.88 3.63 11.8 11.8 0 0 1 1.52 6.2v3.34a6.35 6.35 0 0 0 .48 2.83 2 2 0 0 0 1.6 1.08l1.37.18V44h-3a5.07 5.07 0 0 1-4.69-2.28 10.67 10.67 0 0 1-1.37-5.55v-3.28a7.57 7.57 0 0 0-2-5.45 7 7 0 0 0-5.29-2.06h-9v14.17l4.66.8V44h-15v-3.6l4.66-.8V6.78L111.13 6V2.38h18.26zm-8 18.57h7.4c3.15 0 5.43-.6 6.86-1.8a6.47 6.47 0 0 0 2.14-5.26 6.76 6.76 0 0 0-2-5.2c-1.38-1.28-3.5-1.91-6.38-1.91h-8z"/>
        <g id="RPG">
          <path id="path2_fill" data-name="path2 fill" fill="#fff" d="M229.76 2.64q6.7 0 10.29 3t3.57 8.43a8.81 8.81 0 0 1-1.62 5.27 11.07 11.07 0 0 1-4.8 3.66 8.28 8.28 0 0 1 4.8 3.56 11.7 11.7 0 0 1 1.49 6.11V36a6.16 6.16 0 0 0 .48 2.78 2 2 0 0 0 1.58 1.08l1.35.16v3.64h-3a5 5 0 0 1-4.62-2.26 10.43 10.43 0 0 1-1.28-5.49v-3.18a7.5 7.5 0 0 0-2-5.39 6.9 6.9 0 0 0-5.21-2h-8.89v14l4.59.79v3.55h-14.73v-3.6l4.59-.79V7l-4.59-.78V2.64h18zM221.9 21h7.3q4.65 0 6.76-1.78a6.37 6.37 0 0 0 2.11-5.22 6.67 6.67 0 0 0-2-5.13C234.69 7.6 232.6 7 229.76 7h-7.86zm47.76-18.39q6.55 0 10.2 3.38a11.54 11.54 0 0 1 3.66 8.9 11.52 11.52 0 0 1-3.66 8.93q-3.64 3.36-10.2 3.36H261v12.11l4.59.79v3.55h-14.78v-3.55l4.59-.79V7l-4.59-.78V2.61h18.85zM261 22.84h8.71c2.78 0 4.85-.75 6.22-2.23A8 8 0 0 0 278 15a8.1 8.1 0 0 0-2.09-5.69Q273.83 7 269.66 7H261zM320.15 39a18.43 18.43 0 0 1-5.33 3.58 21.56 21.56 0 0 1-9.16 1.66 17.23 17.23 0 0 1-13.43-5.78q-5.19-5.77-5.19-15v-.68q0-9.27 5.13-15T305.86 2a20.59 20.59 0 0 1 8 1.43 17.68 17.68 0 0 1 5.84 3.77v7.44h-3.89L314.45 9a11.67 11.67 0 0 0-3.35-1.86 13.43 13.43 0 0 0-4.67-.73q-6.66 0-10.26 4.57t-3.58 11.77v.74q0 7.35 3.47 11.89a11.46 11.46 0 0 0 9.6 4.53 18 18 0 0 0 5.5-.7 15.13 15.13 0 0 0 3.44-1.55v-9l-6.74-.28v-4.11h12.29z"/>
        </g>
      </g>
    </g>
  </g>
  <text transform="translate(0 84.02)" font-size="18" font-family="RobotoSlab-Bold,Roboto Slab" font-weight="700" fill="#fff">
    ROLEPL<tspan x="69.34" y="0" letter-spacing="-.13em">A</tspan><tspan x="80.02" y="0">YING GAMES </tspan><tspan x="197.38" y="0" letter-spacing="-.02em">F</tspan><tspan x="208.14" y="0">OR CHARI</tspan><tspan x="294.96" y="0" letter-spacing=".01em">T</tspan><tspan x="307.2" y="0">Y</tspan>
  </text>
  <path fill="#fff" d="M0 56.54h320.15v4H0z"/>
</svg>