<svg xmlns="http://www.w3.org/2000/svg" xmlns:xlink="http://www.w3.org/1999/xlink" viewBox="0 0 576 288" width="100%" height="100%"><defs><style>.cls-1{fill:transparent;}.cls-2{isolation:isolate;}.cls-3{clip-path:url(#clip-path);}.cls-4{fill:#efebd9;}.cls-5{fill:#0b90aa;}.cls-5,.cls-6,.cls-7{mix-blend-mode:multiply;}.cls-6{fill:#b1b336;}.cls-7{fill:#04384a;}</style><clipPath id="clip-path"><rect class="cls-1" width="100%" height="100%"/></clipPath></defs><title>bg-pattern</title><g class="cls-2"><g id="Layer_1" data-name="Layer 1"><rect class="cls-1" width="100%" height="100%"/><g class="cls-3"><g id="triangle36"><path class="cls-4" d="M33.17,242.64a.23.23,0,0,1-.16-.06l-88.12-73a.26.26,0,0,1-.06-.3.24.24,0,0,1,.26-.14L37.4,184a.24.24,0,0,1,.21.26l-4.19,58.15a.27.27,0,0,1-.15.21ZM-54.08,169.8l87,72.09,4.15-57.43Z"/></g><g id="triangle36-2" data-name="triangle36"><path class="cls-4" d="M37.36,184.5h0L-55,169.65a.25.25,0,0,1-.2-.18.25.25,0,0,1,.09-.26L66.38,75.94a.26.26,0,0,1,.3,0,.24.24,0,0,1,.1.27L37.6,184.31A.26.26,0,0,1,37.36,184.5Zm-91.69-15.25L37.18,184,66.1,76.78Z"/></g><g id="triangle36-3" data-name="triangle36"><path class="cls-4" d="M37.36,184.5a.27.27,0,0,1-.18-.08.26.26,0,0,1-.06-.24L66.3,76.07a.28.28,0,0,1,.24-.19.26.26,0,0,1,.24.19l24,95.12a.32.32,0,0,1,0,.19.26.26,0,0,1-.16.11l-53.18,13ZM66.53,77.12,37.71,183.9l52.53-12.84Z"/></g><g id="triangle36-4" data-name="triangle36"><path class="cls-4" d="M90.54,171.5l-.08,0a.23.23,0,0,1-.16-.17l-24-95.12a.25.25,0,0,1,.09-.25.26.26,0,0,1,.27,0l92.55,45.28a.25.25,0,0,1,0,.43L90.69,171.45A.25.25,0,0,1,90.54,171.5ZM66.91,76.6,90.7,170.83l67.91-49.37Z"/></g><g id="triangle36-5" data-name="triangle36"><path class="cls-4" d="M-54.95,169.66H-55a.23.23,0,0,1-.17-.15L-129.48-7.24a.25.25,0,0,1,0-.27.26.26,0,0,1,.28,0L66.63,75.9a.27.27,0,0,1,.16.2.25.25,0,0,1-.1.23L-54.79,169.6A.25.25,0,0,1-54.95,169.66ZM-128.78-6.86-54.84,169,66.05,76.2Z"/></g><g id="triangle36-6" data-name="triangle36"><path class="cls-4" d="M479.74,305.45a.25.25,0,0,1-.18-.08.25.25,0,0,1-.05-.27l38.82-84.88a.27.27,0,0,1,.23-.15.29.29,0,0,1,.23.14l28.83,58a.28.28,0,0,1,0,.2.29.29,0,0,1-.14.15l-67.66,26.85Zm38.83-84.55-38.34,83.84,66.82-26.53Z"/></g><g id="triangle36-7" data-name="triangle36"><path class="cls-4" d="M150.74,183.26h-.05L90.5,171.49a.24.24,0,0,1-.1-.44L159,121.22a.24.24,0,0,1,.39.23L151,183a.23.23,0,0,1-.1.17A.24.24,0,0,1,150.74,183.26ZM91.16,171.11l59.36,11.6L158.77,122Z"/></g><g id="triangle36-8" data-name="triangle36"><path class="cls-4" d="M285.67,230a.28.28,0,0,1-.13,0,.24.24,0,0,1-.12-.24l2.63-24.47a.25.25,0,0,1,.15-.21l109.93-46.59a.25.25,0,0,1,.23.44L285.8,230A.31.31,0,0,1,285.67,230Zm2.86-24.54L286,229.28l109.52-69.15Z"/></g><g id="triangle36-9" data-name="triangle36"><path class="cls-4" d="M102.88,246.18h0l-69.71-3.54a.25.25,0,0,1-.18-.08.26.26,0,0,1-.06-.19l4.19-58.14a.27.27,0,0,1,.16-.22.27.27,0,0,1,.26.05l65.52,61.69a.23.23,0,0,1,.06.28A.25.25,0,0,1,102.88,246.18Zm-69.44-4,68.78,3.5L37.57,184.79Z"/></g><g id="triangle36-10" data-name="triangle36"><path class="cls-4" d="M102.88,246.18a.23.23,0,0,1-.17-.07L37.19,184.43a.26.26,0,0,1-.07-.25.24.24,0,0,1,.18-.18l53.19-13a.22.22,0,0,1,.19,0,.25.25,0,0,1,.11.17l12.34,74.68a.24.24,0,0,1-.13.26Zm-65-61.8,64.65,60.86L90.34,171.56Z"/></g><g id="triangle36-11" data-name="triangle36"><path class="cls-4" d="M102.88,246.18h-.06a.23.23,0,0,1-.18-.2L90.3,171.29a.25.25,0,0,1,.29-.29l60.19,11.76a.26.26,0,0,1,.16.4l-47.86,62.92A.25.25,0,0,1,102.88,246.18Zm-12-74.62L103,245.32l47.25-62.14Z"/></g><g id="triangle36-12" data-name="triangle36"><path class="cls-4" d="M316,389.89a.24.24,0,0,1-.14-.05.22.22,0,0,1-.1-.18L306.32,272.6a.26.26,0,0,1,.14-.24.24.24,0,0,1,.28,0l102.5,93.33a.26.26,0,0,1,.08.25.24.24,0,0,1-.18.18l-93.06,23.72Zm-9.14-116.7,9.37,116.13,92.32-23.53Z"/></g><g id="triangle36-13" data-name="triangle36"><path class="cls-4" d="M409.08,366.17a.21.21,0,0,1-.17-.07l-102.5-93.33a.25.25,0,0,1-.05-.32.25.25,0,0,1,.31-.1l154.1,64.94a.25.25,0,0,1,.15.22.24.24,0,0,1-.13.23l-51.59,28.4A.27.27,0,0,1,409.08,366.17ZM307.82,273.38l101.29,92.23,51-28.06Z"/></g><g id="triangle36-14" data-name="triangle36"><path class="cls-4" d="M460.67,337.77a.2.2,0,0,1-.1,0L306.48,272.81a.26.26,0,0,1-.15-.3.26.26,0,0,1,.29-.18L479.79,305a.27.27,0,0,1,.18.15.24.24,0,0,1,0,.23l-19.06,32.32A.25.25,0,0,1,460.67,337.77ZM308.83,273.26l151.74,63.95,18.77-31.83Z"/></g><g id="triangle36-15" data-name="triangle36"><path class="cls-4" d="M306.57,272.83h0a.25.25,0,0,1-.19-.14l-20.91-42.82a.27.27,0,0,1,.09-.32l112.56-71.06a.25.25,0,0,1,.33.36L306.77,272.74A.25.25,0,0,1,306.57,272.83Zm-20.58-43,20.63,42.26,90.47-112.41Z"/></g><g id="triangle36-16" data-name="triangle36"><path class="cls-4" d="M768.78,410.8l-.09,0L531,324.24a.25.25,0,0,1-.16-.22.25.25,0,0,1,.13-.23L640.2,268.12a.26.26,0,0,1,.3.05L769,410.38a.24.24,0,0,1,0,.31A.23.23,0,0,1,768.78,410.8ZM531.69,324l236.23,86L640.26,268.65Z"/></g><g id="triangle36-17" data-name="triangle36"><path class="cls-4" d="M531.07,324.26l-.09,0-51.33-18.81a.24.24,0,0,1-.16-.23.24.24,0,0,1,.16-.23l67.65-26.86a.27.27,0,0,1,.27.06.25.25,0,0,1,.06.26L531.3,324.09a.24.24,0,0,1-.13.15Zm-50.63-19.07,50.48,18.5L547,278.78Z"/></g><g id="triangle36-18" data-name="triangle36"><path class="cls-4" d="M531.07,324.26a.25.25,0,0,1-.24-.33l16.33-45.67a.24.24,0,0,1,.21-.16l92.92-10a.25.25,0,0,1,.26.18.24.24,0,0,1-.12.29L531.18,324.23A.2.2,0,0,1,531.07,324.26Zm16.51-45.68L531.52,323.5,639,268.73Z"/></g><g id="triangle36-19" data-name="triangle36"><path class="cls-4" d="M316,389.89h0l-62.1-6.8a.26.26,0,0,1-.19-.13.24.24,0,0,1,0-.23l52.65-110.26a.25.25,0,0,1,.27-.14.27.27,0,0,1,.2.23l9.44,117.06a.26.26,0,0,1-.07.2A.29.29,0,0,1,316,389.89Zm-61.71-7.26,61.44,6.73L306.4,273.53Z"/></g><g id="triangle36-20" data-name="triangle36"><path class="cls-4" d="M253.92,383.09h0a.25.25,0,0,1-.22-.15l-47.45-115.2a.23.23,0,0,1,0-.24.2.2,0,0,1,.22-.1l100.11,4.93a.25.25,0,0,1,.2.12.29.29,0,0,1,0,.24L254.15,383A.24.24,0,0,1,253.92,383.09ZM206.85,267.92l47.09,114.31,52.25-109.42Z"/></g><g id="triangle36-21" data-name="triangle36"><path class="cls-4" d="M206.47,267.9h-.05L102.83,246.17a.23.23,0,0,1-.18-.15.26.26,0,0,1,0-.24l47.86-62.92a.28.28,0,0,1,.2-.1.25.25,0,0,1,.21.11l55.73,84.64a.26.26,0,0,1,0,.28A.23.23,0,0,1,206.47,267.9ZM103.32,245.77l102.61,21.51-55.21-83.84Z"/></g><g id="triangle36-22" data-name="triangle36"><path class="cls-4" d="M306.57,272.83h0L206.45,267.9a.26.26,0,0,1-.23-.2.26.26,0,0,1,.14-.28l79.2-37.88a.25.25,0,0,1,.33.11l20.91,42.82a.25.25,0,0,1,0,.25A.24.24,0,0,1,306.57,272.83Zm-99.1-5.39,98.69,4.87L285.55,230.1Z"/></g><g id="triangle36-23" data-name="triangle36"><path class="cls-4" d="M206.47,267.9h0a.25.25,0,0,1-.17-.11l-55.73-84.63a.24.24,0,0,1,0-.28.24.24,0,0,1,.25-.11l137.55,22.29a.26.26,0,0,1,.21.18.25.25,0,0,1-.09.26l-81.83,62.35A.22.22,0,0,1,206.47,267.9Zm-55.21-84.55,55.27,83.93,81.15-61.83Z"/></g><g id="triangle36-24" data-name="triangle36"><path class="cls-4" d="M206.47,267.9a.27.27,0,0,1-.22-.12.25.25,0,0,1,.07-.33l81.82-62.35a.24.24,0,0,1,.28,0,.25.25,0,0,1,.12.24l-2.62,24.47a.27.27,0,0,1-.14.2l-79.2,37.88Zm81.51-62-79.43,60.52,76.88-36.77Zm-2.31,23.91Z"/></g><g id="triangle36-25" data-name="triangle36"><path class="cls-4" d="M479.74,305.45h-.05L306.53,272.83a.27.27,0,0,1-.21-.23.25.25,0,0,1,.16-.25l163-61.76a.25.25,0,0,1,.34.21L480,305.17a.26.26,0,0,1-.25.28ZM307.49,272.5l172,32.39-10.1-93.72Z"/></g><g id="triangle36-26" data-name="triangle36"><path class="cls-4" d="M306.57,272.83a.26.26,0,0,1-.2-.1.26.26,0,0,1,0-.31L398,158.54a.25.25,0,0,1,.34,0l71.35,52.12a.28.28,0,0,1,.1.24.27.27,0,0,1-.16.2l-163,61.75A.15.15,0,0,1,306.57,272.83ZM398.27,159,307.34,272l161.71-61.27Z"/></g><g id="triangle36-27" data-name="triangle36"><path class="cls-4" d="M479.74,305.45h0a.25.25,0,0,1-.21-.22l-10.17-94.38a.24.24,0,0,1,.08-.21.25.25,0,0,1,.22-.06l49,9.5a.23.23,0,0,1,.17.13.24.24,0,0,1,0,.22L480,305.3A.25.25,0,0,1,479.74,305.45Zm-9.89-94.32,10,93.14,38.31-83.76Z"/></g><g id="triangle36-28" data-name="triangle36"><path class="cls-4" d="M288.29,205.54a.31.31,0,0,1-.13,0,.28.28,0,0,1-.12-.2L285.25,139a.28.28,0,0,1,.08-.2.27.27,0,0,1,.21-.06l112.73,19.71a.27.27,0,0,1,.21.22.26.26,0,0,1-.15.26L288.39,205.52A.16.16,0,0,1,288.29,205.54Zm-2.53-66.25,2.77,65.63L397.35,158.8Z"/></g><g id="triangle36-29" data-name="triangle36"><path class="cls-4" d="M288.29,205.54h0L150.7,183.26a.25.25,0,0,1-.21-.23.26.26,0,0,1,.16-.26l90.11-31.13a.23.23,0,0,1,.27.07l47.45,53.42a.24.24,0,0,1-.19.41ZM151.76,182.92l135.88,22-46.88-52.78Z"/></g><g id="triangle36-30" data-name="triangle36"><path class="cls-4" d="M150.74,183.26a.23.23,0,0,1-.16-.06.24.24,0,0,1-.09-.22l8.36-61.6a.25.25,0,0,1,.12-.18.3.3,0,0,1,.21,0l81.75,30.46a.25.25,0,0,1,.16.24.26.26,0,0,1-.17.23l-90.1,31.14Zm8.56-61.5L151,182.64l89.06-30.78Z"/></g><g id="triangle36-31" data-name="triangle36"><path class="cls-4" d="M288.29,205.54a.22.22,0,0,1-.18-.08L240.65,152a.29.29,0,0,1-.05-.24.26.26,0,0,1,.17-.17l44.66-12.88a.29.29,0,0,1,.22,0,.3.3,0,0,1,.1.2l2.79,66.3a.24.24,0,0,1-.15.25Zm-47-53.54L288,204.6l-2.76-65.28Z"/></g><g id="triangle36-32" data-name="triangle36"><path class="cls-4" d="M376.53,248.07a.23.23,0,0,1-.11,0,.23.23,0,0,1-.14-.24l8.17-138.19a.23.23,0,0,1,.15-.21.27.27,0,0,1,.27,0l71,64.77a.27.27,0,0,1,.08.19.22.22,0,0,1-.08.18L376.7,248A.23.23,0,0,1,376.53,248.07Zm8.38-137.9-8.09,137,78.5-72.81Z"/></g><g id="triangle36-33" data-name="triangle36"><path class="cls-4" d="M67.7,247.83h0a.26.26,0,0,1-.2-.18L58,212.4a.24.24,0,0,1,.07-.24l127-123.4a.25.25,0,0,1,.37.33L67.9,247.73A.22.22,0,0,1,67.7,247.83Zm-9.21-35.42L67.81,247,183.21,91.26Z"/></g><g id="triangle36-34" data-name="triangle36"><path class="cls-4" d="M367.5,303h0l-247.92-7.16a.25.25,0,0,1-.25-.23.26.26,0,0,1,.21-.27l257-47.76a.25.25,0,0,1,.22.07.27.27,0,0,1,.08.22l-9,54.93A.24.24,0,0,1,367.5,303ZM121.92,295.4l245.37,7.09,8.94-54.36Z"/></g><g id="triangle36-35" data-name="triangle36"><path class="cls-4" d="M119.57,295.83a.23.23,0,0,1-.17-.07l-51.87-48a.26.26,0,0,1,0-.33L185,88.79a.25.25,0,0,1,.32-.07.26.26,0,0,1,.12.3L119.81,295.66a.23.23,0,0,1-.17.16ZM68,247.55l51.41,47.58L184.55,90.3Z"/></g><g id="triangle36-36" data-name="triangle36"><path class="cls-4" d="M367.5,303a.23.23,0,0,1-.14,0,.24.24,0,0,1-.11-.25l9-54.92a.26.26,0,0,1,.25-.21l81.06-1.52h0a.26.26,0,0,1,.24.18.24.24,0,0,1-.11.28L367.63,303A.31.31,0,0,1,367.5,303Zm9.24-54.93-8.91,54.18,88.87-55.67Z"/></g><g id="triangle36-37" data-name="triangle36"><path class="cls-4" d="M457.6,246.55a.25.25,0,0,1-.19-.41L578.62,110.57a.25.25,0,0,1,.3-.06L832.84,238.27a.25.25,0,0,1,.13.27.25.25,0,0,1-.24.2L457.6,246.55ZM578.87,111,458.17,246l373.54-7.78Z"/></g><g id="triangle36-38" data-name="triangle36"><path class="cls-4" d="M376.53,248.07a.25.25,0,0,1-.23-.16.23.23,0,0,1,.06-.27l79.15-73.42a.25.25,0,0,1,.27-.05.24.24,0,0,1,.15.22l1.92,71.91a.31.31,0,0,1-.07.18.29.29,0,0,1-.18.07l-81.06,1.52ZM455.45,175l-78.27,72.6,80.16-1.5Z"/></g><g id="triangle36-39" data-name="triangle36"><path class="cls-4" d="M457.6,246.55h-.09a.25.25,0,0,1-.16-.23l-1.92-71.9a.24.24,0,0,1,.14-.23L578.7,110.51a.25.25,0,0,1,.31.07.26.26,0,0,1,0,.32L457.78,246.47A.23.23,0,0,1,457.6,246.55Zm-1.66-72,1.89,71.12L577.72,111.58Z"/></g><g id="triangle36-40" data-name="triangle36"><path class="cls-4" d="M752.33,414.2h0L491,378.78a.25.25,0,0,1-.22-.21.27.27,0,0,1,.16-.27l341.72-140a.27.27,0,0,1,.28.05.26.26,0,0,1,0,.28L752.56,414.06A.27.27,0,0,1,752.33,414.2ZM492,378.41l260.22,35.27L832.23,239Z"/></g><g id="triangle36-41" data-name="triangle36"><path class="cls-4" d="M491,378.79a.33.33,0,0,1-.13,0L367.37,303a.25.25,0,0,1-.12-.21.27.27,0,0,1,.11-.22l90.1-56.44a.27.27,0,0,1,.23,0,.26.26,0,0,1,.15.17l33.4,132.23a.25.25,0,0,1-.09.27A.27.27,0,0,1,491,378.79ZM368,302.74,490.61,378,457.44,246.7Z"/></g><g id="triangle36-42" data-name="triangle36"><path class="cls-4" d="M491,378.79a.2.2,0,0,1-.11,0,.23.23,0,0,1-.13-.16l-33.4-132.24a.23.23,0,0,1,0-.21.26.26,0,0,1,.19-.1l375.13-7.81h0a.25.25,0,0,1,.25.2.26.26,0,0,1-.15.28l-341.72,140ZM457.92,246.55l33.25,131.64L831.39,238.77Z"/></g><g id="triangle36-43" data-name="triangle36"><path class="cls-4" d="M-21.5,342.69a.27.27,0,0,1-.22-.11.26.26,0,0,1,0-.31l89.21-94.86a.25.25,0,0,1,.35,0l51.87,48a.23.23,0,0,1,.08.23.25.25,0,0,1-.17.19L-21.43,342.68Zm89.21-94.75-88.36,93.95,139.74-46.41Z"/></g><g id="triangle36-44" data-name="triangle36"><path class="cls-4" d="M-21.5,342.69a.24.24,0,0,1-.15,0L-144.11,255.5a.26.26,0,0,1-.1-.26.25.25,0,0,1,.2-.19l202.17-43a.25.25,0,0,1,.26.38l-79.71,130.1a.31.31,0,0,1-.16.12Zm-121.85-87.27,121.77,86.66L57.69,212.7Z"/></g><g id="triangle36-45" data-name="triangle36"><path class="cls-4" d="M-21.5,342.69a.24.24,0,0,1-.16-.05.26.26,0,0,1-.06-.33L58,212.21a.24.24,0,0,1,.25-.12.22.22,0,0,1,.2.18l9.49,35.25a.24.24,0,0,1-.06.24l-89.2,94.85A.23.23,0,0,1-21.5,342.69ZM58.12,213-20,340.5l87.44-93Z"/></g><g id="triangle36-46" data-name="triangle36"><path class="cls-4" d="M119.57,295.83a.24.24,0,0,1-.22-.14.25.25,0,0,1,.06-.3L311.68,122.58a.29.29,0,0,1,.22-.06.25.25,0,0,1,.17.13l64.68,125a.24.24,0,0,1,0,.23.23.23,0,0,1-.17.13l-257,47.77ZM311.78,123.17l-191.38,172,255.75-47.54Z"/></g><g id="triangle36-47" data-name="triangle36"><path class="cls-4" d="M119.57,295.83a.22.22,0,0,1-.13,0,.26.26,0,0,1-.11-.29L185,88.87a.26.26,0,0,1,.31-.17l126.6,33.83a.24.24,0,0,1,.18.18.22.22,0,0,1-.07.24L119.74,295.77A.27.27,0,0,1,119.57,295.83ZM185.41,89.25,120.09,294.78,311.34,122.89Z"/></g><g id="triangle36-48" data-name="triangle36"><path class="cls-4" d="M376.53,248.07a.24.24,0,0,1-.22-.14l-64.68-125a.22.22,0,0,1,0-.22.26.26,0,0,1,.18-.14l72.84-13.14a.25.25,0,0,1,.21.06.27.27,0,0,1,.09.2l-8.17,138.19a.25.25,0,0,1-.2.23ZM312.23,123l64.1,124,8.1-137Z"/></g><g id="triangle36-49" data-name="triangle36"><path class="cls-4" d="M58.21,212.59h-.05a.24.24,0,0,1-.18-.14l-39.43-90.2a.26.26,0,0,1,0-.21.24.24,0,0,1,.17-.13L185.19,88.7a.25.25,0,0,1,.27.13.24.24,0,0,1,0,.29l-127,123.4A.24.24,0,0,1,58.21,212.59ZM19.14,122.33,58.3,211.91,184.46,89.35Z"/></g><g id="triangle36-50" data-name="triangle36"><path class="cls-4" d="M-144,255.54a.25.25,0,0,1-.23-.14.25.25,0,0,1,.07-.3l107.9-91.38a.23.23,0,0,1,.27,0l94.28,48.42a.26.26,0,0,1,.13.26.26.26,0,0,1-.2.21l-202.17,43ZM-36,164.21l-107,90.63,200.51-42.6Z"/></g><g id="triangle36-51" data-name="triangle36"><path class="cls-4" d="M58.21,212.59a.2.2,0,0,1-.11,0l-94.27-48.43a.25.25,0,0,1-.14-.2.24.24,0,0,1,.1-.22l54.84-41.77a.28.28,0,0,1,.22,0A.25.25,0,0,1,19,122l39.43,90.2a.25.25,0,0,1-.06.28A.28.28,0,0,1,58.21,212.59Zm-93.8-48.72L57.7,211.79l-39-89.26Z"/></g><path class="cls-5" d="M578.19,171.65a3.49,3.49,0,1,1-3.48-3.49A3.48,3.48,0,0,1,578.19,171.65Z"/></g><path class="cls-6" d="M486.17,194.1a3.17,3.17,0,1,1-3.17-3.16A3.16,3.16,0,0,1,486.17,194.1Z"/><path class="cls-6" d="M471.09,173.17a3.15,3.15,0,1,1-3.15-3.15A3.15,3.15,0,0,1,471.09,173.17Z"/><path class="cls-6" d="M553.93,224a3,3,0,1,1-3-3A3,3,0,0,1,553.93,224Z"/><circle class="cls-6" cx="479.68" cy="233.04" r="3.06"/><circle class="cls-6" cx="423.26" cy="208.33" r="1.64"/><circle class="cls-6" cx="280.96" cy="202.51" r="4.97"/><path class="cls-6" d="M367,218.47a1.78,1.78,0,1,1-1.77-1.78A1.78,1.78,0,0,1,367,218.47Z"/><path class="cls-6" d="M368.07,240.69a3.85,3.85,0,1,1-3.85-3.85A3.86,3.86,0,0,1,368.07,240.69Z"/><path class="cls-6" d="M276.79,127.83a2,2,0,1,1-2-2A2,2,0,0,1,276.79,127.83Z"/><path class="cls-6" d="M268.38,231.67a3.92,3.92,0,1,1-3.92-3.92A3.93,3.93,0,0,1,268.38,231.67Z"/><circle class="cls-6" cx="185.9" cy="177.21" r="2.77"/><path class="cls-6" d="M194.9,269.1a2.82,2.82,0,1,1-2.82-2.81A2.82,2.82,0,0,1,194.9,269.1Z"/><circle class="cls-6" cx="57.77" cy="214.99" r="4.82"/><path class="cls-6" d="M17,159.22a4.07,4.07,0,1,1-4.07-4.06A4.07,4.07,0,0,1,17,159.22Z"/><path class="cls-6" d="M38.23,135.75a3.87,3.87,0,1,1-3.87-3.87A3.86,3.86,0,0,1,38.23,135.75Z"/><path class="cls-5" d="M549.86,238.85a1.45,1.45,0,1,1-1.44-1.44A1.44,1.44,0,0,1,549.86,238.85Z"/><path class="cls-5" d="M501.47,266.84a2.9,2.9,0,1,1-2.89-2.89A2.89,2.89,0,0,1,501.47,266.84Z"/><path class="cls-5" d="M427.4,133.26a4.24,4.24,0,1,1-4.24-4.24A4.24,4.24,0,0,1,427.4,133.26Z"/><circle class="cls-5" cx="419.61" cy="166.1" r="2.29"/><path class="cls-5" d="M337.68,129.3a2.54,2.54,0,1,1-2.53-2.54A2.53,2.53,0,0,1,337.68,129.3Z"/><circle class="cls-5" cx="313.55" cy="144.8" r="4.57"/><path class="cls-5" d="M268.71,252.89a3.52,3.52,0,1,1-3.52-3.51A3.51,3.51,0,0,1,268.71,252.89Z"/><circle class="cls-5" cx="197.12" cy="196.51" r="3.85"/><path class="cls-5" d="M231.71,137.73a3.64,3.64,0,1,1-3.64-3.64A3.64,3.64,0,0,1,231.71,137.73Z"/><path class="cls-5" d="M128.82,197.15a4.06,4.06,0,1,1-4.06-4.06A4.06,4.06,0,0,1,128.82,197.15Z"/><path class="cls-5" d="M151,222.58a2.82,2.82,0,1,1-2.81-2.82A2.81,2.81,0,0,1,151,222.58Z"/><path class="cls-5" d="M47.67,189.76a1.56,1.56,0,1,1-1.55-1.55A1.55,1.55,0,0,1,47.67,189.76Z"/><circle class="cls-5" cx="45.52" cy="155.69" r="4.77"/><circle class="cls-7" cx="525.81" cy="110.02" r="3.42"/><circle class="cls-7" cx="519.48" cy="177.68" r="2.74"/><circle class="cls-7" cx="538.39" cy="196.85" r="3.32"/><path class="cls-7" d="M524.37,199a3,3,0,1,1-3-3A3,3,0,0,1,524.37,199Z"/><path class="cls-7" d="M453.35,251.31a4.77,4.77,0,1,1-4.77-4.77A4.77,4.77,0,0,1,453.35,251.31Z"/><path class="cls-7" d="M404,229.48a4.1,4.1,0,1,1-4.1-4.1A4.1,4.1,0,0,1,404,229.48Z"/><circle class="cls-7" cx="398.67" cy="190.88" r="4.24"/><circle class="cls-7" cx="352.72" cy="146.94" r="4.83"/><path class="cls-7" d="M373.36,117.78a1.66,1.66,0,1,1-1.66-1.66A1.66,1.66,0,0,1,373.36,117.78Z"/><path class="cls-7" d="M296.57,232.05a1.49,1.49,0,1,1-1.49-1.5A1.49,1.49,0,0,1,296.57,232.05Z"/><path class="cls-7" d="M164.71,185.57a3.33,3.33,0,1,1-3.33-3.32A3.32,3.32,0,0,1,164.71,185.57Z"/><circle class="cls-7" cx="116.95" cy="259.95" r="3.26"/><circle class="cls-7" cx="202.48" cy="174.56" r="2.65"/><path class="cls-7" d="M152.63,147.57a4.2,4.2,0,1,1-4.2-4.2A4.2,4.2,0,0,1,152.63,147.57Z"/><path class="cls-7" d="M108.39,110.63a4.51,4.51,0,1,1-4.51-4.51A4.51,4.51,0,0,1,108.39,110.63Z"/><path class="cls-7" d="M192.5,112.21a2.83,2.83,0,1,1-2.83-2.83A2.83,2.83,0,0,1,192.5,112.21Z"/><path class="cls-6" d="M107.87,278.9a4.6,4.6,0,1,1-4.59-4.59A4.59,4.59,0,0,1,107.87,278.9Z"/></g></g></svg>