<svg id="Layer_1" data-name="Layer 1" xmlns="http://www.w3.org/2000/svg" viewBox="0 0 1920 1245.89"><defs><style>.cls-1{opacity:0.5;}.cls-2{fill:#bcbec0;}.cls-3{opacity:0.6;}.cls-11,.cls-12,.cls-13,.cls-14,.cls-15,.cls-16,.cls-18,.cls-19,.cls-20,.cls-21,.cls-22,.cls-23,.cls-24,.cls-25,.cls-26,.cls-27,.cls-28,.cls-29,.cls-30,.cls-31,.cls-32,.cls-33,.cls-34,.cls-35,.cls-36,.cls-37,.cls-38,.cls-4,.cls-5,.cls-6,.cls-7,.cls-8,.cls-9{fill:none;stroke-miterlimit:10;}.cls-20,.cls-21,.cls-22,.cls-23,.cls-24,.cls-4,.cls-5,.cls-6,.cls-7,.cls-8,.cls-9{stroke:#d1d3d4;}.cls-4{stroke-width:1.14px;}.cls-5{stroke-width:1.63px;}.cls-19,.cls-6{stroke-width:1.11px;}.cls-7{stroke-width:1.3px;}.cls-8{stroke-width:1.07px;}.cls-9{stroke-width:1.79px;}.cls-10{opacity:0.8;}.cls-11,.cls-12,.cls-13,.cls-14,.cls-15,.cls-16,.cls-18,.cls-19,.cls-25,.cls-26,.cls-27,.cls-28,.cls-29,.cls-30,.cls-31,.cls-32,.cls-33,.cls-34,.cls-35,.cls-36,.cls-37,.cls-38{stroke:#bcbec0;}.cls-11{stroke-width:3.57px;}.cls-12{stroke-width:2.02px;}.cls-13{stroke-width:2.58px;}.cls-14{stroke-width:1.81px;}.cls-15{stroke-width:1.83px;}.cls-16{stroke-width:2.19px;}.cls-17{opacity:0.3;}.cls-18{stroke-width:1.03px;}.cls-20{stroke-width:1.48px;}.cls-21{stroke-width:1.4px;}.cls-22{stroke-width:1.55px;}.cls-23,.cls-27{stroke-width:1.61px;}.cls-24{stroke-width:1.8px;}.cls-25{stroke-width:1px;}.cls-26{stroke-width:0.88px;}.cls-28{stroke-width:1.13px;}.cls-29{stroke-width:0.84px;}.cls-30{stroke-width:1.01px;}.cls-31{stroke-width:1.04px;}.cls-32{stroke-width:1.05px;}.cls-33{stroke-width:2.36px;}.cls-34{stroke-width:2.35px;}.cls-35{stroke-width:2.76px;}.cls-36{stroke-width:1.81px;}.cls-37{stroke-width:1.76px;}.cls-38{stroke-width:2.16px;}</style></defs><title>hex-bg</title><g class="cls-1"><path class="cls-2" d="M1302.31,549a4.27,4.27,0,1,0,5.85,1.5A4.27,4.27,0,0,0,1302.31,549Z"/><path class="cls-2" d="M1301.73,705a4.27,4.27,0,1,0,4.23-4.31A4.27,4.27,0,0,0,1301.73,705Z"/><path class="cls-2" d="M1436.56,783.53a4.27,4.27,0,1,0-1.62-5.82A4.27,4.27,0,0,0,1436.56,783.53Z"/><path class="cls-2" d="M1572,706a4.27,4.27,0,1,0-5.85-1.5A4.26,4.26,0,0,0,1572,706Z"/><path class="cls-2" d="M1572.55,550a4.27,4.27,0,1,0-4.23,4.31A4.25,4.25,0,0,0,1572.55,550Z"/><path class="cls-2" d="M1437.72,471.49a4.27,4.27,0,1,0,1.62,5.81A4.26,4.26,0,0,0,1437.72,471.49Z"/><path class="cls-2" d="M1322.78,495.16a3.51,3.51,0,1,0,4.82,1.24A3.51,3.51,0,0,0,1322.78,495.16Z"/><path class="cls-2" d="M1322.3,623.67a3.52,3.52,0,1,0,3.48-3.55A3.52,3.52,0,0,0,1322.3,623.67Z"/><path class="cls-2" d="M1433.35,688.34a3.52,3.52,0,1,0-1.33-4.79A3.52,3.52,0,0,0,1433.35,688.34Z"/><path class="cls-2" d="M1544.88,624.5a3.51,3.51,0,1,0-4.81-1.24A3.52,3.52,0,0,0,1544.88,624.5Z"/><path class="cls-2" d="M1545.36,496a3.52,3.52,0,1,0-3.48,3.55A3.52,3.52,0,0,0,1545.36,496Z"/><path class="cls-2" d="M1434.31,431.32a3.52,3.52,0,1,0,1.34,4.79A3.52,3.52,0,0,0,1434.31,431.32Z"/><path class="cls-2" d="M1124.09,396.65a2.13,2.13,0,1,0,2.92.75A2.13,2.13,0,0,0,1124.09,396.65Z"/><path class="cls-2" d="M1123.8,474.58a2.13,2.13,0,1,0,2.11-2.16A2.13,2.13,0,0,0,1123.8,474.58Z"/><path class="cls-2" d="M1191.13,513.79a2.13,2.13,0,1,0-.8-2.9A2.13,2.13,0,0,0,1191.13,513.79Z"/><path class="cls-2" d="M1258.76,475.08a2.13,2.13,0,1,0-2.92-.75A2.14,2.14,0,0,0,1258.76,475.08Z"/><path class="cls-2" d="M1259.06,397.16a2.14,2.14,0,1,0-2.11,2.15A2.13,2.13,0,0,0,1259.06,397.16Z"/><path class="cls-2" d="M1191.72,357.94a2.14,2.14,0,1,0,.81,2.91A2.14,2.14,0,0,0,1191.72,357.94Z"/><path class="cls-2" d="M1655.29,191a3,3,0,1,0,4.15,1.06A3,3,0,0,0,1655.29,191Z"/><path class="cls-2" d="M1654.87,301.89a3,3,0,1,0,3-3.06A3,3,0,0,0,1654.87,301.89Z"/><path class="cls-2" d="M1750.75,357.73a3,3,0,1,0-1.15-4.14A3,3,0,0,0,1750.75,357.73Z"/><path class="cls-2" d="M1847,302.61a3,3,0,1,0-4.16-1.07A3,3,0,0,0,1847,302.61Z"/><path class="cls-2" d="M1847.46,191.66a3,3,0,1,0-3,3.07A3,3,0,0,0,1847.46,191.66Z"/><path class="cls-2" d="M1751.58,135.83a3,3,0,1,0,1.15,4.13A3,3,0,0,0,1751.58,135.83Z"/><path class="cls-2" d="M1111.75,587.3a2.33,2.33,0,1,0,3.19.82A2.33,2.33,0,0,0,1111.75,587.3Z"/><path class="cls-2" d="M1111.43,672.51a2.33,2.33,0,1,0,2.3-2.35A2.33,2.33,0,0,0,1111.43,672.51Z"/><path class="cls-2" d="M1185.06,715.4a2.33,2.33,0,1,0-.88-3.18A2.34,2.34,0,0,0,1185.06,715.4Z"/><path class="cls-2" d="M1259,673.07a2.33,2.33,0,1,0-3.19-.83A2.33,2.33,0,0,0,1259,673.07Z"/><path class="cls-2" d="M1259.34,587.85a2.33,2.33,0,1,0-2.31,2.36A2.33,2.33,0,0,0,1259.34,587.85Z"/><path class="cls-2" d="M1185.7,545a2.33,2.33,0,1,0,.89,3.17A2.33,2.33,0,0,0,1185.7,545Z"/><path class="cls-2" d="M1467.5,510.45a5.25,5.25,0,1,0,7.39-.63A5.26,5.26,0,0,0,1467.5,510.45Z"/><path class="cls-2" d="M1530.36,691.44a5.24,5.24,0,1,0,3.14-6.71A5.23,5.23,0,0,0,1530.36,691.44Z"/><path class="cls-2" d="M1718.52,727.5a5.24,5.24,0,1,0-4.24-6.07A5.24,5.24,0,0,0,1718.52,727.5Z"/><path class="cls-2" d="M1843.84,582.58a5.25,5.25,0,1,0-7.39.64A5.26,5.26,0,0,0,1843.84,582.58Z"/><path class="cls-2" d="M1781,401.59a5.24,5.24,0,1,0-3.14,6.71A5.25,5.25,0,0,0,1781,401.59Z"/><path class="cls-2" d="M1592.82,365.53a5.24,5.24,0,1,0,4.24,6.07A5.24,5.24,0,0,0,1592.82,365.53Z"/><path class="cls-2" d="M536,1033.19a4.69,4.69,0,1,0-6.42-1.66A4.71,4.71,0,0,0,536,1033.19Z"/><path class="cls-2" d="M536.64,861.7a4.69,4.69,0,1,0-4.64,4.73A4.69,4.69,0,0,0,536.64,861.7Z"/><path class="cls-2" d="M388.45,775.4a4.69,4.69,0,1,0,1.78,6.39A4.68,4.68,0,0,0,388.45,775.4Z"/><path class="cls-2" d="M239.62,860.59a4.69,4.69,0,1,0,6.42,1.65A4.68,4.68,0,0,0,239.62,860.59Z"/><path class="cls-2" d="M239,1032.08a4.7,4.7,0,1,0,4.65-4.74A4.69,4.69,0,0,0,239,1032.08Z"/><path class="cls-2" d="M387.17,1118.38a4.69,4.69,0,1,0-1.78-6.4A4.69,4.69,0,0,0,387.17,1118.38Z"/><path class="cls-2" d="M371.74,813.73a3.95,3.95,0,1,0-5.41-1.39A3.95,3.95,0,0,0,371.74,813.73Z"/><path class="cls-2" d="M372.28,669.41a3.95,3.95,0,1,0-3.91,4A4,4,0,0,0,372.28,669.41Z"/><path class="cls-2" d="M247.57,596.79a3.94,3.94,0,1,0,1.5,5.37A3.95,3.95,0,0,0,247.57,596.79Z"/><path class="cls-2" d="M122.31,668.48a3.95,3.95,0,1,0,5.41,1.39A3.95,3.95,0,0,0,122.31,668.48Z"/><path class="cls-2" d="M121.77,812.8a4,4,0,1,0,3.91-4A3.94,3.94,0,0,0,121.77,812.8Z"/><path class="cls-2" d="M246.49,885.42A3.94,3.94,0,1,0,245,880,4,4,0,0,0,246.49,885.42Z"/><path class="cls-2" d="M374.59,759.86a3.51,3.51,0,1,0-4.81-1.24A3.51,3.51,0,0,0,374.59,759.86Z"/><path class="cls-2" d="M375.07,631.49A3.51,3.51,0,1,0,371.6,635,3.51,3.51,0,0,0,375.07,631.49Z"/><path class="cls-2" d="M264.14,566.89a3.51,3.51,0,1,0,1.33,4.78A3.5,3.5,0,0,0,264.14,566.89Z"/><path class="cls-2" d="M152.73,630.66a3.51,3.51,0,1,0,4.81,1.23A3.52,3.52,0,0,0,152.73,630.66Z"/><path class="cls-2" d="M152.25,759a3.51,3.51,0,1,0,3.48-3.55A3.51,3.51,0,0,0,152.25,759Z"/><path class="cls-2" d="M263.18,823.63a3.51,3.51,0,1,0-1.33-4.79A3.52,3.52,0,0,0,263.18,823.63Z"/><path class="cls-2" d="M259,606.28a1.54,1.54,0,1,0-2.1-.54A1.54,1.54,0,0,0,259,606.28Z"/><path class="cls-2" d="M259.23,550a1.54,1.54,0,1,0-1.52,1.56A1.53,1.53,0,0,0,259.23,550Z"/><path class="cls-2" d="M210.61,521.69a1.54,1.54,0,0,0-2.1.59,1.54,1.54,0,1,0,2.1-.59Z"/><path class="cls-2" d="M161.77,549.65a1.54,1.54,0,0,0,1.56,2.65,1.54,1.54,0,1,0-1.56-2.65Z"/><path class="cls-2" d="M161.56,605.92a1.54,1.54,0,0,0,3.08,0,1.54,1.54,0,1,0-3.08,0Z"/><path class="cls-2" d="M210.19,634.24a1.54,1.54,0,1,0-.59-2.1A1.54,1.54,0,0,0,210.19,634.24Z"/><path class="cls-2" d="M743.48,688.85a3.91,3.91,0,1,0-5.35-1.38A3.91,3.91,0,0,0,743.48,688.85Z"/><path class="cls-2" d="M744,546.13a3.9,3.9,0,1,0-3.86,3.94A3.89,3.89,0,0,0,744,546.13Z"/><path class="cls-2" d="M620.69,474.31a3.9,3.9,0,1,0,1.48,5.32A3.91,3.91,0,0,0,620.69,474.31Z"/><path class="cls-2" d="M496.82,545.21a3.91,3.91,0,1,0,5.35,1.37A3.9,3.9,0,0,0,496.82,545.21Z"/><path class="cls-2" d="M496.29,687.92a3.91,3.91,0,1,0,3.87-3.94A3.91,3.91,0,0,0,496.29,687.92Z"/><path class="cls-2" d="M619.62,759.74a3.9,3.9,0,1,0-1.48-5.32A3.9,3.9,0,0,0,619.62,759.74Z"/><path class="cls-2" d="M799.58,886.93a5.89,5.89,0,1,0-8.06-2.08A5.9,5.9,0,0,0,799.58,886.93Z"/><path class="cls-2" d="M800.39,671.66a5.89,5.89,0,1,0-5.83,6A5.89,5.89,0,0,0,800.39,671.66Z"/><path class="cls-2" d="M614.37,563.33a5.89,5.89,0,1,0,2.23,8A5.89,5.89,0,0,0,614.37,563.33Z"/><path class="cls-2" d="M427.54,670.27a5.89,5.89,0,1,0,8.06,2.07A5.89,5.89,0,0,0,427.54,670.27Z"/><path class="cls-2" d="M426.73,885.53a5.89,5.89,0,1,0,5.83-5.95A5.9,5.9,0,0,0,426.73,885.53Z"/><path class="cls-2" d="M612.76,993.86a5.89,5.89,0,1,0-2.24-8A5.88,5.88,0,0,0,612.76,993.86Z"/><path class="cls-2" d="M1001.6,734.52a1.4,1.4,0,1,0-1.91-.5A1.41,1.41,0,0,0,1001.6,734.52Z"/><path class="cls-2" d="M1001.8,683.28a1.41,1.41,0,1,0-1.39,1.42A1.41,1.41,0,0,0,1001.8,683.28Z"/><path class="cls-2" d="M957.52,657.5a1.4,1.4,0,1,0,.53,1.91A1.4,1.4,0,0,0,957.52,657.5Z"/><path class="cls-2" d="M913.05,683a1.4,1.4,0,1,0,1.43,2.41,1.4,1.4,0,0,0-1.43-2.41Z"/><path class="cls-2" d="M912.86,734.18a1.41,1.41,0,1,0,1.39-1.41A1.4,1.4,0,0,0,912.86,734.18Z"/><path class="cls-2" d="M957.14,760a1.4,1.4,0,1,0-.53-1.91A1.4,1.4,0,0,0,957.14,760Z"/><path class="cls-2" d="M921.21,670.22a1.33,1.33,0,0,0,.47-1.82,1.35,1.35,0,0,0-1.83-.47,1.33,1.33,0,1,0,1.36,2.29Z"/><path class="cls-2" d="M921.39,621.51a1.34,1.34,0,1,0-1.32,1.35A1.33,1.33,0,0,0,921.39,621.51Z"/><path class="cls-2" d="M879.29,597a1.33,1.33,0,0,0-1.31,2.32,1.33,1.33,0,1,0,1.31-2.32Z"/><path class="cls-2" d="M837,621.19a1.34,1.34,0,1,0,1.83.47A1.35,1.35,0,0,0,837,621.19Z"/><path class="cls-2" d="M836.83,669.91a1.34,1.34,0,1,0,1.32-1.35A1.34,1.34,0,0,0,836.83,669.91Z"/><path class="cls-2" d="M878.93,694.42a1.32,1.32,0,0,0,1.81-.5,1.33,1.33,0,1,0-1.81.5Z"/><path class="cls-2" d="M1157.72,595a3.44,3.44,0,1,1-4.68,1.31A3.44,3.44,0,0,1,1157.72,595Z"/><path class="cls-2" d="M1160.69,720.69a3.44,3.44,0,1,1-3.47-3.41A3.44,3.44,0,0,1,1160.69,720.69Z"/><path class="cls-2" d="M1053.35,786.09a3.44,3.44,0,1,1,1.21-4.71A3.45,3.45,0,0,1,1053.35,786.09Z"/><path class="cls-2" d="M943,725.83a3.44,3.44,0,1,1,4.69-1.31A3.44,3.44,0,0,1,943,725.83Z"/><path class="cls-2" d="M940.06,600.16a3.44,3.44,0,1,1,3.48,3.41A3.45,3.45,0,0,1,940.06,600.16Z"/><path class="cls-2" d="M1047.41,534.76a3.44,3.44,0,1,1-1.21,4.71A3.44,3.44,0,0,1,1047.41,534.76Z"/><path class="cls-2" d="M1520.93,254.7a1.74,1.74,0,1,1-2.37.66A1.74,1.74,0,0,1,1520.93,254.7Z"/><path class="cls-2" d="M1522.43,318.35a1.74,1.74,0,1,1-1.76-1.72A1.74,1.74,0,0,1,1522.43,318.35Z"/><path class="cls-2" d="M1468.06,351.48a1.74,1.74,0,1,1,.61-2.38A1.74,1.74,0,0,1,1468.06,351.48Z"/><path class="cls-2" d="M1412.18,321a1.74,1.74,0,1,1,2.37-.67A1.75,1.75,0,0,1,1412.18,321Z"/><path class="cls-2" d="M1410.68,257.3a1.74,1.74,0,1,1,1.75,1.72A1.74,1.74,0,0,1,1410.68,257.3Z"/><path class="cls-2" d="M1465.05,224.17a1.74,1.74,0,1,1-.61,2.38A1.74,1.74,0,0,1,1465.05,224.17Z"/><path class="cls-2" d="M472.77,1078.11a2.33,2.33,0,1,0-3.19-.82A2.33,2.33,0,0,0,472.77,1078.11Z"/><path class="cls-2" d="M473.09,992.91a2.33,2.33,0,1,0-2.3,2.35A2.33,2.33,0,0,0,473.09,992.91Z"/><path class="cls-2" d="M399.47,950a2.33,2.33,0,1,0,.88,3.17A2.33,2.33,0,0,0,399.47,950Z"/><path class="cls-2" d="M325.52,992.36a2.33,2.33,0,1,0,3.19.82A2.33,2.33,0,0,0,325.52,992.36Z"/><path class="cls-2" d="M325.2,1077.56a2.33,2.33,0,1,0,4.66,0,2.33,2.33,0,0,0-4.66,0Z"/><path class="cls-2" d="M398.83,1120.43a2.33,2.33,0,1,0-.89-3.17A2.32,2.32,0,0,0,398.83,1120.43Z"/><path class="cls-2" d="M881,672.71a2.33,2.33,0,1,0-3.19-.82A2.33,2.33,0,0,0,881,672.71Z"/><path class="cls-2" d="M881.35,587.55a2.33,2.33,0,1,0-2.31,2.36A2.33,2.33,0,0,0,881.35,587.55Z"/><path class="cls-2" d="M807.76,544.7a2.33,2.33,0,1,0,.88,3.17A2.33,2.33,0,0,0,807.76,544.7Z"/><path class="cls-2" d="M733.85,587a2.33,2.33,0,1,0,3.2.82A2.34,2.34,0,0,0,733.85,587Z"/><path class="cls-2" d="M733.54,672.16a2.33,2.33,0,1,0,2.3-2.36A2.32,2.32,0,0,0,733.54,672.16Z"/><path class="cls-2" d="M807.12,715a2.33,2.33,0,1,0-.88-3.17A2.34,2.34,0,0,0,807.12,715Z"/></g><path class="cls-2" d="M1440.2,388a9.06,9.06,0,1,0,12.4,3.19A9.05,9.05,0,0,0,1440.2,388Z"/><path class="cls-2" d="M1436.42,599.65a10.41,10.41,0,1,0,10.31-10.52A10.41,10.41,0,0,0,1436.42,599.65Z"/><path class="cls-2" d="M1619.47,708.17a9.78,9.78,0,1,0-3.71-13.32A9.77,9.77,0,0,0,1619.47,708.17Z"/><path class="cls-2" d="M1803.1,601.78a6.67,6.67,0,1,0-9.14-2.35A6.68,6.68,0,0,0,1803.1,601.78Z"/><path class="cls-2" d="M1806.75,392.21a9.07,9.07,0,1,0-9,9.16A9.07,9.07,0,0,0,1806.75,392.21Z"/><path class="cls-2" d="M1625.1,283.55a9.92,9.92,0,1,0,3.77,13.51A9.91,9.91,0,0,0,1625.1,283.55Z"/><path class="cls-2" d="M1687.7,32.64a3.09,3.09,0,1,0,4.23,1.09A3.1,3.1,0,0,0,1687.7,32.64Z"/><circle class="cls-2" cx="1689.92" cy="100.34" r="2"/><path class="cls-2" d="M1744.94,135.19a3.31,3.31,0,1,0-1.26-4.51A3.31,3.31,0,0,0,1744.94,135.19Z"/><path class="cls-2" d="M1803.82,101.33a2.45,2.45,0,1,0-3.35-.86A2.45,2.45,0,0,0,1803.82,101.33Z"/><path class="cls-2" d="M1804.8,34.16a2.88,2.88,0,1,0-2.84,2.9A2.87,2.87,0,0,0,1804.8,34.16Z"/><path class="cls-2" d="M1746.37.29a2.22,2.22,0,1,0,.84,3A2.22,2.22,0,0,0,1746.37.29Z"/><path class="cls-2" d="M1619.84,135a4.12,4.12,0,1,0,5.64,1.45A4.12,4.12,0,0,0,1619.84,135Z"/><path class="cls-2" d="M1617.06,253.73a6,6,0,1,0,6-6.08A6,6,0,0,0,1617.06,253.73Z"/><path class="cls-2" d="M1720.83,314.72a5.14,5.14,0,1,0-1.95-7A5.15,5.15,0,0,0,1720.83,314.72Z"/><path class="cls-2" d="M1824.77,255.55a4.49,4.49,0,1,0-6.15-1.58A4.49,4.49,0,0,0,1824.77,255.55Z"/><path class="cls-2" d="M1827.64,136.49a6.3,6.3,0,1,0-6.24,6.36A6.31,6.31,0,0,0,1827.64,136.49Z"/><path class="cls-2" d="M1724.11,74.58a6.2,6.2,0,1,0,2.36,8.45A6.21,6.21,0,0,0,1724.11,74.58Z"/><path class="cls-2" d="M1417.12,579.24a3.25,3.25,0,1,0,4.45,1.15A3.25,3.25,0,0,0,1417.12,579.24Z"/><path class="cls-2" d="M1415.79,675.42a3.91,3.91,0,1,0,3.87-3.94A3.91,3.91,0,0,0,1415.79,675.42Z"/><path class="cls-2" d="M1498.46,725.76a5.17,5.17,0,1,0-2-7A5.18,5.18,0,0,0,1498.46,725.76Z"/><path class="cls-2" d="M1583.32,677.07a3.83,3.83,0,1,0-5.24-1.35A3.83,3.83,0,0,0,1583.32,677.07Z"/><path class="cls-2" d="M1584.94,580.39a4.5,4.5,0,1,0-4.45,4.54A4.49,4.49,0,0,0,1584.94,580.39Z"/><path class="cls-2" d="M1500.94,531.39a3.65,3.65,0,1,0,1.38,5A3.65,3.65,0,0,0,1500.94,531.39Z"/><path class="cls-2" d="M1344,354a7.28,7.28,0,1,0,10,2.57A7.29,7.29,0,0,0,1344,354Z"/><path class="cls-2" d="M1341.47,507.71a7.74,7.74,0,1,0,7.66-7.82A7.74,7.74,0,0,0,1341.47,507.71Z"/><path class="cls-2" d="M1475.26,584.05a4.62,4.62,0,1,0-1.76-6.3A4.62,4.62,0,0,0,1475.26,584.05Z"/><path class="cls-2" d="M1606.64,508.9a4.42,4.42,0,1,0-6.06-1.56A4.43,4.43,0,0,0,1606.64,508.9Z"/><path class="cls-2" d="M1607.77,357.72a4.85,4.85,0,1,0-4.8,4.9A4.84,4.84,0,0,0,1607.77,357.72Z"/><path class="cls-2" d="M1476.89,281.31a4.66,4.66,0,1,0,1.78,6.35A4.65,4.65,0,0,0,1476.89,281.31Z"/><path class="cls-2" d="M1231.75,315.26a3.66,3.66,0,1,0,5,1.29A3.67,3.67,0,0,0,1231.75,315.26Z"/><path class="cls-2" d="M1230.83,411.8a3.71,3.71,0,1,0,3.67-3.75A3.71,3.71,0,0,0,1230.83,411.8Z"/><path class="cls-2" d="M1314,461a3.83,3.83,0,1,0-1.46-5.21A3.83,3.83,0,0,0,1314,461Z"/><path class="cls-2" d="M1397.72,412.7a3,3,0,1,0-4-1A3,3,0,0,0,1397.72,412.7Z"/><path class="cls-2" d="M1399.09,316.77a3.8,3.8,0,1,0-3.77,3.84A3.8,3.8,0,0,0,1399.09,316.77Z"/><path class="cls-2" d="M1316.23,267a4.57,4.57,0,1,0,1.74,6.23A4.57,4.57,0,0,0,1316.23,267Z"/><path class="cls-2" d="M1171.13,465.15a1.82,1.82,0,1,0,2.49.64A1.82,1.82,0,0,0,1171.13,465.15Z"/><path class="cls-2" d="M1170.76,525.44a1.88,1.88,0,1,0,1.86-1.9A1.88,1.88,0,0,0,1170.76,525.44Z"/><path class="cls-2" d="M1222.78,556a2,2,0,1,0-.76-2.74A2,2,0,0,0,1222.78,556Z"/><path class="cls-2" d="M1275.64,526.66a2.61,2.61,0,1,0-3.56-.92A2.61,2.61,0,0,0,1275.64,526.66Z"/><path class="cls-2" d="M1275.67,465.69a1.94,1.94,0,1,0-1.92,2A1.93,1.93,0,0,0,1275.67,465.69Z"/><path class="cls-2" d="M1223.85,434.64a2.55,2.55,0,1,0,1,3.47A2.54,2.54,0,0,0,1223.85,434.64Z"/><path class="cls-2" d="M1154.62,376.14a2.26,2.26,0,1,0,3.1.8A2.27,2.27,0,0,0,1154.62,376.14Z"/><path class="cls-2" d="M1153.4,441.79a3,3,0,1,0,3-3A3,3,0,0,0,1153.4,441.79Z"/><path class="cls-2" d="M1210.59,475.28a2.57,2.57,0,1,0-1-3.5A2.57,2.57,0,0,0,1210.59,475.28Z"/><path class="cls-2" d="M1268.21,443.26a3,3,0,1,0-4.13-1.06A3,3,0,0,0,1268.21,443.26Z"/><path class="cls-2" d="M1269,377a3,3,0,1,0-3,3A3,3,0,0,0,1269,377Z"/><path class="cls-2" d="M1212.27,342.73a3.42,3.42,0,1,0,1.3,4.65A3.4,3.4,0,0,0,1212.27,342.73Z"/><path class="cls-2" d="M1784.28,157.21a3.77,3.77,0,1,0,5.18,1.33A3.77,3.77,0,0,0,1784.28,157.21Z"/><path class="cls-2" d="M1784.61,235a2.34,2.34,0,1,0,2.31-2.36A2.34,2.34,0,0,0,1784.61,235Z"/><path class="cls-2" d="M1850.06,274.65a3.57,3.57,0,1,0-1.36-4.87A3.56,3.56,0,0,0,1850.06,274.65Z"/><path class="cls-2" d="M1918,237.15a4.06,4.06,0,1,0-5.56-1.43A4.08,4.08,0,0,0,1918,237.15Z"/><path class="cls-2" d="M1918,159.15a2.76,2.76,0,1,0-2.73,2.78A2.76,2.76,0,0,0,1918,159.15Z"/><path class="cls-2" d="M1851.37,120.74a2.11,2.11,0,1,0,.8,2.88A2.11,2.11,0,0,0,1851.37,120.74Z"/><path class="cls-2" d="M1038.29,650.89a3.39,3.39,0,1,0,4.64,1.2A3.39,3.39,0,0,0,1038.29,650.89Z"/><path class="cls-2" d="M1037.25,757.14a3.79,3.79,0,1,0,3.75-3.83A3.79,3.79,0,0,0,1037.25,757.14Z"/><path class="cls-2" d="M1129.18,811.1a3.72,3.72,0,1,0-1.41-5.07A3.72,3.72,0,0,0,1129.18,811.1Z"/><path class="cls-2" d="M1221.46,757.89a3,3,0,1,0-4.07-1A3,3,0,0,0,1221.46,757.89Z"/><path class="cls-2" d="M1224,652a5.07,5.07,0,1,0-5,5.12A5.08,5.08,0,0,0,1224,652Z"/><path class="cls-2" d="M1131.66,596.47a5.52,5.52,0,1,0,2.1,7.51A5.51,5.51,0,0,0,1131.66,596.47Z"/><path class="cls-2" d="M1220.86,524.65a5.24,5.24,0,1,0,7.17,1.85A5.24,5.24,0,0,0,1220.86,524.65Z"/><path class="cls-2" d="M1220.44,633.59a4.12,4.12,0,1,0,4.08-4.15A4.13,4.13,0,0,0,1220.44,633.59Z"/><path class="cls-2" d="M1313.41,688.52a4.22,4.22,0,1,0-1.6-5.75A4.22,4.22,0,0,0,1313.41,688.52Z"/><path class="cls-2" d="M1407.43,635.25a4.06,4.06,0,1,0-5.56-1.43A4.06,4.06,0,0,0,1407.43,635.25Z"/><path class="cls-2" d="M1407.73,527.33a3.4,3.4,0,1,0-3.37,3.43A3.4,3.4,0,0,0,1407.73,527.33Z"/><path class="cls-2" d="M1315.69,472a4.64,4.64,0,1,0,1.76,6.32A4.64,4.64,0,0,0,1315.69,472Z"/><path class="cls-2" d="M1189.83,591.24a2.15,2.15,0,1,0,3,.76A2.15,2.15,0,0,0,1189.83,591.24Z"/><path class="cls-2" d="M1188.89,654a2.64,2.64,0,1,0,2.61-2.67A2.65,2.65,0,0,0,1188.89,654Z"/><path class="cls-2" d="M1243.19,686.23a2.73,2.73,0,1,0-1-3.72A2.74,2.74,0,0,0,1243.19,686.23Z"/><path class="cls-2" d="M1297.88,654.51a1.87,1.87,0,1,0-2.57-.66A1.87,1.87,0,0,0,1297.88,654.51Z"/><path class="cls-2" d="M1298.56,592a2.24,2.24,0,1,0-2.22,2.26A2.24,2.24,0,0,0,1298.56,592Z"/><path class="cls-2" d="M1244.34,560.35a2.07,2.07,0,1,0,.78,2.81A2.07,2.07,0,0,0,1244.34,560.35Z"/><path class="cls-2" d="M1650.23,287.8a4.62,4.62,0,1,0,6.33,1.63A4.62,4.62,0,0,0,1650.23,287.8Z"/><path class="cls-2" d="M1650.56,394.06a3,3,0,1,0,3-3.06A3,3,0,0,0,1650.56,394.06Z"/><path class="cls-2" d="M1740.56,448a4.27,4.27,0,1,0-1.62-5.82A4.27,4.27,0,0,0,1740.56,448Z"/><path class="cls-2" d="M1833.06,396.26a4.64,4.64,0,1,0-6.35-1.63A4.64,4.64,0,0,0,1833.06,396.26Z"/><path class="cls-2" d="M1833.66,290a4,4,0,1,0-3.94,4A4,4,0,0,0,1833.66,290Z"/><path class="cls-2" d="M1742,237.27a2.87,2.87,0,1,0,1.09,3.91A2.87,2.87,0,0,0,1742,237.27Z"/><path class="cls-2" d="M1635.31,521.51a6.44,6.44,0,1,0,8.82,2.27A6.44,6.44,0,0,0,1635.31,521.51Z"/><path class="cls-2" d="M1633.18,652.28a6.65,6.65,0,1,0,6.58-6.72A6.64,6.64,0,0,0,1633.18,652.28Z"/><path class="cls-2" d="M1745.73,719.23a6.33,6.33,0,1,0-2.4-8.63A6.33,6.33,0,0,0,1745.73,719.23Z"/><path class="cls-2" d="M1859,654.15a4.76,4.76,0,1,0-6.52-1.68A4.75,4.75,0,0,0,1859,654.15Z"/><path class="cls-2" d="M1861.9,524.83a6.54,6.54,0,1,0-6.47,6.61A6.53,6.53,0,0,0,1861.9,524.83Z"/><path class="cls-2" d="M1749.18,458.39a5.75,5.75,0,1,0,2.18,7.83A5.75,5.75,0,0,0,1749.18,458.39Z"/><path class="cls-2" d="M601.67,873.71a4.58,4.58,0,1,0-6.27-1.61A4.58,4.58,0,0,0,601.67,873.71Z"/><path class="cls-2" d="M603.09,734.75a5.09,5.09,0,1,0-5,5.14A5.08,5.08,0,0,0,603.09,734.75Z"/><path class="cls-2" d="M483.82,662.5a6.87,6.87,0,1,0,2.61,9.36A6.88,6.88,0,0,0,483.82,662.5Z"/><path class="cls-2" d="M362.19,733.67a4,4,0,1,0,5.5,1.42A4,4,0,0,0,362.19,733.67Z"/><path class="cls-2" d="M359.46,872.15a6.12,6.12,0,1,0,6.05-6.17A6.12,6.12,0,0,0,359.46,872.15Z"/><path class="cls-2" d="M480.17,943.65a6,6,0,1,0-2.28-8.19A6,6,0,0,0,480.17,943.65Z"/><path class="cls-2" d="M423.22,1021.59a2.9,2.9,0,1,0-4-1A2.9,2.9,0,0,0,423.22,1021.59Z"/><path class="cls-2" d="M425.29,934.61A4.39,4.39,0,1,0,421,939,4.39,4.39,0,0,0,425.29,934.61Z"/><path class="cls-2" d="M349.09,890.09a3.52,3.52,0,1,0,1.34,4.8A3.53,3.53,0,0,0,349.09,890.09Z"/><path class="cls-2" d="M273.23,933.71a2.79,2.79,0,1,0,3.82,1A2.78,2.78,0,0,0,273.23,933.71Z"/><path class="cls-2" d="M271.45,1020.59a4,4,0,1,0,4-4.08A4,4,0,0,0,271.45,1020.59Z"/><path class="cls-2" d="M347.65,1064.5a2.82,2.82,0,1,0-1.07-3.84A2.81,2.81,0,0,0,347.65,1064.5Z"/><path class="cls-2" d="M244.21,1037.13a6.64,6.64,0,1,0-9.09-2.34A6.63,6.63,0,0,0,244.21,1037.13Z"/><path class="cls-2" d="M245.22,897.39a5.72,5.72,0,1,0-5.66,5.78A5.71,5.71,0,0,0,245.22,897.39Z"/><path class="cls-2" d="M125.39,827.06a5.23,5.23,0,1,0,2,7.13A5.23,5.23,0,0,0,125.39,827.06Z"/><path class="cls-2" d="M3.67,893.33A7.46,7.46,0,1,0,13.9,896,7.46,7.46,0,0,0,3.67,893.33Z"/><path class="cls-2" d="M3.92,1033.77a4.88,4.88,0,1,0,4.83-4.93A4.87,4.87,0,0,0,3.92,1033.77Z"/><path class="cls-2" d="M122.26,1105.26a6.56,6.56,0,1,0-2.48-8.93A6.56,6.56,0,0,0,122.26,1105.26Z"/><path class="cls-2" d="M279.54,794.86a4.21,4.21,0,1,0-5.76-1.49A4.21,4.21,0,0,0,279.54,794.86Z"/><path class="cls-2" d="M280.79,711.27a4.18,4.18,0,1,0-4.14,4.21A4.19,4.19,0,0,0,280.79,711.27Z"/><path class="cls-2" d="M208.43,669.49a2.92,2.92,0,1,0,1.11,4A2.93,2.93,0,0,0,208.43,669.49Z"/><path class="cls-2" d="M136,709a4.23,4.23,0,1,0,5.79,1.49A4.23,4.23,0,0,0,136,709Z"/><path class="cls-2" d="M136.42,792.63a2.55,2.55,0,1,0,2.53-2.57A2.55,2.55,0,0,0,136.42,792.63Z"/><path class="cls-2" d="M206.46,835.64a4.32,4.32,0,1,0-1.63-5.88A4.32,4.32,0,0,0,206.46,835.64Z"/><path class="cls-2" d="M260.17,721.59a1.7,1.7,0,1,0-2.33-.6A1.72,1.72,0,0,0,260.17,721.59Z"/><path class="cls-2" d="M261.54,662.84a2.81,2.81,0,1,0-2.78,2.83A2.81,2.81,0,0,0,261.54,662.84Z"/><path class="cls-2" d="M209.86,633a2,2,0,1,0,.77,2.76A2,2,0,0,0,209.86,633Z"/><path class="cls-2" d="M158.07,661.32a2.94,2.94,0,1,0,4,1A2.94,2.94,0,0,0,158.07,661.32Z"/><path class="cls-2" d="M157.81,721.14a2.33,2.33,0,1,0,2.3-2.35A2.32,2.32,0,0,0,157.81,721.14Z"/><path class="cls-2" d="M208.76,751.44a2.52,2.52,0,1,0-.95-3.43A2.52,2.52,0,0,0,208.76,751.44Z"/><path class="cls-2" d="M208,591.88a2.4,2.4,0,1,0-3.28-.85A2.41,2.41,0,0,0,208,591.88Z"/><path class="cls-2" d="M208.22,532.54a2,2,0,1,0-2,2A2,2,0,0,0,208.22,532.54Z"/><path class="cls-2" d="M157.6,502.26a2.49,2.49,0,1,0,.94,3.38A2.49,2.49,0,0,0,157.6,502.26Z"/><path class="cls-2" d="M105.89,531.53a2.34,2.34,0,1,0,3.2.82A2.33,2.33,0,0,0,105.89,531.53Z"/><path class="cls-2" d="M105.45,590.82a2.2,2.2,0,1,0,2.17-2.22A2.2,2.2,0,0,0,105.45,590.82Z"/><path class="cls-2" d="M156.71,620.35a1.63,1.63,0,0,0,2.22-.62,1.63,1.63,0,1,0-2.22.62Z"/><path class="cls-2" d="M601.53,1107.84a4.6,4.6,0,1,0-6.29-1.62A4.61,4.61,0,0,0,601.53,1107.84Z"/><path class="cls-2" d="M602.47,1015.6a4.16,4.16,0,1,0-4.11,4.2A4.16,4.16,0,0,0,602.47,1015.6Z"/><path class="cls-2" d="M523.26,969.09a3.66,3.66,0,1,0,1.39,5A3.66,3.66,0,0,0,523.26,969.09Z"/><path class="cls-2" d="M443.52,1013.84a3.85,3.85,0,1,0,5.27,1.36A3.86,3.86,0,0,0,443.52,1013.84Z"/><path class="cls-2" d="M442.93,1105.43a3.43,3.43,0,1,0,3.39-3.45A3.43,3.43,0,0,0,442.93,1105.43Z"/><path class="cls-2" d="M521.08,1152.53a4.33,4.33,0,1,0-1.64-5.89A4.34,4.34,0,0,0,521.08,1152.53Z"/><path class="cls-2" d="M632.11,1046.5a2.37,2.37,0,1,0-3.24-.83A2.36,2.36,0,0,0,632.11,1046.5Z"/><path class="cls-2" d="M632.26,994.29a1.86,1.86,0,1,0-1.84,1.88A1.85,1.85,0,0,0,632.26,994.29Z"/><path class="cls-2" d="M587.57,968.17a1.72,1.72,0,1,0,.66,2.35A1.73,1.73,0,0,0,587.57,968.17Z"/><circle class="cls-2" cx="543.54" cy="995.18" r="2.1" transform="translate(-555.65 1273.72) rotate(-75.58)"/><path class="cls-2" d="M542.38,1045.34a1.67,1.67,0,1,0,1.65-1.68A1.66,1.66,0,0,0,542.38,1045.34Z"/><path class="cls-2" d="M586.38,1072.36a2.74,2.74,0,1,0-1-3.74A2.74,2.74,0,0,0,586.38,1072.36Z"/><path class="cls-2" d="M670,662.48a4.57,4.57,0,1,0-6.26-1.61A4.58,4.58,0,0,0,670,662.48Z"/><path class="cls-2" d="M671.78,566.7a5,5,0,1,0-4.95,5A5,5,0,0,0,671.78,566.7Z"/><path class="cls-2" d="M588.64,518.43a3.69,3.69,0,1,0,1.4,5A3.69,3.69,0,0,0,588.64,518.43Z"/><path class="cls-2" d="M506,565.25a3.58,3.58,0,1,0,4.9,1.26A3.57,3.57,0,0,0,506,565.25Z"/><path class="cls-2" d="M505.43,660.15a3.27,3.27,0,1,0,3.24-3.3A3.28,3.28,0,0,0,505.43,660.15Z"/><path class="cls-2" d="M587.05,708.06a3.26,3.26,0,1,0-1.24-4.44A3.25,3.25,0,0,0,587.05,708.06Z"/><path class="cls-2" d="M753.52,876.1a5.3,5.3,0,1,0-7.27-1.87A5.3,5.3,0,0,0,753.52,876.1Z"/><path class="cls-2" d="M758,714.07a8.79,8.79,0,1,0-8.7,8.87A8.79,8.79,0,0,0,758,714.07Z"/><path class="cls-2" d="M615.93,630.17a7.63,7.63,0,1,0,2.9,10.4A7.64,7.64,0,0,0,615.93,630.17Z"/><path class="cls-2" d="M473.1,710.84a7,7,0,1,0,9.6,2.46A7,7,0,0,0,473.1,710.84Z"/><path class="cls-2" d="M470.54,874.32a7.69,7.69,0,1,0,7.61-7.77A7.68,7.68,0,0,0,470.54,874.32Z"/><path class="cls-2" d="M612.71,956.18a5.28,5.28,0,1,0-2-7.2A5.28,5.28,0,0,0,612.71,956.18Z"/><path class="cls-2" d="M769.1,880.89a2.1,2.1,0,1,0-2.88-.74A2.1,2.1,0,0,0,769.1,880.89Z"/><path class="cls-2" d="M771,810.92a3.68,3.68,0,1,0-3.64,3.71A3.68,3.68,0,0,0,771,810.92Z"/><path class="cls-2" d="M709.41,775a2.85,2.85,0,1,0,1.08,3.88A2.84,2.84,0,0,0,709.41,775Z"/><path class="cls-2" d="M647.57,809.11a3.51,3.51,0,1,0,4.81,1.23A3.5,3.5,0,0,0,647.57,809.11Z"/><path class="cls-2" d="M647,880.28a3,3,0,1,0,3-3A3,3,0,0,0,647,880.28Z"/><path class="cls-2" d="M708.36,915.51a2.05,2.05,0,1,0-.77-2.79A2.05,2.05,0,0,0,708.36,915.51Z"/><path class="cls-2" d="M898.36,795.77a1.53,1.53,0,1,0-2.1-.54A1.54,1.54,0,0,0,898.36,795.77Z"/><path class="cls-2" d="M899.12,746.43a2,2,0,1,0-2,2A2,2,0,0,0,899.12,746.43Z"/><path class="cls-2" d="M856.58,720.57a2.63,2.63,0,1,0,1,3.58A2.64,2.64,0,0,0,856.58,720.57Z"/><path class="cls-2" d="M812.83,745.37a2.21,2.21,0,1,0,3,.78A2.22,2.22,0,0,0,812.83,745.37Z"/><path class="cls-2" d="M812.34,795.3a2.1,2.1,0,1,0,2.08-2.12A2.1,2.1,0,0,0,812.34,795.3Z"/><path class="cls-2" d="M855.5,820.19a1.52,1.52,0,1,0-.58-2.07A1.51,1.51,0,0,0,855.5,820.19Z"/><path class="cls-2" d="M978.61,731.27a1.93,1.93,0,1,0-2.64-.68A1.94,1.94,0,0,0,978.61,731.27Z"/><path class="cls-2" d="M978.42,694a1.14,1.14,0,1,0-1.13,1.15A1.14,1.14,0,0,0,978.42,694Z"/><path class="cls-2" d="M947,675.22a1.44,1.44,0,1,0,.55,2A1.44,1.44,0,0,0,947,675.22Z"/><path class="cls-2" d="M915,693.55a1.21,1.21,0,1,0,1.66.43A1.21,1.21,0,0,0,915,693.55Z"/><path class="cls-2" d="M914.62,730.23a1.31,1.31,0,1,0,1.29-1.32A1.31,1.31,0,0,0,914.62,730.23Z"/><path class="cls-2" d="M946.33,748.83a1.27,1.27,0,1,0-.48-1.73A1.27,1.27,0,0,0,946.33,748.83Z"/><path class="cls-2" d="M920,663.94a1.5,1.5,0,1,0-2-.53A1.5,1.5,0,0,0,920,663.94Z"/><path class="cls-2" d="M921.24,612.71a2.51,2.51,0,1,0-2.48,2.52A2.5,2.5,0,0,0,921.24,612.71Z"/><path class="cls-2" d="M876.6,585.82a2.73,2.73,0,1,0,1,3.72A2.73,2.73,0,0,0,876.6,585.82Z"/><path class="cls-2" d="M831.36,612.06a1.78,1.78,0,1,0,2.44.63A1.78,1.78,0,0,0,831.36,612.06Z"/><path class="cls-2" d="M831.26,663.53a1.51,1.51,0,1,0,1.49-1.53A1.5,1.5,0,0,0,831.26,663.53Z"/><path class="cls-2" d="M875.14,690a2.25,2.25,0,1,0-.85-3.06A2.26,2.26,0,0,0,875.14,690Z"/><path class="cls-2" d="M1047.2,577.47a1.76,1.76,0,1,1-2.39.67A1.77,1.77,0,0,1,1047.2,577.47Z"/><path class="cls-2" d="M1048.88,624.42a2.09,2.09,0,1,1-2.11-2.07A2.09,2.09,0,0,1,1048.88,624.42Z"/><path class="cls-2" d="M1008.8,649.49a2.25,2.25,0,1,1,.8-3.08A2.24,2.24,0,0,1,1008.8,649.49Z"/><path class="cls-2" d="M967,627.06a2.11,2.11,0,1,1,2.88-.8A2.11,2.11,0,0,1,967,627.06Z"/><path class="cls-2" d="M966.3,579.8a1.33,1.33,0,1,1,1.34,1.31A1.31,1.31,0,0,1,966.3,579.8Z"/><path class="cls-2" d="M1005.52,554.58a2.43,2.43,0,1,1-.86,3.33A2.43,2.43,0,0,1,1005.52,554.58Z"/><path class="cls-2" d="M1590,219.59a2.1,2.1,0,1,1-2.86.8A2.09,2.09,0,0,1,1590,219.59Z"/><path class="cls-2" d="M1591.26,266.85a1.81,1.81,0,1,1-1.82-1.8A1.81,1.81,0,0,1,1591.26,266.85Z"/><path class="cls-2" d="M1551.6,292.13a2.5,2.5,0,1,1,.88-3.42A2.51,2.51,0,0,1,1551.6,292.13Z"/><path class="cls-2" d="M1509.61,269.65a2.3,2.3,0,1,1,3.13-.87A2.31,2.31,0,0,1,1509.61,269.65Z"/><path class="cls-2" d="M1508,222.23a2.34,2.34,0,1,1,2.35,2.31A2.33,2.33,0,0,1,1508,222.23Z"/><path class="cls-2" d="M1548.74,197.94a1.34,1.34,0,1,1-.47,1.83A1.34,1.34,0,0,1,1548.74,197.94Z"/><path class="cls-2" d="M417.07,1103a3.16,3.16,0,1,0-4.33-1.11A3.17,3.17,0,0,0,417.07,1103Z"/><path class="cls-2" d="M417.58,1040.83a2.71,2.71,0,1,0-2.68,2.73A2.7,2.7,0,0,0,417.58,1040.83Z"/><path class="cls-2" d="M364,1010.19a1.69,1.69,0,1,0,.65,2.31A1.7,1.7,0,0,0,364,1010.19Z"/><path class="cls-2" d="M310.44,1039.25a3.05,3.05,0,1,0,4.18,1.07A3,3,0,0,0,310.44,1039.25Z"/><path class="cls-2" d="M309.77,1101.3a2.82,2.82,0,1,0,2.79-2.85A2.81,2.81,0,0,0,309.77,1101.3Z"/><path class="cls-2" d="M363.47,1132a1.73,1.73,0,1,0-.66-2.35A1.73,1.73,0,0,0,363.47,1132Z"/><path class="cls-2" d="M276.61,1193.46a4.61,4.61,0,1,0-6.32-1.62A4.61,4.61,0,0,0,276.61,1193.46Z"/><path class="cls-2" d="M276.58,1086a3.34,3.34,0,1,0-3.31,3.38A3.34,3.34,0,0,0,276.58,1086Z"/><path class="cls-2" d="M185.9,1030.32A5.62,5.62,0,1,0,188,1038,5.62,5.62,0,0,0,185.9,1030.32Z"/><path class="cls-2" d="M92.43,1085.06a3.21,3.21,0,1,0,4.39,1.13A3.22,3.22,0,0,0,92.43,1085.06Z"/><path class="cls-2" d="M90.23,1191.32a4.86,4.86,0,1,0,4.81-4.91A4.87,4.87,0,0,0,90.23,1191.32Z"/><path class="cls-2" d="M183.33,1245.4a3.78,3.78,0,1,0-1.43-5.16A3.8,3.8,0,0,0,183.33,1245.4Z"/><path class="cls-2" d="M1178.25,558.21a2.85,2.85,0,1,1-3.88,1.08A2.85,2.85,0,0,1,1178.25,558.21Z"/><path class="cls-2" d="M1180.63,622.33a3.17,3.17,0,1,1-3.2-3.14A3.16,3.16,0,0,1,1180.63,622.33Z"/><path class="cls-2" d="M1125.75,656.07a2.72,2.72,0,1,1,1-3.73A2.71,2.71,0,0,1,1125.75,656.07Z"/><path class="cls-2" d="M1069.53,625.42a2.29,2.29,0,1,1,3.12-.87A2.29,2.29,0,0,1,1069.53,625.42Z"/><path class="cls-2" d="M1068.17,561.78a1.87,1.87,0,1,1,1.89,1.85A1.87,1.87,0,0,1,1068.17,561.78Z"/><path class="cls-2" d="M1122.24,528.87a1.77,1.77,0,1,1-.62,2.42A1.78,1.78,0,0,1,1122.24,528.87Z"/><path class="cls-2" d="M825.73,723.33a3.55,3.55,0,1,0-4.86-1.25A3.55,3.55,0,0,0,825.73,723.33Z"/><path class="cls-2" d="M826.16,636.23a3.07,3.07,0,1,0-3,3.1A3.07,3.07,0,0,0,826.16,636.23Z"/><path class="cls-2" d="M751.47,592.22a3.16,3.16,0,1,0,1.2,4.3A3.16,3.16,0,0,0,751.47,592.22Z"/><path class="cls-2" d="M675.55,634.28a4,4,0,1,0,5.44,1.4A4,4,0,0,0,675.55,634.28Z"/><path class="cls-2" d="M676,721.74a2.37,2.37,0,1,0,2.34-2.39A2.37,2.37,0,0,0,676,721.74Z"/><path class="cls-2" d="M750.15,765.54a2.91,2.91,0,1,0-1.1-4A2.92,2.92,0,0,0,750.15,765.54Z"/><path class="cls-2" d="M877.33,659.28a3.29,3.29,0,1,0-4.5-1.16A3.28,3.28,0,0,0,877.33,659.28Z"/><path class="cls-2" d="M878.1,596.58a3,3,0,1,0-3,3.07A3,3,0,0,0,878.1,596.58Z"/><path class="cls-2" d="M824.55,564.36a3.27,3.27,0,1,0,1.24,4.46A3.28,3.28,0,0,0,824.55,564.36Z"/><path class="cls-2" d="M769.79,594.88a3.21,3.21,0,1,0,4.39,1.13A3.21,3.21,0,0,0,769.79,594.88Z"/><path class="cls-2" d="M770.2,657.5a1.82,1.82,0,1,0,1.79-1.83A1.81,1.81,0,0,0,770.2,657.5Z"/><path class="cls-2" d="M822.65,689.51a3,3,0,1,0-1.14-4.11A3,3,0,0,0,822.65,689.51Z"/><path class="cls-2" d="M440.06,947.85a4.51,4.51,0,1,0-6.17-1.58A4.49,4.49,0,0,0,440.06,947.85Z"/><path class="cls-2" d="M442.18,843.37a5.41,5.41,0,1,0-5.36,5.46A5.41,5.41,0,0,0,442.18,843.37Z"/><path class="cls-2" d="M351.17,790.5a4,4,0,1,0,1.54,5.49A4,4,0,0,0,351.17,790.5Z"/><path class="cls-2" d="M260.79,842.06a3.59,3.59,0,1,0,4.91,1.27A3.59,3.59,0,0,0,260.79,842.06Z"/><path class="cls-2" d="M259.36,945.75a4.25,4.25,0,1,0,4.21-4.29A4.25,4.25,0,0,0,259.36,945.75Z"/><path class="cls-2" d="M349.42,998.24a3.59,3.59,0,1,0-1.36-4.89A3.6,3.6,0,0,0,349.42,998.24Z"/><path class="cls-2" d="M454.52,717.68a5.89,5.89,0,1,0-8.06-2.08A5.89,5.89,0,0,0,454.52,717.68Z"/><path class="cls-2" d="M456,589.48a5.66,5.66,0,1,0-5.6,5.71A5.65,5.65,0,0,0,456,589.48Z"/><path class="cls-2" d="M346.15,523.66a6.2,6.2,0,1,0,2.35,8.44A6.2,6.2,0,0,0,346.15,523.66Z"/><path class="cls-2" d="M234.19,586.68a5.77,5.77,0,1,0,7.91,2A5.78,5.78,0,0,0,234.19,586.68Z"/><path class="cls-2" d="M233.06,714.78a5.3,5.3,0,1,0,5.24-5.35A5.3,5.3,0,0,0,233.06,714.78Z"/><path class="cls-2" d="M343.7,778.49a3.77,3.77,0,1,0-1.43-5.13A3.77,3.77,0,0,0,343.7,778.49Z"/><g class="cls-3"><line class="cls-4" x1="1689.27" y1="35.3" x2="1745.28" y2="2.22"/><line class="cls-4" x1="1689.92" y1="100.34" x2="1689.27" y2="35.3"/><line class="cls-4" x1="1746.57" y1="132.31" x2="1689.92" y2="100.34"/><line class="cls-4" x1="1802.57" y1="99.22" x2="1746.57" y2="132.31"/><line class="cls-4" x1="1801.93" y1="34.18" x2="1802.57" y2="99.22"/><line class="cls-4" x1="1745.28" y1="2.22" x2="1801.93" y2="34.18"/><line class="cls-5" x1="1418.77" y1="582.04" x2="1499.15" y2="534.56"/><line class="cls-5" x1="1419.7" y1="675.38" x2="1418.77" y2="582.04"/><line class="cls-5" x1="1501" y1="721.25" x2="1419.7" y2="675.38"/><line class="cls-5" x1="1581.37" y1="673.78" x2="1501" y2="721.25"/><line class="cls-5" x1="1580.45" y1="580.43" x2="1581.37" y2="673.78"/><line class="cls-5" x1="1499.15" y1="534.56" x2="1580.45" y2="580.43"/><line class="cls-5" x1="1233.61" y1="318.42" x2="1313.98" y2="270.94"/><line class="cls-5" x1="1234.54" y1="411.76" x2="1233.61" y2="318.42"/><line class="cls-5" x1="1315.84" y1="457.63" x2="1234.54" y2="411.76"/><line class="cls-5" x1="1396.21" y1="410.15" x2="1315.84" y2="457.63"/><line class="cls-5" x1="1395.29" y1="316.81" x2="1396.21" y2="410.15"/><line class="cls-5" x1="1313.98" y1="270.94" x2="1395.29" y2="316.81"/><line class="cls-6" x1="1155.77" y1="378.09" x2="1210.59" y2="345.71"/><line class="cls-6" x1="1156.4" y1="441.76" x2="1155.77" y2="378.09"/><line class="cls-6" x1="1211.86" y1="473.04" x2="1156.4" y2="441.76"/><line class="cls-6" x1="1266.68" y1="440.66" x2="1211.86" y2="473.04"/><line class="cls-6" x1="1266.05" y1="376.99" x2="1266.68" y2="440.66"/><line class="cls-6" x1="1210.59" y1="345.71" x2="1266.05" y2="376.99"/><line class="cls-7" x1="1786.2" y1="160.46" x2="1850.33" y2="122.58"/><line class="cls-7" x1="1786.94" y1="234.94" x2="1786.2" y2="160.46"/><line class="cls-7" x1="1851.81" y1="271.54" x2="1786.94" y2="234.94"/><line class="cls-7" x1="1915.94" y1="233.66" x2="1851.81" y2="271.54"/><line class="cls-7" x1="1915.2" y1="159.18" x2="1915.94" y2="233.66"/><line class="cls-7" x1="1850.33" y1="122.58" x2="1915.2" y2="159.18"/><line class="cls-8" x1="1190.93" y1="593.1" x2="1243.32" y2="562.15"/><line class="cls-8" x1="1191.53" y1="653.95" x2="1190.93" y2="593.1"/><line class="cls-8" x1="1244.53" y1="683.85" x2="1191.53" y2="653.95"/><line class="cls-8" x1="1296.93" y1="652.9" x2="1244.53" y2="683.85"/><line class="cls-8" x1="1296.32" y1="592.05" x2="1296.93" y2="652.9"/><line class="cls-8" x1="1243.32" y1="562.15" x2="1296.32" y2="592.05"/><line class="cls-9" x1="1652.58" y1="291.78" x2="1740.62" y2="239.77"/><line class="cls-9" x1="1653.59" y1="394.03" x2="1652.58" y2="291.78"/><line class="cls-9" x1="1742.65" y1="444.28" x2="1653.59" y2="394.03"/><line class="cls-9" x1="1830.7" y1="392.27" x2="1742.65" y2="444.28"/><line class="cls-9" x1="1829.68" y1="290.02" x2="1830.7" y2="392.27"/><line class="cls-9" x1="1740.62" y1="239.77" x2="1829.68" y2="290.02"/></g><g class="cls-10"><line class="cls-11" x1="1444.81" y1="395.81" x2="1620.23" y2="292.19"/><line class="cls-11" x1="1446.83" y1="599.54" x2="1444.81" y2="395.81"/><line class="cls-11" x1="1624.28" y1="699.65" x2="1446.83" y2="599.54"/><line class="cls-11" x1="1799.71" y1="596.03" x2="1624.28" y2="699.65"/><line class="cls-11" x1="1797.68" y1="392.3" x2="1799.71" y2="596.03"/><line class="cls-11" x1="1620.23" y1="292.19" x2="1797.68" y2="392.3"/><line class="cls-12" x1="1621.93" y1="138.54" x2="1721.06" y2="79.98"/><line class="cls-12" x1="1623.08" y1="253.67" x2="1621.93" y2="138.54"/><line class="cls-12" x1="1723.35" y1="310.24" x2="1623.08" y2="253.67"/><line class="cls-12" x1="1822.49" y1="251.69" x2="1723.35" y2="310.24"/><line class="cls-12" x1="1821.34" y1="136.56" x2="1822.49" y2="251.69"/><line class="cls-12" x1="1721.06" y1="79.98" x2="1821.34" y2="136.56"/><line class="cls-13" x1="1347.75" y1="360.3" x2="1474.6" y2="285.37"/><line class="cls-13" x1="1349.21" y1="507.63" x2="1347.75" y2="360.3"/><line class="cls-13" x1="1477.53" y1="580.02" x2="1349.21" y2="507.63"/><line class="cls-13" x1="1604.39" y1="505.09" x2="1477.53" y2="580.02"/><line class="cls-13" x1="1602.92" y1="357.77" x2="1604.39" y2="505.09"/><line class="cls-13" x1="1474.6" y1="285.37" x2="1602.92" y2="357.77"/><line class="cls-14" x1="1040.01" y1="653.81" x2="1128.95" y2="601.27"/><line class="cls-14" x1="1040.01" y1="653.81" x2="1041.04" y2="757.1"/><line class="cls-14" x1="1131.01" y1="807.86" x2="1041.04" y2="757.1"/><line class="cls-14" x1="1219.95" y1="755.32" x2="1131.01" y2="807.86"/><line class="cls-14" x1="1218.92" y1="652.03" x2="1219.95" y2="755.32"/><line class="cls-14" x1="1128.95" y1="601.27" x2="1218.92" y2="652.03"/><line class="cls-15" x1="1223.52" y1="529.16" x2="1313.41" y2="476.07"/><line class="cls-15" x1="1224.56" y1="633.55" x2="1223.52" y2="529.16"/><line class="cls-15" x1="1315.48" y1="684.85" x2="1224.56" y2="633.55"/><line class="cls-15" x1="1405.37" y1="631.75" x2="1315.48" y2="684.85"/><line class="cls-15" x1="1404.33" y1="527.37" x2="1405.37" y2="631.75"/><line class="cls-15" x1="1313.41" y1="476.07" x2="1404.33" y2="527.37"/><line class="cls-16" x1="1638.58" y1="527.05" x2="1746.35" y2="463.4"/><line class="cls-16" x1="1639.83" y1="652.21" x2="1638.58" y2="527.05"/><line class="cls-16" x1="1748.84" y1="713.71" x2="1639.83" y2="652.21"/><line class="cls-16" x1="1856.61" y1="650.06" x2="1748.84" y2="713.71"/><line class="cls-16" x1="1855.36" y1="524.9" x2="1856.61" y2="650.06"/><line class="cls-16" x1="1746.35" y1="463.4" x2="1855.36" y2="524.9"/></g><g class="cls-17"><line class="cls-18" x1="1172.06" y1="466.72" x2="1222.6" y2="436.86"/><line class="cls-18" x1="1172.64" y1="525.42" x2="1172.06" y2="466.72"/><line class="cls-18" x1="1223.77" y1="554.27" x2="1172.64" y2="525.42"/><line class="cls-18" x1="1274.32" y1="524.41" x2="1223.77" y2="554.27"/><line class="cls-18" x1="1273.73" y1="465.71" x2="1274.32" y2="524.41"/><line class="cls-18" x1="1222.6" y1="436.86" x2="1273.73" y2="465.71"/><line class="cls-19" x1="1589" y1="221.42" x2="1549.42" y2="199.09"/><line class="cls-19" x1="1589.45" y1="266.86" x2="1589" y2="221.42"/><line class="cls-19" x1="1550.32" y1="289.98" x2="1589.45" y2="266.86"/><line class="cls-19" x1="1510.74" y1="267.65" x2="1550.32" y2="289.98"/><line class="cls-19" x1="1510.29" y1="222.2" x2="1510.74" y2="267.65"/><line class="cls-19" x1="1549.42" y1="199.09" x2="1510.29" y2="222.2"/><line class="cls-14" x1="1176.85" y1="560.69" x2="1123.14" y2="530.39"/><line class="cls-14" x1="1177.47" y1="622.36" x2="1176.85" y2="560.69"/><line class="cls-14" x1="1124.37" y1="653.73" x2="1177.47" y2="622.36"/><line class="cls-14" x1="1070.65" y1="623.42" x2="1124.37" y2="653.73"/><line class="cls-14" x1="1070.04" y1="561.76" x2="1070.65" y2="623.42"/><line class="cls-14" x1="1123.14" y1="530.39" x2="1070.04" y2="561.76"/></g><g class="cls-3"><line class="cls-20" x1="421.74" y1="1019.1" x2="349.04" y2="1062.05"/><line class="cls-20" x1="420.91" y1="934.66" x2="421.74" y2="1019.1"/><line class="cls-20" x1="347.36" y1="893.16" x2="420.91" y2="934.66"/><line class="cls-20" x1="274.65" y1="936.11" x2="347.36" y2="893.16"/><line class="cls-20" x1="275.49" y1="1020.55" x2="274.65" y2="936.11"/><line class="cls-20" x1="349.04" y1="1062.05" x2="275.49" y2="1020.55"/><line class="cls-21" x1="277.4" y1="791.23" x2="208.58" y2="831.88"/><line class="cls-21" x1="276.61" y1="711.31" x2="277.4" y2="791.23"/><line class="cls-21" x1="207" y1="672.03" x2="276.61" y2="711.31"/><line class="cls-21" x1="138.18" y1="712.68" x2="207" y2="672.03"/><line class="cls-21" x1="138.97" y1="792.6" x2="138.18" y2="712.68"/><line class="cls-21" x1="208.58" y1="831.88" x2="138.97" y2="792.6"/><line class="cls-22" x1="599.19" y1="1103.88" x2="523.21" y2="1148.76"/><line class="cls-22" x1="598.31" y1="1015.64" x2="599.19" y2="1103.88"/><line class="cls-22" x1="521.46" y1="972.28" x2="598.31" y2="1015.64"/><line class="cls-22" x1="445.48" y1="1017.16" x2="521.46" y2="972.28"/><line class="cls-22" x1="446.35" y1="1105.4" x2="445.48" y2="1017.16"/><line class="cls-22" x1="523.21" y1="1148.76" x2="446.35" y2="1105.4"/><line class="cls-23" x1="667.69" y1="658.54" x2="588.65" y2="705.23"/><line class="cls-23" x1="666.78" y1="566.75" x2="667.69" y2="658.54"/><line class="cls-23" x1="586.83" y1="521.64" x2="666.78" y2="566.75"/><line class="cls-23" x1="507.79" y1="568.33" x2="586.83" y2="521.64"/><line class="cls-23" x1="508.7" y1="660.12" x2="507.79" y2="568.33"/><line class="cls-23" x1="588.65" y1="705.23" x2="508.7" y2="660.12"/><line class="cls-24" x1="823.93" y1="720.27" x2="751.58" y2="763"/><line class="cls-24" x1="823.09" y1="636.26" x2="823.93" y2="720.27"/><line class="cls-24" x1="749.91" y1="594.97" x2="823.09" y2="636.26"/><line class="cls-24" x1="677.57" y1="637.7" x2="749.91" y2="594.97"/><line class="cls-24" x1="678.41" y1="721.72" x2="677.57" y2="637.7"/><line class="cls-24" x1="751.58" y1="763" x2="678.41" y2="721.72"/></g><g class="cls-17"><line class="cls-25" x1="259.3" y1="720.13" x2="210" y2="749.25"/><line class="cls-25" x1="258.73" y1="662.87" x2="259.3" y2="720.13"/><line class="cls-25" x1="208.87" y1="634.74" x2="258.73" y2="662.87"/><line class="cls-25" x1="159.57" y1="663.86" x2="208.87" y2="634.74"/><line class="cls-25" x1="160.13" y1="721.11" x2="159.57" y2="663.86"/><line class="cls-25" x1="210" y1="749.25" x2="160.13" y2="721.11"/><line class="cls-25" x1="206.81" y1="589.81" x2="157.51" y2="618.93"/><line class="cls-25" x1="206.25" y1="532.56" x2="206.81" y2="589.81"/><line class="cls-25" x1="156.38" y1="504.42" x2="206.25" y2="532.56"/><line class="cls-25" x1="107.08" y1="533.54" x2="156.38" y2="504.42"/><line class="cls-25" x1="107.65" y1="590.8" x2="107.08" y2="533.54"/><line class="cls-25" x1="157.51" y1="618.93" x2="107.65" y2="590.8"/><line class="cls-26" x1="630.9" y1="1044.46" x2="587.72" y2="1069.97"/><line class="cls-26" x1="630.41" y1="994.31" x2="630.9" y2="1044.46"/><line class="cls-26" x1="586.73" y1="969.67" x2="630.41" y2="994.31"/><line class="cls-26" x1="543.54" y1="995.18" x2="586.73" y2="969.67"/><line class="cls-26" x1="544.04" y1="1045.33" x2="543.54" y2="995.18"/><line class="cls-26" x1="587.72" y1="1069.97" x2="544.04" y2="1045.33"/><line class="cls-27" x1="768.03" y1="879.08" x2="709.37" y2="913.73"/><line class="cls-27" x1="767.35" y1="810.95" x2="768.03" y2="879.08"/><line class="cls-27" x1="708.02" y1="777.48" x2="767.35" y2="810.95"/><line class="cls-27" x1="649.36" y1="812.13" x2="708.02" y2="777.48"/><line class="cls-27" x1="650.03" y1="880.25" x2="649.36" y2="812.13"/><line class="cls-27" x1="709.37" y1="913.73" x2="650.03" y2="880.25"/><line class="cls-28" x1="897.58" y1="794.45" x2="856.25" y2="818.87"/><line class="cls-28" x1="897.1" y1="746.45" x2="897.58" y2="794.45"/><line class="cls-28" x1="855.29" y1="722.86" x2="897.1" y2="746.45"/><line class="cls-28" x1="813.96" y1="747.28" x2="855.29" y2="722.86"/><line class="cls-28" x1="814.44" y1="795.28" x2="813.96" y2="747.28"/><line class="cls-28" x1="856.25" y1="818.87" x2="814.44" y2="795.28"/><line class="cls-29" x1="977.63" y1="729.61" x2="946.96" y2="747.73"/><line class="cls-29" x1="977.28" y1="693.98" x2="977.63" y2="729.61"/><line class="cls-29" x1="946.25" y1="676.47" x2="977.28" y2="693.98"/><line class="cls-29" x1="915.57" y1="694.59" x2="946.25" y2="676.47"/><line class="cls-29" x1="915.93" y1="730.22" x2="915.57" y2="694.59"/><line class="cls-29" x1="946.96" y1="747.73" x2="915.93" y2="730.22"/><line class="cls-30" x1="919.23" y1="662.65" x2="876.25" y2="688.04"/><line class="cls-30" x1="918.74" y1="612.73" x2="919.23" y2="662.65"/><line class="cls-30" x1="875.25" y1="588.2" x2="918.74" y2="612.73"/><line class="cls-30" x1="832.27" y1="613.59" x2="875.25" y2="588.2"/><line class="cls-30" x1="832.76" y1="663.51" x2="832.27" y2="613.59"/><line class="cls-30" x1="876.25" y1="688.04" x2="832.76" y2="663.51"/><line class="cls-19" x1="1046.34" y1="579" x2="1006.76" y2="556.67"/><line class="cls-19" x1="1046.79" y1="624.45" x2="1046.34" y2="579"/><line class="cls-19" x1="1007.66" y1="647.56" x2="1046.79" y2="624.45"/><line class="cls-19" x1="968.08" y1="625.23" x2="1007.66" y2="647.56"/><line class="cls-19" x1="967.63" y1="579.78" x2="968.08" y2="625.23"/><line class="cls-19" x1="1006.76" y1="556.67" x2="967.63" y2="579.78"/><line class="cls-31" x1="415.46" y1="1100.25" x2="364.32" y2="1130.46"/><line class="cls-31" x1="414.87" y1="1040.85" x2="415.46" y2="1100.25"/><line class="cls-31" x1="363.14" y1="1011.67" x2="414.87" y2="1040.85"/><line class="cls-31" x1="312" y1="1041.88" x2="363.14" y2="1011.67"/><line class="cls-31" x1="312.59" y1="1101.27" x2="312" y2="1041.88"/><line class="cls-31" x1="364.32" y1="1130.46" x2="312.59" y2="1101.27"/><line class="cls-32" x1="875.65" y1="656.45" x2="824.13" y2="686.88"/><line class="cls-32" x1="875.06" y1="596.61" x2="875.65" y2="656.45"/><line class="cls-32" x1="822.94" y1="567.21" x2="875.06" y2="596.61"/><line class="cls-32" x1="771.42" y1="597.64" x2="822.94" y2="567.21"/><line class="cls-32" x1="772.01" y1="657.48" x2="771.42" y2="597.64"/><line class="cls-32" x1="824.13" y1="686.88" x2="772.01" y2="657.48"/></g><g class="cls-10"><line class="cls-33" x1="599.34" y1="869.77" x2="483.13" y2="938.41"/><line class="cls-33" x1="598" y1="734.8" x2="599.34" y2="869.77"/><line class="cls-33" x1="480.44" y1="668.48" x2="598" y2="734.8"/><line class="cls-33" x1="364.23" y1="737.13" x2="480.44" y2="668.48"/><line class="cls-33" x1="365.57" y1="872.09" x2="364.23" y2="737.13"/><line class="cls-33" x1="483.13" y1="938.41" x2="365.57" y2="872.09"/><line class="cls-34" x1="240.83" y1="1031.41" x2="125.48" y2="1099.55"/><line class="cls-34" x1="239.5" y1="897.45" x2="240.83" y2="1031.41"/><line class="cls-34" x1="122.82" y1="831.62" x2="239.5" y2="897.45"/><line class="cls-34" x1="7.47" y1="899.75" x2="122.82" y2="831.62"/><line class="cls-34" x1="8.8" y1="1033.72" x2="7.47" y2="899.75"/><line class="cls-34" x1="125.48" y1="1099.55" x2="8.8" y2="1033.72"/><line class="cls-35" x1="750.82" y1="871.53" x2="615.31" y2="951.58"/><line class="cls-35" x1="749.25" y1="714.16" x2="750.82" y2="871.53"/><line class="cls-35" x1="612.18" y1="636.82" x2="749.25" y2="714.16"/><line class="cls-35" x1="476.67" y1="716.86" x2="612.18" y2="636.82"/><line class="cls-35" x1="478.23" y1="874.24" x2="476.67" y2="716.86"/><line class="cls-35" x1="615.31" y1="951.58" x2="478.23" y2="874.24"/><line class="cls-36" x1="274.27" y1="1189.49" x2="185.19" y2="1242.1"/><line class="cls-36" x1="273.24" y1="1086.04" x2="274.27" y2="1189.49"/><line class="cls-36" x1="183.14" y1="1035.21" x2="273.24" y2="1086.04"/><line class="cls-36" x1="94.06" y1="1087.82" x2="183.14" y2="1035.21"/><line class="cls-36" x1="95.09" y1="1191.27" x2="94.06" y2="1087.82"/><line class="cls-36" x1="185.19" y1="1242.1" x2="95.09" y2="1191.27"/><line class="cls-37" x1="437.77" y1="943.97" x2="351.19" y2="995.11"/><line class="cls-37" x1="436.77" y1="843.42" x2="437.77" y2="943.97"/><line class="cls-37" x1="349.19" y1="794.01" x2="436.77" y2="843.42"/><line class="cls-37" x1="262.61" y1="845.15" x2="349.19" y2="794.01"/><line class="cls-37" x1="263.61" y1="945.7" x2="262.61" y2="845.15"/><line class="cls-37" x1="351.19" y1="995.11" x2="263.61" y2="945.7"/><line class="cls-38" x1="451.53" y1="712.61" x2="345.55" y2="775.21"/><line class="cls-38" x1="450.31" y1="589.53" x2="451.53" y2="712.61"/><line class="cls-38" x1="343.11" y1="529.06" x2="450.31" y2="589.53"/><line class="cls-38" x1="237.13" y1="591.65" x2="343.11" y2="529.06"/><line class="cls-38" x1="238.35" y1="714.73" x2="237.13" y2="591.65"/><line class="cls-38" x1="345.55" y1="775.21" x2="238.35" y2="714.73"/></g><path class="cls-2" d="M363,955.83a4.89,4.89,0,1,0-6.84,1A4.89,4.89,0,0,0,363,955.83Z"/><path class="cls-2" d="M379.9,808.75a5.69,5.69,0,1,0-2.91,7.5A5.68,5.68,0,0,0,379.9,808.75Z"/><path class="cls-2" d="M239.35,813.1a3.48,3.48,0,1,0,3.08,3.84A3.48,3.48,0,0,0,239.35,813.1Z"/><path class="cls-2" d="M190.83,970.36a4.82,4.82,0,1,0,6.74-1A4.81,4.81,0,0,0,190.83,970.36Z"/><path class="cls-2" d="M191.13,1059.6a5.15,5.15,0,1,0,2.64-6.78A5.15,5.15,0,0,0,191.13,1059.6Z"/><path class="cls-2" d="M277.85,1067.52a8.37,8.37,0,1,0-7.42-9.23A8.38,8.38,0,0,0,277.85,1067.52Z"/><path class="cls-2" d="M858.88,725.66a5.05,5.05,0,1,0-7.06,1.09A5.05,5.05,0,0,0,858.88,725.66Z"/><path class="cls-2" d="M894.89,656.48a6.42,6.42,0,1,0-3.29,8.46A6.42,6.42,0,0,0,894.89,656.48Z"/><path class="cls-2" d="M733.13,627.85a4.48,4.48,0,1,0,4,4.94A4.48,4.48,0,0,0,733.13,627.85Z"/><path class="cls-2" d="M757.32,782.15a5.6,5.6,0,1,0,7.83-1.2A5.6,5.6,0,0,0,757.32,782.15Z"/><path class="cls-2" d="M713.64,813.1a4.69,4.69,0,1,0,2.41-6.19A4.7,4.7,0,0,0,713.64,813.1Z"/><path class="cls-2" d="M785.66,874.2a4.15,4.15,0,1,0-3.68-4.58A4.16,4.16,0,0,0,785.66,874.2Z"/><path class="cls-2" d="M491.06,741.54A8.7,8.7,0,1,0,486.61,753,8.7,8.7,0,0,0,491.06,741.54Z"/><path class="cls-2" d="M1662.62,603.79a10.93,10.93,0,1,0,15.27-2.36A10.93,10.93,0,0,0,1662.62,603.79Z"/><path class="cls-2" d="M1538.22,389.88a8.25,8.25,0,1,0,4.23-10.87A8.26,8.26,0,0,0,1538.22,389.88Z"/><path class="cls-2" d="M1746.25,523.72a8.6,8.6,0,1,0,7.61,9.48A8.59,8.59,0,0,0,1746.25,523.72Z"/><path class="cls-2" d="M1655.42,369a3.73,3.73,0,1,0,5.22-.81A3.73,3.73,0,0,0,1655.42,369Z"/><path class="cls-2" d="M1649.62,496.47a1.55,1.55,0,0,0,2.84-1.25,1.55,1.55,0,1,0-2.84,1.25Z"/><path class="cls-2" d="M1677.65,427.43a1.52,1.52,0,1,0,.33-3,1.52,1.52,0,1,0-.33,3Z"/><path class="cls-2" d="M1782.35,403.53a1.68,1.68,0,1,0-2.35.36A1.69,1.69,0,0,0,1782.35,403.53Z"/><path class="cls-2" d="M1717.16,382.57a2.74,2.74,0,1,0-1.4,3.61A2.73,2.73,0,0,0,1717.16,382.57Z"/><path class="cls-2" d="M1620.92,336.74a2,2,0,1,0,1.75,2.18A2,2,0,0,0,1620.92,336.74Z"/><path class="cls-2" d="M510,895.5a4.22,4.22,0,1,1,4.65-3.74A4.23,4.23,0,0,1,510,895.5Z"/><path class="cls-2" d="M403.06,864.53a2,2,0,1,1,2.68,1A2,2,0,0,1,403.06,864.53Z"/><path class="cls-2" d="M436.35,810.87a4.83,4.83,0,1,1,1,6.75A4.83,4.83,0,0,1,436.35,810.87Z"/><path class="cls-2" d="M595.5,792.67a2.12,2.12,0,1,1-2.34,1.88A2.13,2.13,0,0,1,595.5,792.67Z"/><path class="cls-2" d="M575.06,831.84a4.32,4.32,0,1,1-5.7-2.21A4.32,4.32,0,0,1,575.06,831.84Z"/><path class="cls-2" d="M583,825.18a2.28,2.28,0,1,1-.49-3.19A2.27,2.27,0,0,1,583,825.18Z"/></svg>