<svg id="Layer_1" data-name="Layer 1" xmlns="http://www.w3.org/2000/svg" viewBox="0 0 204.04 251.89"><defs><style>.cls-1{fill:#f2f2f2;}</style></defs><title>triangle-invert</title><polygon class="cls-1" points="204.04 158.3 203.38 160.76 201.57 158.96 204.04 158.3"/><polygon class="cls-1" points="191.86 146.12 191.2 148.59 189.4 146.78 191.86 146.12"/><polygon class="cls-1" points="179.68 133.95 179.02 136.41 177.22 134.61 179.68 133.95"/><polygon class="cls-1" points="167.51 121.77 166.85 124.23 165.04 122.43 167.51 121.77"/><polygon class="cls-1" points="155.33 109.59 154.67 112.06 152.86 110.25 155.33 109.59"/><polygon class="cls-1" points="143.15 97.42 142.49 99.88 140.69 98.08 143.15 97.42"/><polygon class="cls-1" points="130.98 85.24 130.31 87.7 128.51 85.9 130.98 85.24"/><polygon class="cls-1" points="118.8 73.06 118.14 75.53 116.33 73.72 118.8 73.06"/><polygon class="cls-1" points="106.62 60.88 105.96 63.35 104.16 61.55 106.62 60.88"/><polygon class="cls-1" points="94.44 48.71 93.78 51.17 91.98 49.37 94.44 48.71"/><polygon class="cls-1" points="82.27 36.53 81.61 39 79.8 37.19 82.27 36.53"/><polygon class="cls-1" points="70.09 24.35 69.43 26.82 67.63 25.01 70.09 24.35"/><polygon class="cls-1" points="57.91 12.18 57.25 14.64 55.45 12.84 57.91 12.18"/><polygon class="cls-1" points="45.74 0 45.08 2.47 43.27 0.66 45.74 0"/><polygon class="cls-1" points="199.23 175.28 197.49 181.8 192.72 177.03 199.23 175.28"/><polygon class="cls-1" points="187.06 163.1 185.31 169.62 180.54 164.85 187.06 163.1"/><polygon class="cls-1" points="174.88 150.93 173.13 157.44 168.36 152.67 174.88 150.93"/><polygon class="cls-1" points="162.7 138.75 160.96 145.27 156.19 140.5 162.7 138.75"/><polygon class="cls-1" points="150.53 126.57 148.78 133.09 144.01 128.32 150.53 126.57"/><polygon class="cls-1" points="138.35 114.4 136.6 120.91 131.83 116.14 138.35 114.4"/><polygon class="cls-1" points="126.17 102.22 124.43 108.74 119.66 103.97 126.17 102.22"/><polygon class="cls-1" points="114 90.04 112.25 96.56 107.48 91.79 114 90.04"/><polygon class="cls-1" points="101.82 77.87 100.07 84.38 95.3 79.61 101.82 77.87"/><polygon class="cls-1" points="89.64 65.69 87.89 72.2 83.12 67.44 89.64 65.69"/><polygon class="cls-1" points="77.46 53.51 75.72 60.03 70.95 55.26 77.46 53.51"/><polygon class="cls-1" points="65.29 41.34 63.54 47.85 58.77 43.08 65.29 41.34"/><polygon class="cls-1" points="53.11 29.16 51.36 35.67 46.59 30.9 53.11 29.16"/><polygon class="cls-1" points="40.93 16.98 39.19 23.5 34.42 18.73 40.93 16.98"/><polygon class="cls-1" points="28.76 4.8 27.01 11.32 22.24 6.55 28.76 4.8"/><polygon class="cls-1" points="182.2 180.14 179.41 190.53 171.8 182.93 182.2 180.14"/><polygon class="cls-1" points="170.02 167.96 167.24 178.35 159.63 170.75 170.02 167.96"/><polygon class="cls-1" points="157.84 155.79 155.06 166.18 147.45 158.57 157.84 155.79"/><polygon class="cls-1" points="145.66 143.61 142.88 154 135.27 146.4 145.66 143.61"/><polygon class="cls-1" points="133.49 131.43 130.7 141.82 123.1 134.22 133.49 131.43"/><polygon class="cls-1" points="121.31 119.26 118.53 129.65 110.92 122.04 121.31 119.26"/><polygon class="cls-1" points="109.14 107.08 106.35 117.47 98.74 109.86 109.14 107.08"/><polygon class="cls-1" points="96.96 94.9 94.17 105.29 86.57 97.69 96.96 94.9"/><polygon class="cls-1" points="84.78 82.73 82 93.12 74.39 85.51 84.78 82.73"/><polygon class="cls-1" points="72.6 70.55 69.82 80.94 62.21 73.33 72.6 70.55"/><polygon class="cls-1" points="60.43 58.37 57.64 68.76 50.04 61.16 60.43 58.37"/><polygon class="cls-1" points="48.25 46.2 45.47 56.59 37.86 48.98 48.25 46.2"/><polygon class="cls-1" points="36.07 34.02 33.29 44.41 25.68 36.8 36.07 34.02"/><polygon class="cls-1" points="23.9 21.84 21.11 32.23 13.51 24.63 23.9 21.84"/><polygon class="cls-1" points="177.34 197.18 173.51 211.44 163.07 201 177.34 197.18"/><polygon class="cls-1" points="165.16 185 161.34 199.27 150.89 188.82 165.16 185"/><polygon class="cls-1" points="152.98 172.82 149.16 187.09 138.72 176.65 152.98 172.82"/><polygon class="cls-1" points="140.81 160.65 136.98 174.91 126.54 164.47 140.81 160.65"/><polygon class="cls-1" points="128.63 148.47 124.81 162.74 114.36 152.29 128.63 148.47"/><polygon class="cls-1" points="116.45 136.29 112.63 150.56 102.19 140.12 116.45 136.29"/><polygon class="cls-1" points="104.27 124.12 100.45 138.38 90.01 127.94 104.27 124.12"/><polygon class="cls-1" points="92.1 111.94 88.28 126.21 77.83 115.76 92.1 111.94"/><polygon class="cls-1" points="79.92 99.76 76.1 114.03 65.66 103.58 79.92 99.76"/><polygon class="cls-1" points="67.74 87.59 63.92 101.85 53.48 91.41 67.74 87.59"/><polygon class="cls-1" points="55.57 75.41 51.74 89.67 41.3 79.23 55.57 75.41"/><polygon class="cls-1" points="43.39 63.23 39.57 77.5 29.12 67.06 43.39 63.23"/><polygon class="cls-1" points="31.21 51.05 27.39 65.32 16.95 54.88 31.21 51.05"/><polygon class="cls-1" points="19.04 38.88 15.21 53.15 4.77 42.7 19.04 38.88"/><polygon class="cls-1" points="0 28.54 6.86 26.7 3.04 40.97 0 37.93 0 28.54"/><polygon class="cls-1" points="160.35 201.98 155.45 220.3 142.04 206.89 160.35 201.98"/><polygon class="cls-1" points="148.18 189.81 143.27 208.12 129.86 194.71 148.18 189.81"/><polygon class="cls-1" points="136 177.63 131.09 195.95 117.68 182.54 136 177.63"/><polygon class="cls-1" points="123.82 165.45 118.92 183.77 105.51 170.36 123.82 165.45"/><polygon class="cls-1" points="111.65 153.28 106.74 171.59 93.33 158.18 111.65 153.28"/><polygon class="cls-1" points="99.47 141.1 94.56 159.41 81.15 146.01 99.47 141.1"/><polygon class="cls-1" points="87.29 128.92 82.39 147.24 68.98 133.83 87.29 128.92"/><polygon class="cls-1" points="75.12 116.74 70.21 135.06 56.8 121.65 75.12 116.74"/><polygon class="cls-1" points="62.94 104.57 58.03 122.88 44.62 109.47 62.94 104.57"/><polygon class="cls-1" points="50.76 92.39 45.85 110.71 32.45 97.3 50.76 92.39"/><polygon class="cls-1" points="38.59 80.21 33.68 98.53 20.27 85.12 38.59 80.21"/><polygon class="cls-1" points="26.41 68.04 21.5 86.35 8.09 72.94 26.41 68.04"/><polygon class="cls-1" points="0 59.67 14.23 55.86 9.32 74.18 0 64.85 0 59.67"/><polygon class="cls-1" points="0 44.23 2.06 43.68 0 51.35 0 44.23"/><polygon class="cls-1" points="155.49 219.02 149.55 241.21 133.3 224.97 155.49 219.02"/><polygon class="cls-1" points="143.32 206.84 137.37 229.03 121.13 212.79 143.32 206.84"/><polygon class="cls-1" points="131.14 194.67 125.19 216.86 108.95 200.61 131.14 194.67"/><polygon class="cls-1" points="118.96 182.49 113.02 204.68 96.77 188.44 118.96 182.49"/><polygon class="cls-1" points="106.79 170.31 100.84 192.5 84.59 176.26 106.79 170.31"/><polygon class="cls-1" points="94.61 158.13 88.66 180.33 72.42 164.08 94.61 158.13"/><polygon class="cls-1" points="82.43 145.96 76.49 168.15 60.24 151.9 82.43 145.96"/><polygon class="cls-1" points="70.26 133.78 64.31 155.97 48.06 139.73 70.26 133.78"/><polygon class="cls-1" points="58.08 121.6 52.13 143.8 35.89 127.55 58.08 121.6"/><polygon class="cls-1" points="45.9 109.43 39.96 131.62 23.71 115.37 45.9 109.43"/><polygon class="cls-1" points="33.73 97.25 27.78 119.44 11.53 103.2 33.73 97.25"/><polygon class="cls-1" points="0 90.85 21.55 85.07 15.6 107.27 0 91.66 0 90.85"/><polygon class="cls-1" points="0 75.41 9.37 72.9 3.42 95.09 0 91.66 0 75.41"/><polygon class="cls-1" points="138.46 223.88 131.47 249.95 112.39 230.86 138.46 223.88"/><polygon class="cls-1" points="126.28 211.7 119.3 237.77 100.21 218.69 126.28 211.7"/><polygon class="cls-1" points="114.1 199.53 107.12 225.59 88.04 206.51 114.1 199.53"/><polygon class="cls-1" points="101.93 187.35 94.94 213.41 75.86 194.33 101.93 187.35"/><polygon class="cls-1" points="89.75 175.17 82.77 201.24 63.68 182.16 89.75 175.17"/><polygon class="cls-1" points="77.57 163 70.59 189.06 51.51 169.98 77.57 163"/><polygon class="cls-1" points="65.4 150.82 58.41 176.88 39.33 157.8 65.4 150.82"/><polygon class="cls-1" points="53.22 138.64 46.23 164.71 27.15 145.63 53.22 138.64"/><polygon class="cls-1" points="41.04 126.47 34.06 152.53 14.98 133.45 41.04 126.47"/><polygon class="cls-1" points="28.86 114.29 21.88 140.35 2.8 121.27 28.86 114.29"/><polygon class="cls-1" points="0 106.58 16.69 102.11 9.7 128.18 0 118.47 0 106.58"/><polygon class="cls-1" points="0 91.14 4.51 89.93 0 106.77 0 91.14"/><polygon class="cls-1" points="106.5 251.89 103.53 248.93 133.65 240.86 130.7 251.89 106.5 251.89"/><polygon class="cls-1" points="106.5 251.89 91.36 236.75 121.48 228.68 115.26 251.89 106.5 251.89"/><polygon class="cls-1" points="109.3 216.51 101.23 246.62 79.18 224.58 109.3 216.51"/><polygon class="cls-1" points="97.12 204.33 89.05 234.45 67 212.4 97.12 204.33"/><polygon class="cls-1" points="84.94 192.15 76.88 222.27 54.83 200.22 84.94 192.15"/><polygon class="cls-1" points="72.77 179.98 64.7 210.09 42.65 188.05 72.77 179.98"/><polygon class="cls-1" points="60.59 167.8 52.52 197.92 30.47 175.87 60.59 167.8"/><polygon class="cls-1" points="48.41 155.62 40.34 185.74 18.3 163.69 48.41 155.62"/><polygon class="cls-1" points="36.24 143.45 28.17 173.56 6.12 151.52 36.24 143.45"/><polygon class="cls-1" points="0 137.72 24.06 131.27 15.99 161.39 0 145.4 0 137.72"/><polygon class="cls-1" points="0 122.28 11.88 119.09 3.81 149.21 0 145.4 0 122.28"/><polygon class="cls-1" points="93.59 251.89 116.62 245.72 114.96 251.89 93.59 251.89"/><polygon class="cls-1" points="79.69 251.89 70.45 242.65 104.44 233.54 99.52 251.89 79.69 251.89"/><polygon class="cls-1" points="79.69 251.89 58.27 230.47 92.26 221.37 84.08 251.89 79.69 251.89"/><polygon class="cls-1" points="80.08 209.19 70.98 243.18 46.09 218.3 80.08 209.19"/><polygon class="cls-1" points="67.91 197.01 58.8 231.01 33.92 206.12 67.91 197.01"/><polygon class="cls-1" points="55.73 184.84 46.62 218.83 21.74 193.94 55.73 184.84"/><polygon class="cls-1" points="43.55 172.66 34.45 206.65 9.56 181.77 43.55 172.66"/><polygon class="cls-1" points="0 168.89 31.38 160.48 22.27 194.47 0 172.21 0 168.89"/><polygon class="cls-1" points="0 153.45 19.2 148.31 10.09 182.3 0 172.21 0 153.45"/><polygon class="cls-1" points="0 138.01 7.02 136.13 0 162.34 0 138.01"/><polygon class="cls-1" points="94.69 251.89 99.58 250.58 99.23 251.89 94.69 251.89"/><polygon class="cls-1" points="52.88 251.89 49.53 248.55 87.4 238.4 83.79 251.89 52.88 251.89"/><polygon class="cls-1" points="52.88 251.89 37.36 236.37 75.22 226.23 68.35 251.89 52.88 251.89"/><polygon class="cls-1" points="52.88 251.89 25.18 224.2 63.05 214.05 52.91 251.89 52.88 251.89"/><polygon class="cls-1" points="50.87 201.87 40.73 239.74 13 212.02 50.87 201.87"/><polygon class="cls-1" points="38.69 189.7 28.55 227.56 0.83 199.84 38.69 189.7"/><polygon class="cls-1" points="0 184.63 26.52 177.52 16.37 215.39 0 199.02 0 184.63"/><polygon class="cls-1" points="0 169.19 14.34 165.34 4.19 203.21 0 199.02 0 169.19"/><polygon class="cls-1" points="0 153.75 2.16 153.17 0 161.24 0 153.75"/><polygon class="cls-1" points="38.02 251.89 70.42 243.21 68.09 251.89 38.02 251.89"/><polygon class="cls-1" points="25.95 251.89 16.33 242.26 58.24 231.03 52.65 251.89 25.95 251.89"/><polygon class="cls-1" points="25.95 251.89 4.15 230.09 46.07 218.85 37.22 251.89 25.95 251.89"/><polygon class="cls-1" points="0 215.76 33.89 206.68 22.66 248.6 0 225.94 0 215.76"/><polygon class="cls-1" points="0 200.32 21.71 194.5 10.48 236.42 0 225.94 0 200.32"/><polygon class="cls-1" points="0 184.88 9.54 182.32 0 217.91 0 184.88"/><polygon class="cls-1" points="40.65 251.89 52.83 248.63 51.95 251.89 40.65 251.89"/><polygon class="cls-1" points="0 247.34 40.65 236.45 36.51 251.89 0.26 251.89 0 251.63 0 247.34"/><polygon class="cls-1" points="0 231.9 28.47 224.27 21.07 251.89 0.26 251.89 0 251.63 0 231.9"/><polygon class="cls-1" points="0 216.46 16.29 212.1 5.63 251.89 0.26 251.89 0 251.63 0 216.46"/><polygon class="cls-1" points="0 201.02 4.12 199.92 0 215.29 0 201.02"/><polygon class="cls-1" points="0 249.64 20.88 244.05 18.77 251.89 0 251.89 0 249.64"/><polygon class="cls-1" points="0 234.2 8.7 231.87 3.33 251.89 0 251.89 0 234.2"/></svg>