<svg id="Layer_1" data-name="Layer 1" xmlns="http://www.w3.org/2000/svg" viewBox="0 0 204.04 251.89"><defs><style>.cls-1{fill:#04384A;}</style></defs><title>Artboard 1</title><polygon class="cls-1" points="0 158.3 0.66 160.76 2.47 158.96 0 158.3"/><polygon class="cls-1" points="12.18 146.12 12.84 148.59 14.64 146.78 12.18 146.12"/><polygon class="cls-1" points="24.35 133.95 25.01 136.41 26.82 134.61 24.35 133.95"/><polygon class="cls-1" points="36.53 121.77 37.19 124.23 39 122.43 36.53 121.77"/><polygon class="cls-1" points="48.71 109.59 49.37 112.06 51.17 110.25 48.71 109.59"/><polygon class="cls-1" points="60.88 97.42 61.55 99.88 63.35 98.08 60.88 97.42"/><polygon class="cls-1" points="73.06 85.24 73.72 87.7 75.53 85.9 73.06 85.24"/><polygon class="cls-1" points="85.24 73.06 85.9 75.53 87.7 73.72 85.24 73.06"/><polygon class="cls-1" points="97.42 60.88 98.08 63.35 99.88 61.55 97.42 60.88"/><polygon class="cls-1" points="109.59 48.71 110.25 51.17 112.06 49.37 109.59 48.71"/><polygon class="cls-1" points="121.77 36.53 122.43 39 124.23 37.19 121.77 36.53"/><polygon class="cls-1" points="133.95 24.35 134.61 26.82 136.41 25.01 133.95 24.35"/><polygon class="cls-1" points="146.12 12.18 146.78 14.64 148.59 12.84 146.12 12.18"/><polygon class="cls-1" points="158.3 0 158.96 2.47 160.76 0.66 158.3 0"/><polygon class="cls-1" points="4.8 175.28 6.55 181.8 11.32 177.03 4.8 175.28"/><polygon class="cls-1" points="16.98 163.1 18.73 169.62 23.5 164.85 16.98 163.1"/><polygon class="cls-1" points="29.16 150.93 30.9 157.44 35.67 152.67 29.16 150.93"/><polygon class="cls-1" points="41.34 138.75 43.08 145.27 47.85 140.5 41.34 138.75"/><polygon class="cls-1" points="53.51 126.57 55.26 133.09 60.03 128.32 53.51 126.57"/><polygon class="cls-1" points="65.69 114.4 67.44 120.91 72.2 116.14 65.69 114.4"/><polygon class="cls-1" points="77.87 102.22 79.61 108.74 84.38 103.97 77.87 102.22"/><polygon class="cls-1" points="90.04 90.04 91.79 96.56 96.56 91.79 90.04 90.04"/><polygon class="cls-1" points="102.22 77.87 103.97 84.38 108.74 79.61 102.22 77.87"/><polygon class="cls-1" points="114.4 65.69 116.14 72.2 120.91 67.44 114.4 65.69"/><polygon class="cls-1" points="126.57 53.51 128.32 60.03 133.09 55.26 126.57 53.51"/><polygon class="cls-1" points="138.75 41.34 140.5 47.85 145.27 43.08 138.75 41.34"/><polygon class="cls-1" points="150.93 29.16 152.67 35.67 157.44 30.9 150.93 29.16"/><polygon class="cls-1" points="163.1 16.98 164.85 23.5 169.62 18.73 163.1 16.98"/><polygon class="cls-1" points="175.28 4.8 177.03 11.32 181.8 6.55 175.28 4.8"/><polygon class="cls-1" points="21.84 180.14 24.63 190.53 32.23 182.93 21.84 180.14"/><polygon class="cls-1" points="34.02 167.96 36.8 178.35 44.41 170.75 34.02 167.96"/><polygon class="cls-1" points="46.2 155.79 48.98 166.18 56.59 158.57 46.2 155.79"/><polygon class="cls-1" points="58.37 143.61 61.16 154 68.76 146.4 58.37 143.61"/><polygon class="cls-1" points="70.55 131.43 73.33 141.82 80.94 134.22 70.55 131.43"/><polygon class="cls-1" points="82.73 119.26 85.51 129.65 93.12 122.04 82.73 119.26"/><polygon class="cls-1" points="94.9 107.08 97.69 117.47 105.29 109.86 94.9 107.08"/><polygon class="cls-1" points="107.08 94.9 109.86 105.29 117.47 97.69 107.08 94.9"/><polygon class="cls-1" points="119.26 82.73 122.04 93.12 129.65 85.51 119.26 82.73"/><polygon class="cls-1" points="131.43 70.55 134.22 80.94 141.82 73.33 131.43 70.55"/><polygon class="cls-1" points="143.61 58.37 146.4 68.76 154 61.16 143.61 58.37"/><polygon class="cls-1" points="155.79 46.2 158.57 56.59 166.18 48.98 155.79 46.2"/><polygon class="cls-1" points="167.96 34.02 170.75 44.41 178.35 36.8 167.96 34.02"/><polygon class="cls-1" points="180.14 21.84 182.93 32.23 190.53 24.63 180.14 21.84"/><polygon class="cls-1" points="26.7 197.18 30.52 211.44 40.97 201 26.7 197.18"/><polygon class="cls-1" points="38.88 185 42.7 199.27 53.15 188.82 38.88 185"/><polygon class="cls-1" points="51.05 172.82 54.88 187.09 65.32 176.65 51.05 172.82"/><polygon class="cls-1" points="63.23 160.65 67.06 174.91 77.5 164.47 63.23 160.65"/><polygon class="cls-1" points="75.41 148.47 79.23 162.74 89.67 152.29 75.41 148.47"/><polygon class="cls-1" points="87.59 136.29 91.41 150.56 101.85 140.12 87.59 136.29"/><polygon class="cls-1" points="99.76 124.12 103.59 138.38 114.03 127.94 99.76 124.12"/><polygon class="cls-1" points="111.94 111.94 115.76 126.21 126.21 115.76 111.94 111.94"/><polygon class="cls-1" points="124.12 99.76 127.94 114.03 138.38 103.59 124.12 99.76"/><polygon class="cls-1" points="136.29 87.59 140.12 101.85 150.56 91.41 136.29 87.59"/><polygon class="cls-1" points="148.47 75.41 152.29 89.67 162.74 79.23 148.47 75.41"/><polygon class="cls-1" points="160.65 63.23 164.47 77.5 174.91 67.06 160.65 63.23"/><polygon class="cls-1" points="172.82 51.05 176.65 65.32 187.09 54.88 172.82 51.05"/><polygon class="cls-1" points="185 38.88 188.82 53.15 199.27 42.7 185 38.88"/><polygon class="cls-1" points="204.04 28.54 197.18 26.7 201 40.97 204.04 37.93 204.04 28.54"/><polygon class="cls-1" points="43.68 201.98 48.59 220.3 62 206.89 43.68 201.98"/><polygon class="cls-1" points="55.86 189.81 60.77 208.12 74.18 194.71 55.86 189.81"/><polygon class="cls-1" points="68.04 177.63 72.94 195.95 86.35 182.54 68.04 177.63"/><polygon class="cls-1" points="80.21 165.45 85.12 183.77 98.53 170.36 80.21 165.45"/><polygon class="cls-1" points="92.39 153.28 97.3 171.59 110.71 158.18 92.39 153.28"/><polygon class="cls-1" points="104.57 141.1 109.47 159.41 122.88 146.01 104.57 141.1"/><polygon class="cls-1" points="116.74 128.92 121.65 147.24 135.06 133.83 116.74 128.92"/><polygon class="cls-1" points="128.92 116.74 133.83 135.06 147.24 121.65 128.92 116.74"/><polygon class="cls-1" points="141.1 104.57 146.01 122.88 159.41 109.47 141.1 104.57"/><polygon class="cls-1" points="153.28 92.39 158.18 110.71 171.59 97.3 153.28 92.39"/><polygon class="cls-1" points="165.45 80.21 170.36 98.53 183.77 85.12 165.45 80.21"/><polygon class="cls-1" points="177.63 68.04 182.54 86.35 195.95 72.94 177.63 68.04"/><polygon class="cls-1" points="204.04 59.67 189.81 55.86 194.71 74.18 204.04 64.85 204.04 59.67"/><polygon class="cls-1" points="204.04 44.23 201.98 43.68 204.04 51.35 204.04 44.23"/><polygon class="cls-1" points="48.54 219.02 54.49 241.21 70.73 224.97 48.54 219.02"/><polygon class="cls-1" points="60.72 206.84 66.67 229.03 82.91 212.79 60.72 206.84"/><polygon class="cls-1" points="72.9 194.67 78.84 216.86 95.09 200.61 72.9 194.67"/><polygon class="cls-1" points="85.07 182.49 91.02 204.68 107.27 188.44 85.07 182.49"/><polygon class="cls-1" points="97.25 170.31 103.2 192.5 119.44 176.26 97.25 170.31"/><polygon class="cls-1" points="109.43 158.13 115.37 180.33 131.62 164.08 109.43 158.13"/><polygon class="cls-1" points="121.6 145.96 127.55 168.15 143.8 151.9 121.6 145.96"/><polygon class="cls-1" points="133.78 133.78 139.73 155.97 155.97 139.73 133.78 133.78"/><polygon class="cls-1" points="145.96 121.6 151.9 143.8 168.15 127.55 145.96 121.6"/><polygon class="cls-1" points="158.13 109.43 164.08 131.62 180.33 115.37 158.13 109.43"/><polygon class="cls-1" points="170.31 97.25 176.26 119.44 192.5 103.2 170.31 97.25"/><polygon class="cls-1" points="204.04 90.85 182.49 85.07 188.44 107.27 204.04 91.66 204.04 90.85"/><polygon class="cls-1" points="204.04 75.41 194.67 72.9 200.61 95.09 204.04 91.66 204.04 75.41"/><polygon class="cls-1" points="65.58 223.88 72.56 249.95 91.65 230.86 65.58 223.88"/><polygon class="cls-1" points="77.76 211.7 84.74 237.77 103.82 218.69 77.76 211.7"/><polygon class="cls-1" points="89.93 199.53 96.92 225.59 116 206.51 89.93 199.53"/><polygon class="cls-1" points="102.11 187.35 109.09 213.41 128.18 194.33 102.11 187.35"/><polygon class="cls-1" points="114.29 175.17 121.27 201.24 140.35 182.16 114.29 175.17"/><polygon class="cls-1" points="126.47 163 133.45 189.06 152.53 169.98 126.47 163"/><polygon class="cls-1" points="138.64 150.82 145.63 176.88 164.71 157.8 138.64 150.82"/><polygon class="cls-1" points="150.82 138.64 157.8 164.71 176.88 145.63 150.82 138.64"/><polygon class="cls-1" points="163 126.47 169.98 152.53 189.06 133.45 163 126.47"/><polygon class="cls-1" points="175.17 114.29 182.16 140.35 201.24 121.27 175.17 114.29"/><polygon class="cls-1" points="204.04 106.58 187.35 102.11 194.33 128.18 204.04 118.47 204.04 106.58"/><polygon class="cls-1" points="204.04 91.14 199.53 89.93 204.04 106.77 204.04 91.14"/><polygon class="cls-1" points="97.54 251.89 100.5 248.93 70.39 240.86 73.34 251.89 97.54 251.89"/><polygon class="cls-1" points="97.54 251.89 112.68 236.75 82.56 228.68 88.78 251.89 97.54 251.89"/><polygon class="cls-1" points="94.74 216.51 102.81 246.62 124.86 224.58 94.74 216.51"/><polygon class="cls-1" points="106.92 204.33 114.98 234.45 137.03 212.4 106.92 204.33"/><polygon class="cls-1" points="119.09 192.15 127.16 222.27 149.21 200.22 119.09 192.15"/><polygon class="cls-1" points="131.27 179.98 139.34 210.09 161.39 188.05 131.27 179.98"/><polygon class="cls-1" points="143.45 167.8 151.52 197.92 173.56 175.87 143.45 167.8"/><polygon class="cls-1" points="155.62 155.62 163.69 185.74 185.74 163.69 155.62 155.62"/><polygon class="cls-1" points="167.8 143.45 175.87 173.56 197.92 151.52 167.8 143.45"/><polygon class="cls-1" points="204.04 137.72 179.98 131.27 188.05 161.39 204.04 145.4 204.04 137.72"/><polygon class="cls-1" points="204.04 122.28 192.15 119.09 200.22 149.21 204.04 145.4 204.04 122.28"/><polygon class="cls-1" points="110.45 251.89 87.42 245.72 89.08 251.89 110.45 251.89"/><polygon class="cls-1" points="124.35 251.89 133.59 242.65 99.6 233.54 104.51 251.89 124.35 251.89"/><polygon class="cls-1" points="124.35 251.89 145.77 230.47 111.78 221.37 119.95 251.89 124.35 251.89"/><polygon class="cls-1" points="123.95 209.19 133.06 243.18 157.94 218.3 123.95 209.19"/><polygon class="cls-1" points="136.13 197.01 145.24 231.01 170.12 206.12 136.13 197.01"/><polygon class="cls-1" points="148.31 184.84 157.41 218.83 182.3 193.94 148.31 184.84"/><polygon class="cls-1" points="160.48 172.66 169.59 206.65 194.47 181.77 160.48 172.66"/><polygon class="cls-1" points="204.04 168.89 172.66 160.48 181.77 194.47 204.04 172.21 204.04 168.89"/><polygon class="cls-1" points="204.04 153.45 184.84 148.31 193.94 182.3 204.04 172.21 204.04 153.45"/><polygon class="cls-1" points="204.04 138.01 197.01 136.13 204.04 162.34 204.04 138.01"/><polygon class="cls-1" points="109.35 251.89 104.46 250.58 104.81 251.89 109.35 251.89"/><polygon class="cls-1" points="151.16 251.89 154.5 248.55 116.64 238.4 120.25 251.89 151.16 251.89"/><polygon class="cls-1" points="151.16 251.89 166.68 236.37 128.81 226.23 135.69 251.89 151.16 251.89"/><polygon class="cls-1" points="151.16 251.89 178.86 224.2 140.99 214.05 151.13 251.89 151.16 251.89"/><polygon class="cls-1" points="153.17 201.87 163.31 239.74 191.03 212.02 153.17 201.87"/><polygon class="cls-1" points="165.34 189.7 175.49 227.56 203.21 199.84 165.34 189.7"/><polygon class="cls-1" points="204.04 184.63 177.52 177.52 187.67 215.39 204.04 199.02 204.04 184.63"/><polygon class="cls-1" points="204.04 169.19 189.7 165.34 199.84 203.21 204.04 199.02 204.04 169.19"/><polygon class="cls-1" points="204.04 153.75 201.87 153.17 204.04 161.24 204.04 153.75"/><polygon class="cls-1" points="166.02 251.89 133.62 243.21 135.94 251.89 166.02 251.89"/><polygon class="cls-1" points="178.08 251.89 187.71 242.26 145.79 231.03 151.38 251.89 178.08 251.89"/><polygon class="cls-1" points="178.08 251.89 199.89 230.09 157.97 218.85 166.82 251.89 178.08 251.89"/><polygon class="cls-1" points="204.04 215.76 170.15 206.68 181.38 248.6 204.04 225.94 204.04 215.76"/><polygon class="cls-1" points="204.04 200.32 182.32 194.5 193.56 236.42 204.04 225.94 204.04 200.32"/><polygon class="cls-1" points="204.04 184.88 194.5 182.32 204.04 217.91 204.04 184.88"/><polygon class="cls-1" points="163.39 251.89 151.21 248.63 152.09 251.89 163.39 251.89"/><polygon class="cls-1" points="204.04 247.34 163.39 236.45 167.53 251.89 203.78 251.89 204.04 251.63 204.04 247.34"/><polygon class="cls-1" points="204.04 231.9 175.57 224.27 182.97 251.89 203.78 251.89 204.04 251.63 204.04 231.9"/><polygon class="cls-1" points="204.04 216.46 187.74 212.1 198.41 251.89 203.78 251.89 204.04 251.63 204.04 216.46"/><polygon class="cls-1" points="204.04 201.02 199.92 199.92 204.04 215.29 204.04 201.02"/><polygon class="cls-1" points="204.04 249.64 183.16 244.05 185.26 251.89 204.04 251.89 204.04 249.64"/><polygon class="cls-1" points="204.04 234.2 195.34 231.87 200.7 251.89 204.04 251.89 204.04 234.2"/></svg>