<svg xmlns="http://www.w3.org/2000/svg" width="1009.6" height="265" viewBox="0 0 1009.6 265"><g transform="translate(0.143)"><g transform="translate(496.222)"><path d="M220.47,0,157.4,36.045V108.1l2.081,1.2,60.989,34.846L283.383,108.1V36.045Zm0,12.173L245.7,49.037H195.337Zm-13.592,5.172L186.223,47.681l-16.146-9.24Zm27.215,0L270.9,38.41l-16.146,9.271ZM165.915,45.726l16.114,9.24-16.114,32.8Zm109.143,0V87.763L258.912,54.84l16.146-9.24ZM194.706,57.457h51.529L220.47,101.606ZM187.674,62,212.9,105.17l-44.748-3.154Zm65.341,0,19.8,40.018-44.78,3.154ZM179.506,111.13l36.8,2.586V132.2Zm81.992,0L224.7,132.2v-18.48Z" transform="translate(-157.4)" fill="#2f404f"/></g><path d="M1.826,135.024v-12.33L44.809,75.107A119.331,119.331,0,0,0,60.387,54.641a31.756,31.756,0,0,0,4.131-15.484,24.314,24.314,0,0,0-5.771-16.493,18.921,18.921,0,0,0-15.2-6.749q-13.623,0-20.025,6.938A27.909,27.909,0,0,0,17.215,42.5H.092v-.568A36.991,36.991,0,0,1,11.255,13.551C18.824,5.73,29.7,1.788,43.547,1.788A38.284,38.284,0,0,1,71.74,12.037,35.036,35.036,0,0,1,82.273,38.274a41.406,41.406,0,0,1-6.307,21.444A137.872,137.872,0,0,1,58.148,82.865l-34.689,37.59.189.441H70.289l1.451-15.042H86.782v29.17ZM177.351,90.875h18.07V104.75h-18.07v16.4l14.7,2.523v11.353H144.965V123.672l14.7-2.523v-16.4H100.815V94.6l57.8-90.916h18.732Zm-57.615,0h39.955V29l-.536-.189-1.8,4.762Zm88.8-75.685V3.68h47.114V15.19l-14.7,2.523V62.966H304.6V17.65l-14.569-2.46V3.68h46.988V15.19L322.35,17.713V120.991l14.664,2.523v11.51H290.027V123.672l14.7-2.523V77H240.958v44.149l14.7,2.523v11.353H208.54V123.672l14.664-2.523V17.65Zm199.4-11.353q21.475,0,32.891,9.461t11.447,27.12a28.382,28.382,0,0,1-5.3,16.934A35.666,35.666,0,0,1,431.746,68.8a26.521,26.521,0,0,1,15.389,11.447A37.211,37.211,0,0,1,451.928,99.8v10.533a20.025,20.025,0,0,0,1.514,8.924,6.307,6.307,0,0,0,5.046,3.406l4.32.568v11.794h-9.461a15.988,15.988,0,0,1-14.79-7.19,33.648,33.648,0,0,1-4.32-17.5V99.989A23.872,23.872,0,0,0,427.93,82.8a22.075,22.075,0,0,0-16.682-6.5H382.866v44.685l14.7,2.523v11.51h-47.3V123.672l14.7-2.523V17.65l-14.6-2.46V3.775h57.583ZM382.709,62.4h23.336c9.934,0,17.124-1.892,21.633-5.676a20.4,20.4,0,0,0,6.748-16.588,21.318,21.318,0,0,0-6.307-16.4C423.767,19.7,417.082,17.713,408,17.713H382.772Z" transform="translate(-0.045 3.731)" fill="#2f404f"/><g transform="translate(667.647 6.292)"><path d="M268.523,4.029q21.129,0,32.45,9.461t11.258,26.584a27.782,27.782,0,0,1-5.109,16.619,34.909,34.909,0,0,1-15.137,11.542,26.111,26.111,0,0,1,15.137,11.227,36.9,36.9,0,0,1,4.7,19.268v10.5A19.426,19.426,0,0,0,313.335,118a6.307,6.307,0,0,0,4.983,3.406l4.257.5v11.479h-9.461a15.768,15.768,0,0,1-14.569-7.127,32.89,32.89,0,0,1-4.037-17.313V98.918a23.651,23.651,0,0,0-6.307-17,21.759,21.759,0,0,0-16.43-6.307H243.737v44.149l14.475,2.491v11.2H211.76V122.1l14.475-2.491V17.778l-14.475-2.46V4.029h56.763Zm-24.787,57.9h23.021q14.664,0,21.318-5.613a20.088,20.088,0,0,0,6.654-16.461,21.034,21.034,0,0,0-6.307-16.178c-4.352-4-10.943-5.9-19.9-5.9H243.737ZM394.349,3.934q20.656,0,32.166,10.659a36.391,36.391,0,0,1,11.542,28.066A36.328,36.328,0,0,1,426.515,70.82q-11.479,10.6-32.166,10.6h-27.31v38.189l14.475,2.491v11.195H334.9V122.1l14.475-2.491V17.778L334.9,15.318V3.934h59.444Zm-27.31,63.8h27.467c8.767,0,15.295-2.365,19.615-7.032a25.229,25.229,0,0,0,6.528-17.691,25.544,25.544,0,0,0-6.591-17.944q-6.559-7.285-19.71-7.285h-27.31ZM553.57,118.691a58.122,58.122,0,0,1-16.808,11.29,67.99,67.99,0,0,1-28.886,5.235,54.335,54.335,0,0,1-42.352-18.227q-16.367-18.2-16.367-47.3V67.541q0-29.233,16.178-47.3T508.506,2.011a64.931,64.931,0,0,1,25.228,4.51,55.755,55.755,0,0,1,18.417,11.889V41.871H539.884L535.6,24.085a36.8,36.8,0,0,0-10.564-5.866,42.352,42.352,0,0,0-14.727-2.3q-21,0-32.355,14.412t-11.29,37.117V69.78q0,23.178,10.943,37.5a36.139,36.139,0,0,0,30.274,14.285,56.763,56.763,0,0,0,17.344-2.207,47.713,47.713,0,0,0,10.848-4.888V86.083L514.814,85.2V72.239H553.57Z" transform="translate(-211.76 -1.995)" fill="#2f404f"/></g></g><path d="M19.678,102.834a16.9,16.9,0,0,1,10.785,3.154,10.533,10.533,0,0,1,3.91,8.767,8.735,8.735,0,0,1-1.64,5.3,11.763,11.763,0,0,1-4.793,3.627,8.609,8.609,0,0,1,5.14,3.5,11.132,11.132,0,0,1,1.577,6.086v2.05a3.469,3.469,0,0,0,.5,2.05,2.334,2.334,0,0,0,1.766.883h.978v4.888H33.743a6.591,6.591,0,0,1-5.582-2.144,8.893,8.893,0,0,1-1.608-5.519V133.2a6.559,6.559,0,0,0-1.577-4.636,6.055,6.055,0,0,0-4.415-1.766H13.939v10.659l4.32.82v4.856H1.545v-4.793l4.289-.82V108.447l-4.289-.725v-4.888H19.678Zm-5.739,17.817h5.613A7.631,7.631,0,0,0,24.6,119.2a5.14,5.14,0,0,0,1.7-4.163,5.771,5.771,0,0,0-1.671-4.32,6.812,6.812,0,0,0-4.951-1.64H13.939Zm63.543,2.68A21.539,21.539,0,0,1,72.531,138a16.9,16.9,0,0,1-13.276,5.8A16.682,16.682,0,0,1,46.041,138,21.7,21.7,0,0,1,41,123.332v-.6a21.728,21.728,0,0,1,5.014-14.664A16.651,16.651,0,0,1,59.1,102.14a16.777,16.777,0,0,1,13.434,5.929,21.475,21.475,0,0,1,5.109,14.664Zm-8.1-.662a18.07,18.07,0,0,0-2.617-10.186,8.672,8.672,0,0,0-7.663-4.036,8.42,8.42,0,0,0-7.6,3.879,18.574,18.574,0,0,0-2.523,10.217v.662a18.921,18.921,0,0,0,2.523,10.28,8.515,8.515,0,0,0,7.632,3.879,8.609,8.609,0,0,0,7.695-3.69,18.259,18.259,0,0,0,2.554-10.344ZM80.7,143.136v-4.793l4.446-.82V108.447l-4.32-.82v-4.793H97.538v4.888l-4.446.725v28.382h11.384l.41-5.077h6.307v11.384Zm59.318-17.66H126.362v11.51h13.024l.347-4.825h6.307v10.974H113.968v-4.793l4.289-.82V108.447l-4.289-.82v-4.793H145.85V113.9h-6.307l-.347-4.825H126.267v10.154h13.749Zm29.422-22.642a15.989,15.989,0,0,1,10.943,3.563,11.984,11.984,0,0,1,4,9.461,11.794,11.794,0,0,1-4,9.461,15.957,15.957,0,0,1-10.943,3.532h-6.812v8.956l4.32.82v4.51H150.234v-4.793l4.289-.82V108.447l-4.289-.82v-4.793Zm-6.812,19.489h6.812a6.717,6.717,0,0,0,5.109-1.829,6.559,6.559,0,0,0,1.734-4.7,6.875,6.875,0,0,0-1.734-4.825,6.622,6.622,0,0,0-5.109-1.892h-6.812Zm24.314,20.813v-4.793l4.289-.82V108.447l-4.289-.82v-4.793h16.714v4.888l-4.32.725v28.382h11.384l.568-4.919h6.307v11.227Zm32.86-4.793,2.87-.41,12.3-35.1h8.262l12.2,35.1,2.87.41v4.793H244.556v-4.793l2.807-.5-1.766-5.519H232.509l-1.766,5.519,2.807.5v4.793H219.8Zm14.632-11.983h9.24l-4.541-14.222Zm34.153-18.637-3.154.473,6.307,13.245,6.307-13.245-3.154-.473v-4.888h15.232v4.888l-3.563.725-10.974,20.719v8.514l4.32.82v4.636H263.193v-4.793l4.32-.82V128.6l-10.785-20.151-3.406-.568v-5.046h15.263Zm24.03,0v-4.888h16.714v4.888l-4.32.725v28.981l4.32.82v4.888H292.615v-4.793l4.32-.82V108.447Zm61.021-4.888v4.888l-4.32.82v34.594h-8.073l-16.43-27.089v21.444l4.32.82v4.825H312.419v-4.793l4.289-.82V108.447l-4.289-.82v-4.793h12.393l16.3,27.183v-21.57l-4.32-.82v-4.793h16.84Zm36.045,35.887a17.754,17.754,0,0,1-5.708,3.5,25.228,25.228,0,0,1-9.461,1.577,17.407,17.407,0,0,1-13.308-5.487,20.025,20.025,0,0,1-5.2-14.1v-1.388a21.349,21.349,0,0,1,5.046-14.758,16.871,16.871,0,0,1,13.213-5.676,23.967,23.967,0,0,1,8.672,1.514,19.457,19.457,0,0,1,6.528,4.068v8.136h-5.992l-1.135-5.393A8.546,8.546,0,0,0,379.4,109.2a14,14,0,0,0-4.131-.757,9.681,9.681,0,0,0-8.231,3.91,16.525,16.525,0,0,0-2.964,10.217v1.64a15.39,15.39,0,0,0,2.9,9.807,9.934,9.934,0,0,0,8.294,3.564,14.947,14.947,0,0,0,3.942-.442,8.547,8.547,0,0,0,2.365-.946v-6.843l-5.771-.441v-5.708h13.876Zm51.434,0a17.943,17.943,0,0,1-5.74,3.5,25.228,25.228,0,0,1-9.461,1.577,17.376,17.376,0,0,1-13.308-5.487,19.9,19.9,0,0,1-5.2-14.1v-1.388a21.476,21.476,0,0,1,5.046-14.758,16.871,16.871,0,0,1,13.276-5.929,23.967,23.967,0,0,1,8.672,1.514,18.92,18.92,0,0,1,6.528,4.068v8.136h-5.992l-1.135-5.393a8.01,8.01,0,0,0-2.933-1.514,13.845,13.845,0,0,0-4.163-.568,9.681,9.681,0,0,0-8.231,3.91,16.524,16.524,0,0,0-2.933,10.217v1.7a15.389,15.389,0,0,0,2.87,9.807,9.934,9.934,0,0,0,8.325,3.69,14.946,14.946,0,0,0,3.942-.441,8.545,8.545,0,0,0,2.365-.946v-6.969l-5.771-.441v-5.708h13.907Zm3.532-.378,2.87-.41,12.3-35.1h8.294l12.173,35.1,2.9.41v4.793H469.433v-4.793l2.775-.5-1.766-5.519H457.355l-1.766,5.519,2.807.5v4.793H444.647Zm14.632-11.983h9.271l-4.573-14.222Zm65.593-13.024h-.158l-10.69,29.8H508.6l-10.754-29.769h-.189l.788,17.723V137.4l4.32.82v4.919H486.052v-4.793l4.289-.82V108.447l-4.289-.82v-4.793h14.853l10.28,29.738h.158l10.375-29.738h14.916v4.888l-4.32.82v28.981l4.32.82v4.793H519.921v-4.793l4.289-.82v-6.307Zm40.586,12.141H551.866v11.51H564.89l.378-4.825h6.149v10.974H539.252v-4.793l4.32-.82V108.447l-4.32-.725v-4.888h31.882V113.9h-6.307l-.347-4.825H551.866v10.154h13.686Zm40.838-9.744h-6.055l-1.072-5.55a11.29,11.29,0,0,0-3.154-1.167,19.11,19.11,0,0,0-4.32-.473,8.231,8.231,0,0,0-5.14,1.388,4.415,4.415,0,0,0-1.8,3.627,3.91,3.91,0,0,0,1.892,3.343,25.546,25.546,0,0,0,6.559,2.807,25.67,25.67,0,0,1,10.123,4.888,10.217,10.217,0,0,1,3.469,8.01,9.65,9.65,0,0,1-4.131,8.2,17.912,17.912,0,0,1-10.785,3,23.589,23.589,0,0,1-8.672-1.545,17.817,17.817,0,0,1-6.307-4.194v-8.451h6.307l.883,5.739a9.46,9.46,0,0,0,3.311,1.671,16.366,16.366,0,0,0,4.667.631,8.009,8.009,0,0,0,5.046-1.356,4.352,4.352,0,0,0,1.734-3.627,4.7,4.7,0,0,0-1.64-3.753,17,17,0,0,0-5.8-2.649,33.333,33.333,0,0,1-10.848-4.919,9.46,9.46,0,0,1-3.69-7.821,9.618,9.618,0,0,1,4.163-8.041,17.313,17.313,0,0,1,10.438-3.154,24.186,24.186,0,0,1,8.483,1.419,18.921,18.921,0,0,1,6.307,3.753Zm17.691,22.611,4.289-.82V108.447l-4.289-.82v-4.793h32.1V113.9h-6.307l-.158-4.825H636.381V120.21h14.128v6.307H636.381v11.1l4.32.82v4.7H623.987Zm70.828-15.011A21.381,21.381,0,0,1,689.738,138a17.975,17.975,0,0,1-26.458,0,21.539,21.539,0,0,1-5.046-14.664v-.6a21.728,21.728,0,0,1,5.014-14.664,16.588,16.588,0,0,1,13.213-5.929,16.808,16.808,0,0,1,13.276,5.8,21.444,21.444,0,0,1,5.077,14.664Zm-8.042-.662a18.07,18.07,0,0,0-2.617-10.186,8.7,8.7,0,0,0-7.695-4.036,8.483,8.483,0,0,0-7.632,3.879,18.575,18.575,0,0,0-2.491,10.217v.662a18.921,18.921,0,0,0,2.523,10.281,8.483,8.483,0,0,0,7.6,3.879,8.672,8.672,0,0,0,7.852-3.69,18.511,18.511,0,0,0,2.586-10.281ZM716.2,102.834a16.9,16.9,0,0,1,10.785,3.154,10.627,10.627,0,0,1,3.91,8.767,8.955,8.955,0,0,1-1.64,5.3,11.763,11.763,0,0,1-4.793,3.627,8.7,8.7,0,0,1,5.14,3.5,11.134,11.134,0,0,1,1.577,6.086v2.05a3.469,3.469,0,0,0,.5,2.05,2.334,2.334,0,0,0,1.766.883h.978v4.888h-4.163a6.591,6.591,0,0,1-5.582-2.144,8.893,8.893,0,0,1-1.608-5.519V133.2a6.559,6.559,0,0,0-1.577-4.636,6.086,6.086,0,0,0-4.415-1.766h-6.622v10.659l4.32.82v4.856H698.063v-4.793l4.289-.82V108.447l-4.289-.82v-4.793Zm-5.739,17.817h5.613a7.632,7.632,0,0,0,5.046-1.451,5.14,5.14,0,0,0,1.7-4.163,5.771,5.771,0,0,0-1.671-4.32,6.812,6.812,0,0,0-4.951-1.64h-5.739Zm73.6-4.194h-5.992l-.852-5.393a8.2,8.2,0,0,0-3.154-1.861,11.762,11.762,0,0,0-4.289-.694,9.461,9.461,0,0,0-8.1,3.816,16.3,16.3,0,0,0-2.838,9.965v1.419a16.4,16.4,0,0,0,2.838,10,9.272,9.272,0,0,0,7.978,3.879,13.689,13.689,0,0,0,4.352-.694A7.474,7.474,0,0,0,777.154,135l.851-5.393H784v8.01a17.217,17.217,0,0,1-6.307,4.478,20.34,20.34,0,0,1-8.451,1.7,17.25,17.25,0,0,1-13.308-5.645,20.4,20.4,0,0,1-5.2-14.443v-1.356a20.624,20.624,0,0,1,5.172-14.443,17.281,17.281,0,0,1,13.56-5.771,20.34,20.34,0,0,1,8.451,1.7,18.258,18.258,0,0,1,6.307,4.51Zm3.721-8.735v-4.888h16.714v4.888l-4.32.82V120.21h16.587V108.447l-4.32-.82v-4.793h16.714v4.888l-4.32.82v28.981l4.32.82v4.793H812.442v-4.793l4.32-.82v-11.1H800.3v11.1l4.32.82v4.793H787.907v-4.793l4.289-.82V108.447Zm43.96,30.621,2.9-.41,12.267-35.1H855.2l12.173,35.1,2.9.41v4.793H856.528v-4.793l2.807-.5-1.8-5.519H844.482l-1.8,5.519,2.807.5v4.793H831.741Zm14.632-11.983h9.271L851.1,112.137h-.189Zm44.685-23.525a16.9,16.9,0,0,1,10.785,3.154,10.627,10.627,0,0,1,3.91,8.767,8.734,8.734,0,0,1-1.64,5.3,11.763,11.763,0,0,1-4.793,3.627,8.7,8.7,0,0,1,5.14,3.5,11.132,11.132,0,0,1,1.577,6.086v2.05a3.469,3.469,0,0,0,.5,2.05,2.334,2.334,0,0,0,1.766.883h.978v4.888h-4.226a6.591,6.591,0,0,1-5.582-2.144,8.893,8.893,0,0,1-1.608-5.519V133.2a6.559,6.559,0,0,0-1.577-4.636,6.087,6.087,0,0,0-4.415-1.766h-6.622v10.659l4.32.82v4.856H872.863v-4.793l4.289-.82V108.447l-4.289-.82v-4.793H891Zm-5.739,17.817h5.613a7.632,7.632,0,0,0,5.046-1.451,5.14,5.14,0,0,0,1.7-4.163,5.771,5.771,0,0,0-1.671-4.32,6.812,6.812,0,0,0-4.951-1.64H885.32Zm26.616-12.929v-4.888h16.714v4.888l-4.32.82v28.981l4.32.82v4.793H911.935v-4.793l4.32-.82V108.447Zm55.313-4.888v10.754h-6.307l-.315-4.51h-7.442v28.382l4.32.82v4.856H940.759v-4.793l4.32-.82V109.141H937.7l-.347,4.51h-6.307V102.834Zm17.786,4.888-3.154.473,6.307,13.245h.189l6.307-13.245-3.153-.473v-4.888h15.263v4.888l-3.437.568-10.974,20.719v8.514l4.32.82v4.793H979.988v-4.793l4.32-.82V128.6l-11.132-20.151-3.406-.568v-5.046h15.263ZM0,56.54H1009.6V69.154H0Z" transform="translate(0 121.182)" fill="#2f404f"/></svg>