<svg id="visual" viewBox="0 0 960 540" width="960" height="540" xmlns="http://www.w3.org/2000/svg" xmlns:xlink="http://www.w3.org/1999/xlink" version="1.1"><rect width="960" height="540" fill="#d26f95"></rect><g><g transform="translate(466 513)"><path d="M0 -55.9L48.4 -28L48.4 28L0 55.9L-48.4 28L-48.4 -28Z" fill="#7fbaaa"></path></g><g transform="translate(507 204)"><path d="M0 -49L42.4 -24.5L42.4 24.5L0 49L-42.4 24.5L-42.4 -24.5Z" fill="#7fbaaa"></path></g><g transform="translate(884 100)"><path d="M0 -52L45 -26L45 26L0 52L-45 26L-45 -26Z" fill="#7fbaaa"></path></g><g transform="translate(932 255)"><path d="M0 -54L46.8 -27L46.8 27L0 54L-46.8 27L-46.8 -27Z" fill="#7fbaaa"></path></g><g transform="translate(137 400)"><path d="M0 -42L36.4 -21L36.4 21L0 42L-36.4 21L-36.4 -21Z" fill="#7fbaaa"></path></g><g transform="translate(332 238)"><path d="M0 -44L38.1 -22L38.1 22L0 44L-38.1 22L-38.1 -22Z" fill="#7fbaaa"></path></g><g transform="translate(797 443)"><path d="M0 -41L35.5 -20.5L35.5 20.5L0 41L-35.5 20.5L-35.5 -20.5Z" fill="#7fbaaa"></path></g><g transform="translate(7 297)"><path d="M0 -25L21.7 -12.5L21.7 12.5L0 25L-21.7 12.5L-21.7 -12.5Z" fill="#7fbaaa"></path></g><g transform="translate(72 83)"><path d="M0 -25L21.7 -12.5L21.7 12.5L0 25L-21.7 12.5L-21.7 -12.5Z" fill="#7fbaaa"></path></g><g transform="translate(446 4)"><path d="M0 -35L30.3 -17.5L30.3 17.5L0 35L-30.3 17.5L-30.3 -17.5Z" fill="#7fbaaa"></path></g><g transform="translate(793 32)"><path d="M0 -46L39.8 -23L39.8 23L0 46L-39.8 23L-39.8 -23Z" fill="#7fbaaa"></path></g><g transform="translate(669 270)"><path d="M0 -51L44.2 -25.5L44.2 25.5L0 51L-44.2 25.5L-44.2 -25.5Z" fill="#7fbaaa"></path></g><g transform="translate(370 363)"><path d="M0 -46L39.8 -23L39.8 23L0 46L-39.8 23L-39.8 -23Z" fill="#7fbaaa"></path></g></g></svg>