<svg id="visual" viewBox="0 0 960 540" width="960" height="540" xmlns="http://www.w3.org/2000/svg" xmlns:xlink="http://www.w3.org/1999/xlink" version="1.1"><rect width="960" height="540" fill="#c89891"></rect><g><g transform="translate(633 90)"><path d="M0 -155.5L134.6 -77.7L134.6 77.7L0 155.5L-134.6 77.7L-134.6 -77.7Z" fill="none" stroke="#2f404f" stroke-width="10"></path></g><g transform="translate(299 358)"><path d="M0 -115L99.6 -57.5L99.6 57.5L0 115L-99.6 57.5L-99.6 -57.5Z" fill="none" stroke="#2f404f" stroke-width="10"></path></g><g transform="translate(40 102)"><path d="M0 -104L90.1 -52L90.1 52L0 104L-90.1 52L-90.1 -52Z" stroke="#2f404f" fill="none" stroke-width="10"></path></g><g transform="translate(957 479)"><path d="M0 -125L108.3 -62.5L108.3 62.5L0 125L-108.3 62.5L-108.3 -62.5Z" stroke="#2f404f" fill="none" stroke-width="10"></path></g><g transform="translate(638 524)"><path d="M0 -56L48.5 -28L48.5 28L0 56L-48.5 28L-48.5 -28Z" stroke="#2f404f" fill="none" stroke-width="10"></path></g><g transform="translate(955 80)"><path d="M0 -117L101.3 -58.5L101.3 58.5L0 117L-101.3 58.5L-101.3 -58.5Z" stroke="#2f404f" fill="none" stroke-width="10"></path></g><g transform="translate(6 507)"><path d="M0 -141L122.1 -70.5L122.1 70.5L0 141L-122.1 70.5L-122.1 -70.5Z" stroke="#2f404f" fill="none" stroke-width="10"></path></g></g></svg>