<svg id="visual" viewBox="0 0 960 540" width="960" height="540" xmlns="http://www.w3.org/2000/svg" xmlns:xlink="http://www.w3.org/1999/xlink" version="1.1"><rect width="960" height="540" fill="#d26f95"></rect><g><g transform="translate(400 125)"><path d="M0 -55.9L48.4 -28L48.4 28L0 55.9L-48.4 28L-48.4 -28Z" fill="none" stroke="#f0f1ee" stroke-width="2"></path></g><g transform="translate(804 173)"><path d="M0 -46L39.8 -23L39.8 23L0 46L-39.8 23L-39.8 -23Z" fill="none" stroke="#f0f1ee" stroke-width="2"></path></g><g transform="translate(566 412)"><path d="M0 -20L17.3 -10L17.3 10L0 20L-17.3 10L-17.3 -10Z" fill="none" stroke="#f0f1ee" stroke-width="2"></path></g><g transform="translate(19 275)"><path d="M0 -42L36.4 -21L36.4 21L0 42L-36.4 21L-36.4 -21Z" fill="none" stroke="#f0f1ee" stroke-width="2"></path></g><g transform="translate(751 362)"><path d="M0 -41L35.5 -20.5L35.5 20.5L0 41L-35.5 20.5L-35.5 -20.5Z" stroke="#f0f1ee" fill="none" stroke-width="2"></path></g><g transform="translate(339 345)"><path d="M0 -34L29.4 -17L29.4 17L0 34L-29.4 17L-29.4 -17Z" stroke="#f0f1ee" fill="none" stroke-width="2"></path></g><g transform="translate(684 246)"><path d="M0 -38L32.9 -19L32.9 19L0 38L-32.9 19L-32.9 -19Z" stroke="#f0f1ee" fill="none" stroke-width="2"></path></g><g transform="translate(32 438)"><path d="M0 -30L26 -15L26 15L0 30L-26 15L-26 -15Z" stroke="#f0f1ee" fill="none" stroke-width="2"></path></g><g transform="translate(621 145)"><path d="M0 -51L44.2 -25.5L44.2 25.5L0 51L-44.2 25.5L-44.2 -25.5Z" stroke="#f0f1ee" fill="none" stroke-width="2"></path></g><g transform="translate(237 187)"><path d="M0 -29L25.1 -14.5L25.1 14.5L0 29L-25.1 14.5L-25.1 -14.5Z" stroke="#f0f1ee" fill="none" stroke-width="2"></path></g><g transform="translate(923 164)"><path d="M0 -28L24.2 -14L24.2 14L0 28L-24.2 14L-24.2 -14Z" stroke="#f0f1ee" fill="none" stroke-width="2"></path></g><g transform="translate(914 42)"><path d="M0 -20L17.3 -10L17.3 10L0 20L-17.3 10L-17.3 -10Z" stroke="#f0f1ee" fill="none" stroke-width="2"></path></g><g transform="translate(471 279)"><path d="M0 -43L37.2 -21.5L37.2 21.5L0 43L-37.2 21.5L-37.2 -21.5Z" stroke="#f0f1ee" fill="none" stroke-width="2"></path></g></g></svg>