<svg id="visual" viewBox="0 0 960 540" width="960" height="540" xmlns="http://www.w3.org/2000/svg" xmlns:xlink="http://www.w3.org/1999/xlink" version="1.1"><rect width="960" height="540" fill="#2f404f"></rect><g><g transform="translate(820 272)"><path d="M0 -70L60.6 -35L60.6 35L0 70L-60.6 35L-60.6 -35Z" fill="#7fbaaa"></path></g><g transform="translate(38 385)"><path d="M0 -49L42.4 -24.5L42.4 24.5L0 49L-42.4 24.5L-42.4 -24.5Z" fill="#7fbaaa"></path></g><g transform="translate(669 485)"><path d="M0 -48L41.6 -24L41.6 24L0 48L-41.6 24L-41.6 -24Z" fill="#7fbaaa"></path></g><g transform="translate(245 439)"><path d="M0 -60L52 -30L52 30L0 60L-52 30L-52 -30Z" fill="#7fbaaa"></path></g><g transform="translate(355 314)"><path d="M0 -20L17.3 -10L17.3 10L0 20L-17.3 10L-17.3 -10Z" fill="#7fbaaa"></path></g><g transform="translate(212 105)"><path d="M0 -45L39 -22.5L39 22.5L0 45L-39 22.5L-39 -22.5Z" fill="#7fbaaa"></path></g><g transform="translate(743 116)"><path d="M0 -66L57.2 -33L57.2 33L0 66L-57.2 33L-57.2 -33Z" fill="#7fbaaa"></path></g><g transform="translate(920 502)"><path d="M0 -55L47.6 -27.5L47.6 27.5L0 55L-47.6 27.5L-47.6 -27.5Z" fill="#7fbaaa"></path></g><g transform="translate(536 25)"><path d="M0 -52L45 -26L45 26L0 52L-45 26L-45 -26Z" fill="#7fbaaa"></path></g></g></svg>