<svg id="visual" viewBox="0 0 960 540" width="960" height="540" xmlns="http://www.w3.org/2000/svg" xmlns:xlink="http://www.w3.org/1999/xlink" version="1.1"><rect width="960" height="540" fill="#302a3a"></rect><g><g transform="translate(273 211)"><path d="M0 -47.6L41.2 -23.8L41.2 23.8L0 47.6L-41.2 23.8L-41.2 -23.8Z" fill="none" stroke="#c89891" stroke-width="2"></path></g><g transform="translate(215 301)"><path d="M0 -5L4.3 -2.5L4.3 2.5L0 5L-4.3 2.5L-4.3 -2.5Z" fill="none" stroke="#c89891" stroke-width="2"></path></g><g transform="translate(303 30)"><path d="M0 -9L7.8 -4.5L7.8 4.5L0 9L-7.8 4.5L-7.8 -4.5Z" fill="none" stroke="#c89891" stroke-width="2"></path></g><g transform="translate(2 55)"><path d="M0 -16L13.9 -8L13.9 8L0 16L-13.9 8L-13.9 -8Z" fill="none" stroke="#c89891" stroke-width="2"></path></g><g transform="translate(203 518)"><path d="M0 -30L26 -15L26 15L0 30L-26 15L-26 -15Z" fill="none" stroke="#c89891" stroke-width="2"></path></g><g transform="translate(901 59)"><path d="M0 -10L8.7 -5L8.7 5L0 10L-8.7 5L-8.7 -5Z" fill="none" stroke="#c89891" stroke-width="2"></path></g><g transform="translate(430 532)"><path d="M0 -24L20.8 -12L20.8 12L0 24L-20.8 12L-20.8 -12Z" fill="none" stroke="#c89891" stroke-width="2"></path></g><g transform="translate(320 521)"><path d="M0 -36L31.2 -18L31.2 18L0 36L-31.2 18L-31.2 -18Z" fill="none" stroke="#c89891" stroke-width="2"></path></g><g transform="translate(504 455)"><path d="M0 -45L39 -22.5L39 22.5L0 45L-39 22.5L-39 -22.5Z" fill="none" stroke="#c89891" stroke-width="2"></path></g><g transform="translate(936 430)"><path d="M0 -35L30.3 -17.5L30.3 17.5L0 35L-30.3 17.5L-30.3 -17.5Z" fill="none" stroke="#c89891" stroke-width="2"></path></g><g transform="translate(862 268)"><path d="M0 -7L6.1 -3.5L6.1 3.5L0 7L-6.1 3.5L-6.1 -3.5Z" fill="none" stroke="#c89891" stroke-width="2"></path></g><g transform="translate(774 94)"><path d="M0 -22L19.1 -11L19.1 11L0 22L-19.1 11L-19.1 -11Z" fill="none" stroke="#c89891" stroke-width="2"></path></g><g transform="translate(13 374)"><path d="M0 -15L13 -7.5L13 7.5L0 15L-13 7.5L-13 -7.5Z" fill="none" stroke="#c89891" stroke-width="2"></path></g><g transform="translate(632 513)"><path d="M0 -38L32.9 -19L32.9 19L0 38L-32.9 19L-32.9 -19Z" fill="none" stroke="#c89891" stroke-width="2"></path></g><g transform="translate(660 326)"><path d="M0 -21L18.2 -10.5L18.2 10.5L0 21L-18.2 10.5L-18.2 -10.5Z" fill="none" stroke="#c89891" stroke-width="2"></path></g><g transform="translate(13 254)"><path d="M0 -41L35.5 -20.5L35.5 20.5L0 41L-35.5 20.5L-35.5 -20.5Z" fill="none" stroke="#c89891" stroke-width="2"></path></g><g transform="translate(743 397)"><path d="M0 -10L8.7 -5L8.7 5L0 10L-8.7 5L-8.7 -5Z" fill="none" stroke="#c89891" stroke-width="2"></path></g><g transform="translate(466 161)"><path d="M0 -40L34.6 -20L34.6 20L0 40L-34.6 20L-34.6 -20Z" fill="none" stroke="#c89891" stroke-width="2"></path></g><g transform="translate(623 20)"><path d="M0 -16L13.9 -8L13.9 8L0 16L-13.9 8L-13.9 -8Z" fill="none" stroke="#c89891" stroke-width="2"></path></g><g transform="translate(36 518)"><path d="M0 -38L32.9 -19L32.9 19L0 38L-32.9 19L-32.9 -19Z" fill="none" stroke="#c89891" stroke-width="2"></path></g><g transform="translate(324 379)"><path d="M0 -9L7.8 -4.5L7.8 4.5L0 9L-7.8 4.5L-7.8 -4.5Z" fill="none" stroke="#c89891" stroke-width="2"></path></g><g transform="translate(535 277)"><path d="M0 -44L38.1 -22L38.1 22L0 44L-38.1 22L-38.1 -22Z" fill="none" stroke="#c89891" stroke-width="2"></path></g><g transform="translate(417 326)"><path d="M0 -16L13.9 -8L13.9 8L0 16L-13.9 8L-13.9 -8Z" fill="none" stroke="#c89891" stroke-width="2"></path></g><g transform="translate(189 45)"><path d="M0 -20L17.3 -10L17.3 10L0 20L-17.3 10L-17.3 -10Z" fill="none" stroke="#c89891" stroke-width="2"></path></g><g transform="translate(120 149)"><path d="M0 -15L13 -7.5L13 7.5L0 15L-13 7.5L-13 -7.5Z" fill="none" stroke="#c89891" stroke-width="2"></path></g><g transform="translate(923 162)"><path d="M0 -37L32 -18.5L32 18.5L0 37L-32 18.5L-32 -18.5Z" fill="none" stroke="#c89891" stroke-width="2"></path></g><g transform="translate(488 7)"><path d="M0 -21L18.2 -10.5L18.2 10.5L0 21L-18.2 10.5L-18.2 -10.5Z" fill="none" stroke="#c89891" stroke-width="2"></path></g><g transform="translate(134 421)"><path d="M0 -33L28.6 -16.5L28.6 16.5L0 33L-28.6 16.5L-28.6 -16.5Z" fill="none" stroke="#c89891" stroke-width="2"></path></g><g transform="translate(598 160)"><path d="M0 -32L27.7 -16L27.7 16L0 32L-27.7 16L-27.7 -16Z" fill="none" stroke="#c89891" stroke-width="2"></path></g><g transform="translate(859 494)"><path d="M0 -8L6.9 -4L6.9 4L0 8L-6.9 4L-6.9 -4Z" fill="none" stroke="#c89891" stroke-width="2"></path></g><g transform="translate(392 232)"><path d="M0 -31L26.8 -15.5L26.8 15.5L0 31L-26.8 15.5L-26.8 -15.5Z" fill="none" stroke="#c89891" stroke-width="2"></path></g><g transform="translate(747 193)"><path d="M0 -14L12.1 -7L12.1 7L0 14L-12.1 7L-12.1 -7Z" fill="none" stroke="#c89891" stroke-width="2"></path></g><g transform="translate(13 151)"><path d="M0 -39L33.8 -19.5L33.8 19.5L0 39L-33.8 19.5L-33.8 -19.5Z" fill="none" stroke="#c89891" stroke-width="2"></path></g><g transform="translate(233 422)"><path d="M0 -38L32.9 -19L32.9 19L0 38L-32.9 19L-32.9 -19Z" fill="none" stroke="#c89891" stroke-width="2"></path></g><g transform="translate(943 324)"><path d="M0 -46L39.8 -23L39.8 23L0 46L-39.8 23L-39.8 -23Z" fill="none" stroke="#c89891" stroke-width="2"></path></g><g transform="translate(817 7)"><path d="M0 -6L5.2 -3L5.2 3L0 6L-5.2 3L-5.2 -3Z" fill="none" stroke="#c89891" stroke-width="2"></path></g><g transform="translate(395 86)"><path d="M0 -41L35.5 -20.5L35.5 20.5L0 41L-35.5 20.5L-35.5 -20.5Z" fill="none" stroke="#c89891" stroke-width="2"></path></g><g transform="translate(411 424)"><path d="M0 -24L20.8 -12L20.8 12L0 24L-20.8 12L-20.8 -12Z" fill="none" stroke="#c89891" stroke-width="2"></path></g><g transform="translate(848 382)"><path d="M0 -27L23.4 -13.5L23.4 13.5L0 27L-23.4 13.5L-23.4 -13.5Z" fill="none" stroke="#c89891" stroke-width="2"></path></g><g transform="translate(112 262)"><path d="M0 -35L30.3 -17.5L30.3 17.5L0 35L-30.3 17.5L-30.3 -17.5Z" fill="none" stroke="#c89891" stroke-width="2"></path></g><g transform="translate(561 379)"><path d="M0 -34L29.4 -17L29.4 17L0 34L-29.4 17L-29.4 -17Z" fill="none" stroke="#c89891" stroke-width="2"></path></g><g transform="translate(754 508)"><path d="M0 -40L34.6 -20L34.6 20L0 40L-34.6 20L-34.6 -20Z" fill="none" stroke="#c89891" stroke-width="2"></path></g><g transform="translate(94 12)"><path d="M0 -43L37.2 -21.5L37.2 21.5L0 43L-37.2 21.5L-37.2 -21.5Z" fill="none" stroke="#c89891" stroke-width="2"></path></g><g transform="translate(767 303)"><path d="M0 -33L28.6 -16.5L28.6 16.5L0 33L-28.6 16.5L-28.6 -16.5Z" fill="none" stroke="#c89891" stroke-width="2"></path></g><g transform="translate(675 101)"><path d="M0 -35L30.3 -17.5L30.3 17.5L0 35L-30.3 17.5L-30.3 -17.5Z" fill="none" stroke="#c89891" stroke-width="2"></path></g></g></svg>