<svg id="visual" viewBox="0 0 960 540" width="960" height="540" xmlns="http://www.w3.org/2000/svg" xmlns:xlink="http://www.w3.org/1999/xlink" version="1.1"><rect width="960" height="540" fill="#7fbaaa"></rect><g><g transform="translate(321 512)"><path d="M0 -36.6L31.7 -18.3L31.7 18.3L0 36.6L-31.7 18.3L-31.7 -18.3Z" fill="#f0f1ee"></path></g><g transform="translate(624 387)"><path d="M0 -33L28.6 -16.5L28.6 16.5L0 33L-28.6 16.5L-28.6 -16.5Z" fill="#f0f1ee"></path></g><g transform="translate(756 236)"><path d="M0 -11L9.5 -5.5L9.5 5.5L0 11L-9.5 5.5L-9.5 -5.5Z" fill="#f0f1ee"></path></g><g transform="translate(221 408)"><path d="M0 -27L23.4 -13.5L23.4 13.5L0 27L-23.4 13.5L-23.4 -13.5Z" fill="#f0f1ee"></path></g><g transform="translate(358 226)"><path d="M0 -13L11.3 -6.5L11.3 6.5L0 13L-11.3 6.5L-11.3 -6.5Z" fill="#f0f1ee"></path></g><g transform="translate(545 10)"><path d="M0 -27L23.4 -13.5L23.4 13.5L0 27L-23.4 13.5L-23.4 -13.5Z" fill="#f0f1ee"></path></g><g transform="translate(529 251)"><path d="M0 -11L9.5 -5.5L9.5 5.5L0 11L-9.5 5.5L-9.5 -5.5Z" fill="#f0f1ee"></path></g><g transform="translate(616 213)"><path d="M0 -35L30.3 -17.5L30.3 17.5L0 35L-30.3 17.5L-30.3 -17.5Z" fill="#f0f1ee"></path></g><g transform="translate(554 160)"><path d="M0 -15L13 -7.5L13 7.5L0 15L-13 7.5L-13 -7.5Z" fill="#f0f1ee"></path></g><g transform="translate(89 212)"><path d="M0 -35L30.3 -17.5L30.3 17.5L0 35L-30.3 17.5L-30.3 -17.5Z" fill="#f0f1ee"></path></g><g transform="translate(651 77)"><path d="M0 -35L30.3 -17.5L30.3 17.5L0 35L-30.3 17.5L-30.3 -17.5Z" fill="#f0f1ee"></path></g><g transform="translate(670 522)"><path d="M0 -9L7.8 -4.5L7.8 4.5L0 9L-7.8 4.5L-7.8 -4.5Z" fill="#f0f1ee"></path></g><g transform="translate(22 132)"><path d="M0 -32L27.7 -16L27.7 16L0 32L-27.7 16L-27.7 -16Z" fill="#f0f1ee"></path></g><g transform="translate(778 415)"><path d="M0 -16L13.9 -8L13.9 8L0 16L-13.9 8L-13.9 -8Z" fill="#f0f1ee"></path></g><g transform="translate(228 178)"><path d="M0 -31L26.8 -15.5L26.8 15.5L0 31L-26.8 15.5L-26.8 -15.5Z" fill="#f0f1ee"></path></g><g transform="translate(940 239)"><path d="M0 -26L22.5 -13L22.5 13L0 26L-22.5 13L-22.5 -13Z" fill="#f0f1ee"></path></g><g transform="translate(471 322)"><path d="M0 -13L11.3 -6.5L11.3 6.5L0 13L-11.3 6.5L-11.3 -6.5Z" fill="#f0f1ee"></path></g><g transform="translate(307 123)"><path d="M0 -18L15.6 -9L15.6 9L0 18L-15.6 9L-15.6 -9Z" fill="#f0f1ee"></path></g><g transform="translate(401 446)"><path d="M0 -24L20.8 -12L20.8 12L0 24L-20.8 12L-20.8 -12Z" fill="#f0f1ee"></path></g><g transform="translate(502 525)"><path d="M0 -29L25.1 -14.5L25.1 14.5L0 29L-25.1 14.5L-25.1 -14.5Z" fill="#f0f1ee"></path></g><g transform="translate(167 131)"><path d="M0 -32L27.7 -16L27.7 16L0 32L-27.7 16L-27.7 -16Z" fill="#f0f1ee"></path></g><g transform="translate(853 336)"><path d="M0 -13L11.3 -6.5L11.3 6.5L0 13L-11.3 6.5L-11.3 -6.5Z" fill="#f0f1ee"></path></g><g transform="translate(921 405)"><path d="M0 -9L7.8 -4.5L7.8 4.5L0 9L-7.8 4.5L-7.8 -4.5Z" fill="#f0f1ee"></path></g><g transform="translate(838 249)"><path d="M0 -32L27.7 -16L27.7 16L0 32L-27.7 16L-27.7 -16Z" fill="#f0f1ee"></path></g><g transform="translate(302 20)"><path d="M0 -15L13 -7.5L13 7.5L0 15L-13 7.5L-13 -7.5Z" fill="#f0f1ee"></path></g><g transform="translate(840 16)"><path d="M0 -23L19.9 -11.5L19.9 11.5L0 23L-19.9 11.5L-19.9 -11.5Z" fill="#f0f1ee"></path></g><g transform="translate(395 73)"><path d="M0 -20L17.3 -10L17.3 10L0 20L-17.3 10L-17.3 -10Z" fill="#f0f1ee"></path></g><g transform="translate(310 319)"><path d="M0 -12L10.4 -6L10.4 6L0 12L-10.4 6L-10.4 -6Z" fill="#f0f1ee"></path></g><g transform="translate(584 518)"><path d="M0 -20L17.3 -10L17.3 10L0 20L-17.3 10L-17.3 -10Z" fill="#f0f1ee"></path></g><g transform="translate(929 24)"><path d="M0 -20L17.3 -10L17.3 10L0 20L-17.3 10L-17.3 -10Z" fill="#f0f1ee"></path></g></g></svg>